{"glyphs":{"0":{"ha":956,"x_min":70,"x_max":886,"o":"m 478 -22 q 259 40 351 -22 q 119 220 168 103 q 70 504 70 338 q 179 888 71 752 q 478 1024 288 1024 q 696 963 605 1024 q 837 785 788 902 q 886 504 886 669 q 777 116 885 254 q 478 -22 668 -22 m 478 155 q 617 242 565 155 q 668 504 668 329 q 616 763 668 676 q 478 849 564 849 q 340 763 392 849 q 288 504 288 676 q 339 242 287 329 q 478 155 391 155 z "},"1":{"ha":680,"x_min":71,"x_max":521,"o":"m 521 1010 l 521 0 l 308 0 l 308 807 l 302 807 l 71 662 l 71 852 l 321 1010 l 521 1010 z "},"2":{"ha":875,"x_min":72,"x_max":802,"o":"m 82 0 l 82 154 l 441 487 q 546 602 510 553 q 582 711 582 651 q 538 816 582 777 q 428 855 494 855 q 316 813 359 855 q 275 699 274 771 l 72 699 q 117 871 72 798 q 242 984 162 944 q 429 1024 323 1024 q 618 986 538 1024 q 744 880 699 947 q 789 725 789 813 q 766 612 789 668 q 686 489 743 556 q 525 326 629 421 l 378 182 l 378 175 l 802 175 l 802 0 l 82 0 z "},"3":{"ha":916,"x_min":72,"x_max":844,"o":"m 455 -14 q 258 24 344 -14 q 123 130 173 62 q 72 286 74 197 l 287 286 q 338 196 290 230 q 456 162 385 162 q 576 200 529 162 q 622 298 622 238 q 572 398 622 359 q 436 436 522 436 l 342 436 l 342 593 l 436 593 q 555 630 509 593 q 601 727 601 667 q 562 819 601 784 q 457 855 522 855 q 345 820 392 855 q 297 728 299 786 l 92 728 q 142 882 94 815 q 273 986 190 949 q 458 1024 355 1024 q 641 986 563 1024 q 763 884 720 948 q 806 739 807 819 q 754 598 807 654 q 616 526 701 541 l 616 518 q 786 441 727 504 q 844 284 844 378 q 794 130 844 197 q 656 25 744 63 q 455 -14 569 -14 z "},"4":{"ha":942,"x_min":67,"x_max":881,"o":"m 67 178 l 67 346 l 488 1010 l 756 1010 l 756 349 l 881 349 l 881 178 l 756 178 l 756 0 l 551 0 l 551 178 l 67 178 m 555 349 l 555 777 l 547 777 l 282 357 l 282 349 l 555 349 z "},"5":{"ha":895,"x_min":85,"x_max":829,"o":"m 451 -14 q 264 25 346 -14 q 135 131 182 63 q 85 286 87 198 l 292 286 q 342 190 296 227 q 451 154 387 154 q 574 203 526 154 q 622 331 622 253 q 573 461 622 411 q 448 511 524 511 q 362 493 403 511 q 297 443 320 475 l 107 477 l 155 1010 l 772 1010 l 772 836 l 331 836 l 305 582 l 311 582 q 391 645 337 620 q 511 669 445 669 q 674 626 603 669 q 787 509 746 583 q 828 337 829 434 q 781 156 829 235 q 648 31 733 76 q 451 -14 563 -14 z "},"6":{"ha":917,"x_min":66,"x_max":848,"o":"m 470 -14 q 319 13 392 -13 q 190 96 247 38 q 99 249 133 153 q 66 482 66 344 q 117 773 67 652 q 260 959 168 895 q 477 1024 352 1024 q 655 984 578 1024 q 780 878 732 945 q 837 728 827 811 l 626 728 q 575 811 614 781 q 477 841 535 841 q 327 755 378 841 q 275 522 276 669 l 282 522 q 385 627 316 589 q 537 664 453 664 q 697 622 626 664 q 807 507 767 580 q 847 338 848 433 q 800 156 848 236 q 667 31 752 76 q 470 -14 582 -14 m 469 154 q 592 205 543 154 q 640 332 641 256 q 592 459 641 407 q 470 510 544 510 q 382 486 421 510 q 320 421 343 462 q 297 332 297 381 q 319 242 297 283 q 381 178 342 202 q 469 154 419 154 z "},"7":{"ha":826,"x_min":53,"x_max":762,"o":"m 122 0 l 541 829 l 541 836 l 53 836 l 53 1010 l 762 1010 l 762 833 l 342 0 l 122 0 z "},"8":{"ha":918,"x_min":67,"x_max":851,"o":"m 459 -14 q 256 23 345 -14 q 117 125 168 61 q 67 272 67 190 q 96 388 67 335 q 175 476 125 441 q 286 521 224 511 l 286 528 q 155 607 206 545 q 105 752 104 669 q 150 892 105 831 q 276 989 196 953 q 459 1024 357 1024 q 641 989 561 1024 q 767 892 721 953 q 813 752 813 831 q 762 607 813 669 q 632 528 711 545 l 632 521 q 742 476 692 511 q 821 388 792 441 q 851 272 851 335 q 800 125 851 190 q 661 23 750 61 q 459 -14 573 -14 m 459 143 q 581 184 535 143 q 628 289 628 224 q 580 397 628 354 q 459 439 532 439 q 337 397 385 439 q 289 289 289 354 q 336 184 289 224 q 459 143 383 143 m 459 594 q 563 632 522 594 q 605 730 605 670 q 564 826 605 789 q 459 863 523 863 q 353 826 394 863 q 313 730 313 789 q 354 632 313 670 q 459 594 395 594 z "},"9":{"ha":917,"x_min":70,"x_max":851,"o":"m 447 1024 q 598 998 525 1023 q 727 914 670 972 q 817 763 784 857 q 851 531 851 668 q 800 238 851 360 q 657 51 750 116 q 440 -14 565 -14 q 261 25 339 -14 q 137 132 184 65 q 80 285 90 200 l 291 285 q 342 200 303 230 q 440 169 382 169 q 590 255 539 169 q 642 491 641 341 l 635 491 q 532 387 601 425 q 380 349 464 349 q 221 391 291 349 q 111 506 151 433 q 70 674 71 580 q 117 855 70 775 q 249 979 164 934 q 447 1024 334 1024 m 449 856 q 360 833 400 856 q 299 769 321 809 q 277 680 277 729 q 325 554 278 605 q 447 504 373 504 q 535 527 496 504 q 598 592 575 551 q 620 680 621 632 q 598 768 620 728 q 537 832 575 808 q 449 856 498 856 z "},"A":{"ha":1039,"x_min":33,"x_max":1005,"o":"m 262 0 l 33 0 l 382 1010 l 657 1010 l 1005 0 l 776 0 l 701 230 l 337 230 l 262 0 m 391 397 l 648 397 l 523 779 l 515 779 l 391 397 z "},"Ä":{"ha":1039,"x_min":33,"x_max":1005,"o":"m 262 0 l 33 0 l 382 1010 l 657 1010 l 1005 0 l 776 0 l 701 230 l 337 230 l 262 0 m 391 397 l 648 397 l 523 779 l 515 779 l 391 397 z "},"Ã":{"ha":1039,"x_min":33,"x_max":1005,"o":"m 262 0 l 33 0 l 382 1010 l 657 1010 l 1005 0 l 776 0 l 701 230 l 337 230 l 262 0 m 391 397 l 648 397 l 523 779 l 515 779 l 391 397 z "},"À":{"ha":1039,"x_min":33,"x_max":1005,"o":"m 262 0 l 33 0 l 382 1010 l 657 1010 l 1005 0 l 776 0 l 701 230 l 337 230 l 262 0 m 391 397 l 648 397 l 523 779 l 515 779 l 391 397 m 446 1108 l 296 1332 l 490 1332 l 595 1108 l 446 1108 z "},"Á":{"ha":1039,"x_min":33,"x_max":1005,"o":"m 262 0 l 33 0 l 382 1010 l 657 1010 l 1005 0 l 776 0 l 701 230 l 337 230 l 262 0 m 391 397 l 648 397 l 523 779 l 515 779 l 391 397 m 444 1108 l 548 1332 l 743 1332 l 592 1108 l 444 1108 z "},"Â":{"ha":1039,"x_min":33,"x_max":1005,"o":"m 262 0 l 33 0 l 382 1010 l 657 1010 l 1005 0 l 776 0 l 701 230 l 337 230 l 262 0 m 391 397 l 648 397 l 523 779 l 515 779 l 391 397 z "},"Å":{"ha":1039,"x_min":33,"x_max":1005,"o":"m 262 0 l 33 0 l 382 1010 l 657 1010 l 1005 0 l 776 0 l 701 230 l 337 230 l 262 0 m 391 397 l 648 397 l 523 779 l 515 779 l 391 397 m 519 1064 q 439 1085 475 1064 q 381 1140 402 1105 q 359 1217 359 1175 q 381 1294 359 1259 q 439 1349 402 1328 q 519 1370 475 1370 q 600 1349 564 1370 q 658 1294 636 1328 q 680 1217 680 1259 q 658 1140 680 1175 q 600 1085 636 1105 q 519 1064 564 1064 m 519 1150 q 569 1170 548 1150 q 589 1217 589 1189 q 569 1264 589 1244 q 519 1284 548 1284 q 470 1264 491 1284 q 449 1217 449 1244 q 470 1169 449 1189 q 519 1150 490 1150 z "},"Ā":{"ha":1039,"x_min":33,"x_max":1005,"o":"m 262 0 l 33 0 l 382 1010 l 657 1010 l 1005 0 l 776 0 l 701 230 l 337 230 l 262 0 m 391 397 l 648 397 l 523 779 l 515 779 l 391 397 m 760 1263 l 760 1149 l 279 1149 l 279 1263 l 760 1263 z "},"Ă":{"ha":1039,"x_min":33,"x_max":1005,"o":"m 262 0 l 33 0 l 382 1010 l 657 1010 l 1005 0 l 776 0 l 701 230 l 337 230 l 262 0 m 391 397 l 648 397 l 523 779 l 515 779 l 391 397 m 617 1274 l 763 1274 q 697 1130 763 1185 q 519 1075 631 1075 q 342 1130 407 1075 q 276 1274 276 1185 l 421 1274 q 443 1213 421 1240 q 519 1186 466 1186 q 595 1213 572 1186 q 617 1274 617 1240 z "},"Ą":{"ha":1039,"x_min":33,"x_max":1022,"o":"m 262 0 l 33 0 l 382 1010 l 657 1010 l 1005 0 l 776 0 l 701 230 l 337 230 l 262 0 m 391 397 l 648 397 l 523 779 l 515 779 l 391 397 m 909 -283 q 800 -249 844 -283 q 744 -153 756 -216 q 758 -33 732 -93 q 849 57 784 28 l 1006 0 q 930 -47 959 -22 q 901 -108 900 -72 q 948 -157 900 -157 q 978 -153 965 -157 q 1000 -145 990 -148 l 1022 -254 q 976 -273 1004 -264 q 909 -283 947 -283 z "},"Ǎ":{"ha":1039,"x_min":33,"x_max":1005,"o":"m 262 0 l 33 0 l 382 1010 l 657 1010 l 1005 0 l 776 0 l 701 230 l 337 230 l 262 0 m 391 397 l 648 397 l 523 779 l 515 779 l 391 397 m 420 1325 l 519 1204 l 618 1325 l 798 1325 l 798 1318 l 597 1101 l 441 1101 l 241 1318 l 241 1325 l 420 1325 z "},"Ǟ":{"ha":1039,"x_min":33,"x_max":1005,"o":"m 262 0 l 33 0 l 382 1010 l 657 1010 l 1005 0 l 776 0 l 701 230 l 337 230 l 262 0 m 391 397 l 648 397 l 523 779 l 515 779 l 391 397 z "},"Ǡ":{"ha":1039,"x_min":33,"x_max":1005,"o":"m 262 0 l 33 0 l 382 1010 l 657 1010 l 1005 0 l 776 0 l 701 230 l 337 230 l 262 0 m 391 397 l 648 397 l 523 779 l 515 779 l 391 397 z "},"Ǻ":{"ha":1039,"x_min":33,"x_max":1005,"o":"m 262 0 l 33 0 l 382 1010 l 657 1010 l 1005 0 l 776 0 l 701 230 l 337 230 l 262 0 m 391 397 l 648 397 l 523 779 l 515 779 l 391 397 m 519 1062 q 431 1097 468 1062 q 395 1181 395 1132 q 431 1265 395 1230 q 519 1300 468 1300 q 608 1265 572 1300 q 644 1181 644 1230 q 608 1097 644 1132 q 519 1062 572 1062 m 447 1347 l 581 1490 l 766 1490 l 576 1347 l 447 1347 m 519 1133 q 554 1147 540 1133 q 568 1181 568 1162 q 554 1212 568 1199 q 519 1226 540 1226 q 485 1212 499 1226 q 471 1181 471 1199 q 485 1147 471 1162 q 519 1133 499 1133 z "},"Ȁ":{"ha":1039,"x_min":33,"x_max":1005,"o":"m 262 0 l 33 0 l 382 1010 l 657 1010 l 1005 0 l 776 0 l 701 230 l 337 230 l 262 0 m 391 397 l 648 397 l 523 779 l 515 779 l 391 397 m 437 1108 l 265 1199 l 234 1332 l 422 1240 l 437 1108 m 679 1108 l 526 1199 l 527 1332 l 689 1240 l 679 1108 z "},"Ȃ":{"ha":1039,"x_min":33,"x_max":1005,"o":"m 262 0 l 33 0 l 382 1010 l 657 1010 l 1005 0 l 776 0 l 701 230 l 337 230 l 262 0 m 391 397 l 648 397 l 523 779 l 515 779 l 391 397 m 274 1132 q 339 1279 273 1222 q 518 1337 405 1337 q 696 1279 630 1337 q 763 1132 762 1222 l 616 1132 q 593 1193 616 1166 q 518 1220 571 1220 q 442 1193 464 1220 q 420 1132 420 1166 l 274 1132 z "},"Ȧ":{"ha":1039,"x_min":33,"x_max":1005,"o":"m 262 0 l 33 0 l 382 1010 l 657 1010 l 1005 0 l 776 0 l 701 230 l 337 230 l 262 0 m 391 397 l 648 397 l 523 779 l 515 779 l 391 397 m 519 1108 q 439 1139 472 1108 q 405 1214 405 1170 q 439 1289 405 1258 q 519 1320 472 1320 q 599 1289 566 1320 q 633 1214 633 1258 q 599 1139 633 1170 q 519 1108 566 1108 z "},"Ḁ":{"ha":1039,"x_min":33,"x_max":1005,"o":"m 262 0 l 33 0 l 382 1010 l 657 1010 l 1005 0 l 776 0 l 701 230 l 337 230 l 262 0 m 391 397 l 648 397 l 523 779 l 515 779 l 391 397 m 383 -154 q 421 -72 383 -106 q 515 -38 459 -38 q 607 -72 569 -38 q 645 -154 645 -106 q 607 -238 645 -206 q 515 -271 569 -271 q 421 -238 459 -271 q 383 -154 383 -205 m 462 -154 q 477 -191 462 -177 q 515 -205 492 -205 q 550 -191 536 -205 q 565 -154 565 -177 q 550 -119 565 -133 q 515 -106 536 -106 q 477 -119 492 -106 q 462 -154 462 -133 z "},"Ạ":{"ha":1039,"x_min":33,"x_max":1005,"o":"m 262 0 l 33 0 l 382 1010 l 657 1010 l 1005 0 l 776 0 l 701 230 l 337 230 l 262 0 m 391 397 l 648 397 l 523 779 l 515 779 l 391 397 z "},"Ả":{"ha":1039,"x_min":33,"x_max":1005,"o":"m 262 0 l 33 0 l 382 1010 l 657 1010 l 1005 0 l 776 0 l 701 230 l 337 230 l 262 0 m 391 397 l 648 397 l 523 779 l 515 779 l 391 397 m 597 1119 l 441 1119 l 430 1207 q 505 1221 482 1210 q 526 1252 527 1233 q 498 1288 527 1279 q 428 1298 470 1298 l 433 1393 q 634 1357 565 1393 q 702 1259 702 1322 q 669 1191 702 1214 q 597 1162 636 1168 l 597 1119 z "},"Ấ":{"ha":1039,"x_min":33,"x_max":1005,"o":"m 262 0 l 33 0 l 382 1010 l 657 1010 l 1005 0 l 776 0 l 701 230 l 337 230 l 262 0 m 391 397 l 648 397 l 523 779 l 515 779 l 391 397 m 262 1093 l 461 1246 l 575 1246 l 774 1093 l 623 1093 l 519 1176 l 413 1093 l 262 1093 m 723 1180 l 838 1365 l 1001 1365 l 841 1180 l 723 1180 z "},"Ầ":{"ha":1039,"x_min":33,"x_max":1005,"o":"m 262 0 l 33 0 l 382 1010 l 657 1010 l 1005 0 l 776 0 l 701 230 l 337 230 l 262 0 m 391 397 l 648 397 l 523 779 l 515 779 l 391 397 m 575 1243 l 775 1090 l 623 1090 l 519 1173 l 414 1090 l 263 1090 l 462 1243 l 575 1243 m 199 1361 l 315 1177 l 197 1177 l 37 1361 l 199 1361 z "},"Ẩ":{"ha":1039,"x_min":33,"x_max":1005,"o":"m 262 0 l 33 0 l 382 1010 l 657 1010 l 1005 0 l 776 0 l 701 230 l 337 230 l 262 0 m 391 397 l 648 397 l 523 779 l 515 779 l 391 397 m 578 1241 l 772 1088 l 628 1088 l 518 1174 l 407 1088 l 263 1088 l 457 1241 l 578 1241 m 817 1174 l 708 1174 l 699 1248 q 780 1285 780 1252 q 756 1315 780 1308 q 695 1323 732 1323 l 700 1403 q 853 1373 800 1403 q 906 1291 906 1344 q 878 1234 906 1254 q 817 1209 850 1215 l 817 1174 z "},"Ẫ":{"ha":1039,"x_min":33,"x_max":1005,"o":"m 262 0 l 33 0 l 382 1010 l 657 1010 l 1005 0 l 776 0 l 701 230 l 337 230 l 262 0 m 391 397 l 648 397 l 523 779 l 515 779 l 391 397 m 576 1237 l 774 1086 l 629 1086 l 518 1168 l 410 1086 l 263 1086 l 463 1237 l 576 1237 m 627 1405 l 700 1380 q 674 1306 699 1340 q 606 1273 649 1273 q 551 1284 575 1273 q 505 1306 527 1295 q 458 1316 483 1316 q 432 1302 441 1316 q 422 1270 422 1288 l 351 1289 q 376 1361 351 1327 q 444 1394 401 1394 q 494 1384 469 1394 q 544 1363 519 1374 q 592 1352 568 1352 q 617 1369 607 1352 q 627 1405 626 1386 z "},"Ậ":{"ha":1039,"x_min":33,"x_max":1005,"o":"m 262 0 l 33 0 l 382 1010 l 657 1010 l 1005 0 l 776 0 l 701 230 l 337 230 l 262 0 m 391 397 l 648 397 l 523 779 l 515 779 l 391 397 z "},"Ắ":{"ha":1039,"x_min":33,"x_max":1005,"o":"m 262 0 l 33 0 l 382 1010 l 657 1010 l 1005 0 l 776 0 l 701 230 l 337 230 l 262 0 m 391 397 l 648 397 l 523 779 l 515 779 l 391 397 m 626 1250 l 763 1250 q 696 1133 763 1179 q 516 1088 629 1088 q 338 1133 404 1088 q 273 1250 272 1179 l 407 1250 q 432 1197 406 1221 q 516 1173 457 1173 q 601 1197 576 1173 q 626 1250 626 1221 m 459 1249 l 546 1376 l 691 1376 l 569 1249 l 459 1249 z "},"Ằ":{"ha":1039,"x_min":33,"x_max":1005,"o":"m 262 0 l 33 0 l 382 1010 l 657 1010 l 1005 0 l 776 0 l 701 230 l 337 230 l 262 0 m 391 397 l 648 397 l 523 779 l 515 779 l 391 397 m 626 1251 l 763 1251 q 696 1136 763 1181 q 516 1090 630 1090 q 338 1136 404 1090 q 273 1251 272 1181 l 407 1251 q 432 1198 406 1222 q 516 1174 457 1174 q 600 1198 575 1174 q 626 1251 626 1222 m 472 1249 l 349 1376 l 494 1376 l 580 1249 l 472 1249 z "},"Ẳ":{"ha":1039,"x_min":33,"x_max":1005,"o":"m 262 0 l 33 0 l 382 1010 l 657 1010 l 1005 0 l 776 0 l 701 230 l 337 230 l 262 0 m 391 397 l 648 397 l 523 779 l 515 779 l 391 397 m 624 1243 l 761 1243 q 694 1127 761 1171 q 514 1083 628 1083 q 335 1127 400 1083 q 268 1243 269 1171 l 403 1243 q 430 1192 404 1213 q 514 1171 455 1171 q 599 1192 574 1171 q 624 1243 625 1214 m 575 1265 l 447 1265 l 435 1335 q 530 1367 530 1338 q 502 1397 530 1390 q 432 1404 474 1404 l 438 1477 q 618 1450 557 1477 q 679 1374 679 1423 q 647 1321 679 1338 q 575 1299 615 1304 l 575 1265 z "},"Ẵ":{"ha":1039,"x_min":33,"x_max":1005,"o":"m 262 0 l 33 0 l 382 1010 l 657 1010 l 1005 0 l 776 0 l 701 230 l 337 230 l 262 0 m 391 397 l 648 397 l 523 779 l 515 779 l 391 397 m 623 1245 l 759 1245 q 692 1128 759 1173 q 514 1083 626 1083 q 337 1128 403 1083 q 271 1245 271 1173 l 405 1245 q 430 1195 405 1216 q 514 1173 455 1173 q 598 1194 572 1173 q 623 1245 623 1215 m 632 1456 l 719 1430 q 686 1345 719 1382 q 604 1308 654 1308 q 542 1319 567 1308 q 493 1342 516 1331 q 440 1353 470 1353 q 407 1336 422 1353 q 393 1295 393 1320 l 308 1318 q 340 1404 308 1367 q 423 1442 372 1442 q 478 1431 452 1442 q 530 1408 504 1419 q 586 1397 557 1397 q 618 1414 604 1397 q 632 1456 632 1431 z "},"Ặ":{"ha":1039,"x_min":33,"x_max":1005,"o":"m 262 0 l 33 0 l 382 1010 l 657 1010 l 1005 0 l 776 0 l 701 230 l 337 230 l 262 0 m 391 397 l 648 397 l 523 779 l 515 779 l 391 397 m 617 1274 l 763 1274 q 697 1130 763 1185 q 519 1075 631 1075 q 342 1130 407 1075 q 276 1274 276 1185 l 421 1274 q 443 1213 421 1240 q 519 1186 466 1186 q 595 1213 572 1186 q 617 1274 617 1240 z "},"Α":{"ha":1039,"x_min":33,"x_max":1005,"o":"m 262 0 l 33 0 l 382 1010 l 657 1010 l 1005 0 l 776 0 l 701 230 l 337 230 l 262 0 m 391 397 l 648 397 l 523 779 l 515 779 l 391 397 z "},"Ά":{"ha":1039,"x_min":33,"x_max":1005,"o":"m 262 0 l 33 0 l 382 1010 l 657 1010 l 1005 0 l 776 0 l 701 230 l 337 230 l 262 0 m 391 397 l 648 397 l 523 779 l 515 779 l 391 397 z "},"Ἀ":{"ha":1039,"x_min":33,"x_max":1005,"o":"m 262 0 l 33 0 l 382 1010 l 657 1010 l 1005 0 l 776 0 l 701 230 l 337 230 l 262 0 m 391 397 l 648 397 l 523 779 l 515 779 l 391 397 z "},"Ἁ":{"ha":1039,"x_min":33,"x_max":1005,"o":"m 262 0 l 33 0 l 382 1010 l 657 1010 l 1005 0 l 776 0 l 701 230 l 337 230 l 262 0 m 391 397 l 648 397 l 523 779 l 515 779 l 391 397 z "},"Ἂ":{"ha":1039,"x_min":-145,"x_max":1005,"o":"m 262 0 l 33 0 l 382 1010 l 657 1010 l 1005 0 l 776 0 l 701 230 l 337 230 l 262 0 m 391 397 l 648 397 l 523 779 l 515 779 l 391 397 z "},"Ἃ":{"ha":1039,"x_min":-107,"x_max":1005,"o":"m 262 0 l 33 0 l 382 1010 l 657 1010 l 1005 0 l 776 0 l 701 230 l 337 230 l 262 0 m 391 397 l 648 397 l 523 779 l 515 779 l 391 397 z "},"Ἄ":{"ha":1039,"x_min":-115,"x_max":1005,"o":"m 262 0 l 33 0 l 382 1010 l 657 1010 l 1005 0 l 776 0 l 701 230 l 337 230 l 262 0 m 391 397 l 648 397 l 523 779 l 515 779 l 391 397 z "},"Ἅ":{"ha":1039,"x_min":-135,"x_max":1005,"o":"m 262 0 l 33 0 l 382 1010 l 657 1010 l 1005 0 l 776 0 l 701 230 l 337 230 l 262 0 m 391 397 l 648 397 l 523 779 l 515 779 l 391 397 z "},"Ἆ":{"ha":1039,"x_min":-25,"x_max":1005,"o":"m 262 0 l 33 0 l 382 1010 l 657 1010 l 1005 0 l 776 0 l 701 230 l 337 230 l 262 0 m 391 397 l 648 397 l 523 779 l 515 779 l 391 397 z "},"Ἇ":{"ha":1039,"x_min":-43,"x_max":1005,"o":"m 262 0 l 33 0 l 382 1010 l 657 1010 l 1005 0 l 776 0 l 701 230 l 337 230 l 262 0 m 391 397 l 648 397 l 523 779 l 515 779 l 391 397 z "},"Ᾰ":{"ha":1039,"x_min":33,"x_max":1005,"o":"m 262 0 l 33 0 l 382 1010 l 657 1010 l 1005 0 l 776 0 l 701 230 l 337 230 l 262 0 m 391 397 l 648 397 l 523 779 l 515 779 l 391 397 m 617 1274 l 763 1274 q 697 1130 763 1185 q 519 1075 631 1075 q 342 1130 407 1075 q 276 1274 276 1185 l 421 1274 q 443 1213 421 1240 q 519 1186 466 1186 q 595 1213 572 1186 q 617 1274 617 1240 z "},"Ᾱ":{"ha":1039,"x_min":33,"x_max":1005,"o":"m 262 0 l 33 0 l 382 1010 l 657 1010 l 1005 0 l 776 0 l 701 230 l 337 230 l 262 0 m 391 397 l 648 397 l 523 779 l 515 779 l 391 397 m 760 1263 l 760 1149 l 279 1149 l 279 1263 l 760 1263 z "},"Ὰ":{"ha":1039,"x_min":33,"x_max":1005,"o":"m 262 0 l 33 0 l 382 1010 l 657 1010 l 1005 0 l 776 0 l 701 230 l 337 230 l 262 0 m 391 397 l 648 397 l 523 779 l 515 779 l 391 397 z "},"Ⱥ":{"ha":1039,"x_min":33,"x_max":1005,"o":"m 847 1138 l 734 787 l 1005 0 l 776 0 l 701 230 l 554 230 l 438 -128 l 309 -128 l 425 230 l 337 230 l 262 0 l 33 0 l 382 1010 l 657 1010 l 667 980 l 719 1138 l 847 1138 m 479 397 l 563 657 l 523 779 l 515 779 l 391 397 l 479 397 m 627 458 l 608 397 l 648 397 l 627 458 z "},"Ά":{"ha":1039,"x_min":33,"x_max":1005,"o":"m 262 0 l 33 0 l 382 1010 l 657 1010 l 1005 0 l 776 0 l 701 230 l 337 230 l 262 0 m 391 397 l 648 397 l 523 779 l 515 779 l 391 397 z "},"А":{"ha":1039,"x_min":33,"x_max":1005,"o":"m 262 0 l 33 0 l 382 1010 l 657 1010 l 1005 0 l 776 0 l 701 230 l 337 230 l 262 0 m 391 397 l 648 397 l 523 779 l 515 779 l 391 397 z "},"Ӑ":{"ha":1039,"x_min":33,"x_max":1005,"o":"m 262 0 l 33 0 l 382 1010 l 657 1010 l 1005 0 l 776 0 l 701 230 l 337 230 l 262 0 m 391 397 l 648 397 l 523 779 l 515 779 l 391 397 m 617 1274 l 763 1274 q 697 1130 763 1185 q 519 1075 631 1075 q 342 1130 407 1075 q 276 1274 276 1185 l 421 1274 q 443 1213 421 1240 q 519 1186 466 1186 q 595 1213 572 1186 q 617 1274 617 1240 z "},"Ӓ":{"ha":1039,"x_min":33,"x_max":1005,"o":"m 262 0 l 33 0 l 382 1010 l 657 1010 l 1005 0 l 776 0 l 701 230 l 337 230 l 262 0 m 391 397 l 648 397 l 523 779 l 515 779 l 391 397 z "},"ᾈ":{"ha":1039,"x_min":33,"x_max":1005,"o":"m 262 0 l 33 0 l 382 1010 l 657 1010 l 1005 0 l 776 0 l 701 230 l 337 230 l 262 0 m 391 397 l 648 397 l 523 779 l 515 779 l 391 397 m 587 -335 q 496 -305 533 -335 q 458 -208 458 -275 l 458 -65 l 583 -65 l 583 -207 q 620 -248 583 -248 q 639 -247 631 -248 q 652 -246 647 -246 l 652 -327 q 622 -333 638 -330 q 587 -335 607 -335 z "},"ᾉ":{"ha":1039,"x_min":33,"x_max":1005,"o":"m 262 0 l 33 0 l 382 1010 l 657 1010 l 1005 0 l 776 0 l 701 230 l 337 230 l 262 0 m 391 397 l 648 397 l 523 779 l 515 779 l 391 397 m 587 -335 q 496 -305 533 -335 q 458 -208 458 -275 l 458 -65 l 583 -65 l 583 -207 q 620 -248 583 -248 q 639 -247 631 -248 q 652 -246 647 -246 l 652 -327 q 622 -333 638 -330 q 587 -335 607 -335 z "},"ᾊ":{"ha":1039,"x_min":-145,"x_max":1005,"o":"m 262 0 l 33 0 l 382 1010 l 657 1010 l 1005 0 l 776 0 l 701 230 l 337 230 l 262 0 m 391 397 l 648 397 l 523 779 l 515 779 l 391 397 m 587 -335 q 496 -305 533 -335 q 458 -208 458 -275 l 458 -65 l 583 -65 l 583 -207 q 620 -248 583 -248 q 639 -247 631 -248 q 652 -246 647 -246 l 652 -327 q 622 -333 638 -330 q 587 -335 607 -335 z "},"ᾋ":{"ha":1039,"x_min":-107,"x_max":1005,"o":"m 262 0 l 33 0 l 382 1010 l 657 1010 l 1005 0 l 776 0 l 701 230 l 337 230 l 262 0 m 391 397 l 648 397 l 523 779 l 515 779 l 391 397 m 587 -335 q 496 -305 533 -335 q 458 -208 458 -275 l 458 -65 l 583 -65 l 583 -207 q 620 -248 583 -248 q 639 -247 631 -248 q 652 -246 647 -246 l 652 -327 q 622 -333 638 -330 q 587 -335 607 -335 z "},"ᾌ":{"ha":1039,"x_min":-115,"x_max":1005,"o":"m 262 0 l 33 0 l 382 1010 l 657 1010 l 1005 0 l 776 0 l 701 230 l 337 230 l 262 0 m 391 397 l 648 397 l 523 779 l 515 779 l 391 397 m 587 -335 q 496 -305 533 -335 q 458 -208 458 -275 l 458 -65 l 583 -65 l 583 -207 q 620 -248 583 -248 q 639 -247 631 -248 q 652 -246 647 -246 l 652 -327 q 622 -333 638 -330 q 587 -335 607 -335 z "},"ᾍ":{"ha":1039,"x_min":-135,"x_max":1005,"o":"m 262 0 l 33 0 l 382 1010 l 657 1010 l 1005 0 l 776 0 l 701 230 l 337 230 l 262 0 m 391 397 l 648 397 l 523 779 l 515 779 l 391 397 m 587 -335 q 496 -305 533 -335 q 458 -208 458 -275 l 458 -65 l 583 -65 l 583 -207 q 620 -248 583 -248 q 639 -247 631 -248 q 652 -246 647 -246 l 652 -327 q 622 -333 638 -330 q 587 -335 607 -335 z "},"ᾎ":{"ha":1039,"x_min":-25,"x_max":1005,"o":"m 262 0 l 33 0 l 382 1010 l 657 1010 l 1005 0 l 776 0 l 701 230 l 337 230 l 262 0 m 391 397 l 648 397 l 523 779 l 515 779 l 391 397 m 587 -335 q 496 -305 533 -335 q 458 -208 458 -275 l 458 -65 l 583 -65 l 583 -207 q 620 -248 583 -248 q 639 -247 631 -248 q 652 -246 647 -246 l 652 -327 q 622 -333 638 -330 q 587 -335 607 -335 z "},"ᾏ":{"ha":1039,"x_min":-43,"x_max":1005,"o":"m 262 0 l 33 0 l 382 1010 l 657 1010 l 1005 0 l 776 0 l 701 230 l 337 230 l 262 0 m 391 397 l 648 397 l 523 779 l 515 779 l 391 397 m 587 -335 q 496 -305 533 -335 q 458 -208 458 -275 l 458 -65 l 583 -65 l 583 -207 q 620 -248 583 -248 q 639 -247 631 -248 q 652 -246 647 -246 l 652 -327 q 622 -333 638 -330 q 587 -335 607 -335 z "},"ᾼ":{"ha":1039,"x_min":33,"x_max":1005,"o":"m 262 0 l 33 0 l 382 1010 l 657 1010 l 1005 0 l 776 0 l 701 230 l 337 230 l 262 0 m 391 397 l 648 397 l 523 779 l 515 779 l 391 397 m 587 -335 q 496 -305 533 -335 q 458 -208 458 -275 l 458 -65 l 583 -65 l 583 -207 q 620 -248 583 -248 q 639 -247 631 -248 q 652 -246 647 -246 l 652 -327 q 622 -333 638 -330 q 587 -335 607 -335 z "},"Λ":{"ha":1039,"x_min":33,"x_max":1005,"o":"m 262 0 l 33 0 l 382 1010 l 657 1010 l 1005 0 l 776 0 l 523 779 l 515 779 l 262 0 z "},"Æ":{"ha":1431,"x_min":33,"x_max":1350,"o":"m 33 0 l 466 1010 l 1348 1010 l 1348 834 l 881 834 l 881 593 l 1313 593 l 1313 417 l 881 417 l 881 176 l 1350 176 l 1350 0 l 668 0 l 668 230 l 363 230 l 268 0 l 33 0 m 432 397 l 668 397 l 668 800 l 597 800 l 432 397 z "},"Ǣ":{"ha":1431,"x_min":33,"x_max":1350,"o":"m 33 0 l 466 1010 l 1348 1010 l 1348 834 l 881 834 l 881 593 l 1313 593 l 1313 417 l 881 417 l 881 176 l 1350 176 l 1350 0 l 668 0 l 668 230 l 363 230 l 268 0 l 33 0 m 432 397 l 668 397 l 668 800 l 597 800 l 432 397 m 1150 1263 l 1150 1149 l 669 1149 l 669 1263 l 1150 1263 z "},"Ǽ":{"ha":1431,"x_min":33,"x_max":1350,"o":"m 33 0 l 466 1010 l 1348 1010 l 1348 834 l 881 834 l 881 593 l 1313 593 l 1313 417 l 881 417 l 881 176 l 1350 176 l 1350 0 l 668 0 l 668 230 l 363 230 l 268 0 l 33 0 m 432 397 l 668 397 l 668 800 l 597 800 l 432 397 m 834 1108 l 939 1332 l 1133 1332 l 982 1108 l 834 1108 z "},"Ӕ":{"ha":1431,"x_min":33,"x_max":1350,"o":"m 33 0 l 466 1010 l 1348 1010 l 1348 834 l 881 834 l 881 593 l 1313 593 l 1313 417 l 881 417 l 881 176 l 1350 176 l 1350 0 l 668 0 l 668 230 l 363 230 l 268 0 l 33 0 m 432 397 l 668 397 l 668 800 l 597 800 l 432 397 z "},"B":{"ha":918,"x_min":88,"x_max":867,"o":"m 88 0 l 88 1010 l 492 1010 q 744 937 659 1010 q 828 751 828 865 q 776 607 828 662 q 645 534 724 552 l 645 524 q 753 492 703 522 q 836 408 804 462 q 867 279 867 354 q 827 136 867 199 q 710 36 788 73 q 519 0 633 0 l 88 0 m 301 175 l 475 175 q 606 209 565 175 q 647 300 647 244 q 602 403 647 363 q 480 443 557 443 l 301 443 l 301 175 m 301 587 l 460 587 q 569 622 525 587 q 612 716 612 656 q 573 804 612 770 q 464 837 535 837 l 301 837 l 301 587 z "},"Ḃ":{"ha":918,"x_min":88,"x_max":867,"o":"m 88 0 l 88 1010 l 492 1010 q 744 937 659 1010 q 828 751 828 865 q 776 607 828 662 q 645 534 724 552 l 645 524 q 753 492 703 522 q 836 408 804 462 q 867 279 867 354 q 827 136 867 199 q 710 36 788 73 q 519 0 633 0 l 88 0 m 301 175 l 475 175 q 606 209 565 175 q 647 300 647 244 q 602 403 647 363 q 480 443 557 443 l 301 443 l 301 175 m 301 587 l 460 587 q 569 622 525 587 q 612 716 612 656 q 573 804 612 770 q 464 837 535 837 l 301 837 l 301 587 m 444 1108 q 364 1139 398 1108 q 330 1214 330 1170 q 364 1289 330 1258 q 444 1320 398 1320 q 524 1289 491 1320 q 558 1214 558 1258 q 524 1139 558 1170 q 444 1108 491 1108 z "},"Ḅ":{"ha":918,"x_min":88,"x_max":867,"o":"m 88 0 l 88 1010 l 492 1010 q 744 937 659 1010 q 828 751 828 865 q 776 607 828 662 q 645 534 724 552 l 645 524 q 753 492 703 522 q 836 408 804 462 q 867 279 867 354 q 827 136 867 199 q 710 36 788 73 q 519 0 633 0 l 88 0 m 301 175 l 475 175 q 606 209 565 175 q 647 300 647 244 q 602 403 647 363 q 480 443 557 443 l 301 443 l 301 175 m 301 587 l 460 587 q 569 622 525 587 q 612 716 612 656 q 573 804 612 770 q 464 837 535 837 l 301 837 l 301 587 z "},"Ḇ":{"ha":918,"x_min":88,"x_max":867,"o":"m 88 0 l 88 1010 l 492 1010 q 744 937 659 1010 q 828 751 828 865 q 776 607 828 662 q 645 534 724 552 l 645 524 q 753 492 703 522 q 836 408 804 462 q 867 279 867 354 q 827 136 867 199 q 710 36 788 73 q 519 0 633 0 l 88 0 m 301 175 l 475 175 q 606 209 565 175 q 647 300 647 244 q 602 403 647 363 q 480 443 557 443 l 301 443 l 301 175 m 301 587 l 460 587 q 569 622 525 587 q 612 716 612 656 q 573 804 612 770 q 464 837 535 837 l 301 837 l 301 587 z "},"Ƀ":{"ha":1005,"x_min":30,"x_max":955,"o":"m 176 0 l 176 1010 l 580 1010 q 831 937 747 1010 q 915 751 915 865 q 864 607 915 662 q 733 534 812 552 l 733 524 q 841 492 791 522 q 923 408 892 462 q 955 279 955 354 q 915 136 955 199 q 798 36 875 73 q 607 0 721 0 l 176 0 m 389 175 l 563 175 q 694 209 653 175 q 734 300 734 244 q 690 403 734 363 q 568 443 645 443 l 389 443 l 389 175 m 389 587 l 547 587 q 656 622 613 587 q 700 716 700 656 q 661 804 700 770 q 551 837 622 837 l 389 837 l 389 587 m 30 247 l 30 371 l 522 371 l 522 247 l 30 247 z "},"Ɓ":{"ha":1203,"x_min":49,"x_max":1153,"o":"m 373 0 l 373 836 l 339 836 q 276 817 298 836 q 247 769 255 798 q 240 709 239 740 l 240 651 l 49 651 l 49 750 q 126 940 49 869 q 338 1010 204 1010 l 778 1010 q 1029 937 945 1010 q 1113 751 1113 865 q 1061 607 1113 662 q 931 534 1010 552 l 931 524 q 1039 492 988 522 q 1121 408 1090 462 q 1153 279 1153 354 q 1113 136 1153 199 q 996 36 1073 73 q 805 0 918 0 l 373 0 m 587 175 l 761 175 q 891 209 851 175 q 932 300 932 244 q 888 403 932 363 q 766 443 843 443 l 587 443 l 587 175 m 587 587 l 745 587 q 854 622 811 587 q 898 716 898 656 q 859 804 898 770 q 749 837 820 837 l 587 837 l 587 587 z "},"В":{"ha":918,"x_min":88,"x_max":867,"o":"m 88 0 l 88 1010 l 492 1010 q 744 937 659 1010 q 828 751 828 865 q 776 607 828 662 q 645 534 724 552 l 645 524 q 753 492 703 522 q 836 408 804 462 q 867 279 867 354 q 827 136 867 199 q 710 36 788 73 q 519 0 633 0 l 88 0 m 301 175 l 475 175 q 606 209 565 175 q 647 300 647 244 q 602 403 647 363 q 480 443 557 443 l 301 443 l 301 175 m 301 587 l 460 587 q 569 622 525 587 q 612 716 612 656 q 573 804 612 770 q 464 837 535 837 l 301 837 l 301 587 z "},"Β":{"ha":918,"x_min":88,"x_max":867,"o":"m 88 0 l 88 1010 l 492 1010 q 744 937 659 1010 q 828 751 828 865 q 776 607 828 662 q 645 534 724 552 l 645 524 q 753 492 703 522 q 836 408 804 462 q 867 279 867 354 q 827 136 867 199 q 710 36 788 73 q 519 0 633 0 l 88 0 m 301 175 l 475 175 q 606 209 565 175 q 647 300 647 244 q 602 403 647 363 q 480 443 557 443 l 301 443 l 301 175 m 301 587 l 460 587 q 569 622 525 587 q 612 716 612 656 q 573 804 612 770 q 464 837 535 837 l 301 837 l 301 587 z "},"C":{"ha":1045,"x_min":70,"x_max":979,"o":"m 979 656 l 763 656 q 692 787 751 740 q 545 835 633 835 q 357 749 428 835 q 287 505 287 663 q 358 259 287 343 q 544 175 429 175 q 689 220 629 175 q 763 345 748 264 l 979 344 q 913 170 968 252 q 764 37 858 88 q 541 -14 670 -14 q 299 47 405 -14 q 131 224 193 109 q 70 505 70 340 q 132 786 70 670 q 301 963 194 902 q 541 1024 407 1024 q 751 981 657 1024 q 905 855 845 938 q 979 656 965 773 z "},"Ƈ":{"ha":1163,"x_min":70,"x_max":1175,"o":"m 979 656 l 763 656 q 692 787 751 740 q 545 835 633 835 q 357 749 428 835 q 287 505 287 663 q 358 259 287 343 q 544 175 429 175 q 689 220 629 175 q 763 345 748 264 l 979 344 q 913 170 968 252 q 764 37 858 88 q 541 -14 670 -14 q 299 47 405 -14 q 131 224 193 109 q 70 505 70 340 q 132 786 70 670 q 301 963 194 902 q 541 1024 407 1024 q 829 935 712 1024 q 935 1014 870 986 q 1075 1041 1000 1041 q 1125 1040 1101 1041 q 1175 1035 1149 1039 l 1175 865 q 1145 867 1163 866 q 1116 868 1127 868 q 1053 856 1084 868 q 1000 817 1021 844 q 979 741 979 789 l 979 656 z "},"Ç":{"ha":1045,"x_min":70,"x_max":979,"o":"m 979 656 l 763 656 q 692 787 751 740 q 545 835 633 835 q 357 749 428 835 q 287 505 287 663 q 358 259 287 343 q 544 175 429 175 q 689 220 629 175 q 763 345 748 264 l 979 344 q 913 170 968 252 q 764 37 858 88 q 541 -14 670 -14 q 299 47 405 -14 q 131 224 193 109 q 70 505 70 340 q 132 786 70 670 q 301 963 194 902 q 541 1024 407 1024 q 751 981 657 1024 q 905 855 845 938 q 979 656 965 773 m 488 3 l 584 3 l 577 -40 q 660 -78 627 -48 q 692 -160 692 -108 q 624 -277 693 -233 q 432 -321 556 -321 l 430 -227 q 528 -212 492 -227 q 564 -165 563 -197 q 541 -119 565 -135 q 466 -97 517 -104 l 488 3 z "},"Ć":{"ha":1045,"x_min":70,"x_max":979,"o":"m 979 656 l 763 656 q 692 787 751 740 q 545 835 633 835 q 357 749 428 835 q 287 505 287 663 q 358 259 287 343 q 544 175 429 175 q 689 220 629 175 q 763 345 748 264 l 979 344 q 913 170 968 252 q 764 37 858 88 q 541 -14 670 -14 q 299 47 405 -14 q 131 224 193 109 q 70 505 70 340 q 132 786 70 670 q 301 963 194 902 q 541 1024 407 1024 q 751 981 657 1024 q 905 855 845 938 q 979 656 965 773 m 465 1108 l 570 1332 l 764 1332 l 614 1108 l 465 1108 z "},"Ĉ":{"ha":1045,"x_min":70,"x_max":979,"o":"m 979 656 l 763 656 q 692 787 751 740 q 545 835 633 835 q 357 749 428 835 q 287 505 287 663 q 358 259 287 343 q 544 175 429 175 q 689 220 629 175 q 763 345 748 264 l 979 344 q 913 170 968 252 q 764 37 858 88 q 541 -14 670 -14 q 299 47 405 -14 q 131 224 193 109 q 70 505 70 340 q 132 786 70 670 q 301 963 194 902 q 541 1024 407 1024 q 751 981 657 1024 q 905 855 845 938 q 979 656 965 773 z "},"Ċ":{"ha":1045,"x_min":70,"x_max":979,"o":"m 979 656 l 763 656 q 692 787 751 740 q 545 835 633 835 q 357 749 428 835 q 287 505 287 663 q 358 259 287 343 q 544 175 429 175 q 689 220 629 175 q 763 345 748 264 l 979 344 q 913 170 968 252 q 764 37 858 88 q 541 -14 670 -14 q 299 47 405 -14 q 131 224 193 109 q 70 505 70 340 q 132 786 70 670 q 301 963 194 902 q 541 1024 407 1024 q 751 981 657 1024 q 905 855 845 938 q 979 656 965 773 m 541 1108 q 461 1139 494 1108 q 427 1214 427 1170 q 461 1289 427 1258 q 541 1320 494 1320 q 621 1289 587 1320 q 654 1214 654 1258 q 621 1139 654 1170 q 541 1108 587 1108 z "},"Č":{"ha":1045,"x_min":70,"x_max":979,"o":"m 979 656 l 763 656 q 692 787 751 740 q 545 835 633 835 q 357 749 428 835 q 287 505 287 663 q 358 259 287 343 q 544 175 429 175 q 689 220 629 175 q 763 345 748 264 l 979 344 q 913 170 968 252 q 764 37 858 88 q 541 -14 670 -14 q 299 47 405 -14 q 131 224 193 109 q 70 505 70 340 q 132 786 70 670 q 301 963 194 902 q 541 1024 407 1024 q 751 981 657 1024 q 905 855 845 938 q 979 656 965 773 m 441 1325 l 541 1204 l 640 1325 l 819 1325 l 819 1318 l 618 1101 l 462 1101 l 262 1318 l 262 1325 l 441 1325 z "},"Ḉ":{"ha":1045,"x_min":70,"x_max":979,"o":"m 979 656 l 763 656 q 692 787 751 740 q 545 835 633 835 q 357 749 428 835 q 287 505 287 663 q 358 259 287 343 q 544 175 429 175 q 689 220 629 175 q 763 345 748 264 l 979 344 q 913 170 968 252 q 764 37 858 88 q 541 -14 670 -14 q 299 47 405 -14 q 131 224 193 109 q 70 505 70 340 q 132 786 70 670 q 301 963 194 902 q 541 1024 407 1024 q 751 981 657 1024 q 905 855 845 938 q 979 656 965 773 m 488 3 l 584 3 l 577 -40 q 660 -78 627 -48 q 692 -160 692 -108 q 624 -277 693 -233 q 432 -321 556 -321 l 430 -227 q 528 -212 492 -227 q 564 -165 563 -197 q 541 -119 565 -135 q 466 -97 517 -104 l 488 3 m 465 1108 l 570 1332 l 764 1332 l 614 1108 l 465 1108 z "},"Ȼ":{"ha":1045,"x_min":70,"x_max":979,"o":"m 256 -128 l 311 41 q 135 218 201 100 q 70 505 70 335 q 132 786 70 670 q 301 963 194 902 q 541 1024 407 1024 q 627 1017 585 1024 l 666 1138 l 795 1138 l 745 984 q 903 858 840 942 q 979 656 965 775 l 763 656 q 683 794 750 746 l 485 181 q 544 175 513 175 q 689 220 629 175 q 763 345 748 264 l 979 344 q 913 170 968 252 q 764 37 858 88 q 541 -14 670 -14 q 426 -1 481 -14 l 385 -128 l 256 -128 m 375 240 l 567 834 q 545 835 557 835 q 357 749 428 835 q 287 505 287 663 q 310 348 287 414 q 375 240 333 281 z "},"Ɔ":{"ha":1045,"x_min":66,"x_max":975,"o":"m 66 656 l 282 656 q 353 787 294 740 q 499 835 411 835 q 687 749 617 835 q 758 505 758 663 q 687 259 758 343 q 501 175 616 175 q 356 220 415 175 q 282 345 297 264 l 66 344 q 132 170 77 252 q 280 37 186 88 q 504 -14 374 -14 q 745 47 639 -14 q 913 224 852 109 q 975 505 975 340 q 912 786 975 670 q 744 963 850 902 q 504 1024 637 1024 q 293 981 387 1024 q 139 855 199 938 q 66 656 79 773 z "},"Ϲ":{"ha":1045,"x_min":70,"x_max":979,"o":"m 979 656 l 763 656 q 692 787 751 740 q 545 835 633 835 q 357 749 428 835 q 287 505 287 663 q 358 259 287 343 q 544 175 429 175 q 689 220 629 175 q 763 345 748 264 l 979 344 q 913 170 968 252 q 764 37 858 88 q 541 -14 670 -14 q 299 47 405 -14 q 131 224 193 109 q 70 505 70 340 q 132 786 70 670 q 301 963 194 902 q 541 1024 407 1024 q 751 981 657 1024 q 905 855 845 938 q 979 656 965 773 z "},"D":{"ha":1010,"x_min":88,"x_max":940,"o":"m 446 0 l 88 0 l 88 1010 l 449 1010 q 711 950 601 1010 q 881 776 822 889 q 940 506 940 663 q 881 235 940 348 q 710 61 821 121 q 446 0 600 0 m 301 183 l 437 183 q 653 260 580 183 q 727 506 727 337 q 653 751 727 674 q 437 827 580 827 l 301 827 l 301 183 z "},"Ɗ":{"ha":1300,"x_min":49,"x_max":1230,"o":"m 49 651 l 49 750 q 126 940 49 869 q 338 1010 204 1010 l 739 1010 q 1001 950 891 1010 q 1171 776 1112 889 q 1230 506 1230 663 q 1171 235 1230 348 q 1000 61 1111 121 q 736 0 890 0 l 378 0 l 378 827 l 339 827 q 258 791 278 827 q 240 709 239 755 l 240 651 l 49 651 m 591 827 l 591 183 l 727 183 q 943 260 870 183 q 1017 506 1017 337 q 943 751 1017 674 q 727 827 870 827 l 591 827 z "},"Ď":{"ha":1010,"x_min":88,"x_max":940,"o":"m 446 0 l 88 0 l 88 1010 l 449 1010 q 711 950 601 1010 q 881 776 822 889 q 940 506 940 663 q 881 235 940 348 q 710 61 821 121 q 446 0 600 0 m 301 183 l 437 183 q 653 260 580 183 q 727 506 727 337 q 653 751 727 674 q 437 827 580 827 l 301 827 l 301 183 m 310 1325 l 409 1204 l 508 1325 l 687 1325 l 687 1318 l 487 1101 l 330 1101 l 131 1318 l 131 1325 l 310 1325 z "},"Ḋ":{"ha":1010,"x_min":88,"x_max":940,"o":"m 446 0 l 88 0 l 88 1010 l 449 1010 q 711 950 601 1010 q 881 776 822 889 q 940 506 940 663 q 881 235 940 348 q 710 61 821 121 q 446 0 600 0 m 301 183 l 437 183 q 653 260 580 183 q 727 506 727 337 q 653 751 727 674 q 437 827 580 827 l 301 827 l 301 183 m 408 1108 q 328 1139 362 1108 q 295 1214 295 1170 q 328 1289 295 1258 q 408 1320 362 1320 q 489 1289 455 1320 q 522 1214 522 1258 q 489 1139 522 1170 q 408 1108 455 1108 z "},"Ḍ":{"ha":1010,"x_min":88,"x_max":940,"o":"m 446 0 l 88 0 l 88 1010 l 449 1010 q 711 950 601 1010 q 881 776 822 889 q 940 506 940 663 q 881 235 940 348 q 710 61 821 121 q 446 0 600 0 m 301 183 l 437 183 q 653 260 580 183 q 727 506 727 337 q 653 751 727 674 q 437 827 580 827 l 301 827 l 301 183 z "},"Ḏ":{"ha":1010,"x_min":88,"x_max":940,"o":"m 446 0 l 88 0 l 88 1010 l 449 1010 q 711 950 601 1010 q 881 776 822 889 q 940 506 940 663 q 881 235 940 348 q 710 61 821 121 q 446 0 600 0 m 301 183 l 437 183 q 653 260 580 183 q 727 506 727 337 q 653 751 727 674 q 437 827 580 827 l 301 827 l 301 183 z "},"Ḑ":{"ha":1010,"x_min":88,"x_max":940,"o":"m 446 0 l 88 0 l 88 1010 l 449 1010 q 711 950 601 1010 q 881 776 822 889 q 940 506 940 663 q 881 235 940 348 q 710 61 821 121 q 446 0 600 0 m 301 183 l 437 183 q 653 260 580 183 q 727 506 727 337 q 653 751 727 674 q 437 827 580 827 l 301 827 l 301 183 m 287 -324 l 348 -80 l 542 -80 l 434 -324 l 287 -324 z "},"Ḓ":{"ha":1010,"x_min":88,"x_max":940,"o":"m 446 0 l 88 0 l 88 1010 l 449 1010 q 711 950 601 1010 q 881 776 822 889 q 940 506 940 663 q 881 235 940 348 q 710 61 821 121 q 446 0 600 0 m 301 183 l 437 183 q 653 260 580 183 q 727 506 727 337 q 653 751 727 674 q 437 827 580 827 l 301 827 l 301 183 z "},"Ɖ":{"ha":1010,"x_min":-53,"x_max":940,"o":"m 446 0 l 88 0 l 88 1010 l 449 1010 q 711 950 601 1010 q 881 776 822 889 q 940 506 940 663 q 881 235 940 348 q 710 61 821 121 q 446 0 600 0 m 301 183 l 437 183 q 653 260 580 183 q 727 506 727 337 q 653 751 727 674 q 437 827 580 827 l 301 827 l 301 183 m -53 471 l -53 594 l 439 594 l 439 471 l -53 471 z "},"ǲ":{"ha":1804,"x_min":88,"x_max":1727,"o":"m 446 0 l 88 0 l 88 1010 l 449 1010 q 711 950 601 1010 q 881 776 822 889 q 940 506 940 663 q 881 235 940 348 q 710 61 821 121 q 446 0 600 0 m 301 183 l 437 183 q 653 260 580 183 q 727 506 727 337 q 653 751 727 674 q 437 827 580 827 l 301 827 l 301 183 m 1090 0 l 1090 125 l 1461 584 l 1461 590 l 1103 590 l 1103 758 l 1714 758 l 1714 621 l 1366 173 l 1366 168 l 1727 168 l 1727 0 l 1090 0 z "},"ǅ":{"ha":1804,"x_min":88,"x_max":1727,"o":"m 446 0 l 88 0 l 88 1010 l 449 1010 q 711 950 601 1010 q 881 776 822 889 q 940 506 940 663 q 881 235 940 348 q 710 61 821 121 q 446 0 600 0 m 301 183 l 437 183 q 653 260 580 183 q 727 506 727 337 q 653 751 727 674 q 437 827 580 827 l 301 827 l 301 183 z "},"E":{"ha":851,"x_min":88,"x_max":770,"o":"m 88 0 l 88 1010 l 768 1010 l 768 834 l 301 834 l 301 593 l 733 593 l 733 417 l 301 417 l 301 176 l 770 176 l 770 0 l 88 0 z "},"È":{"ha":851,"x_min":88,"x_max":770,"o":"m 88 0 l 88 1010 l 768 1010 l 768 834 l 301 834 l 301 593 l 733 593 l 733 417 l 301 417 l 301 176 l 770 176 l 770 0 l 88 0 m 357 1108 l 207 1332 l 400 1332 l 506 1108 l 357 1108 z "},"É":{"ha":851,"x_min":88,"x_max":770,"o":"m 88 0 l 88 1010 l 768 1010 l 768 834 l 301 834 l 301 593 l 733 593 l 733 417 l 301 417 l 301 176 l 770 176 l 770 0 l 88 0 m 354 1108 l 459 1332 l 653 1332 l 503 1108 l 354 1108 z "},"Ê":{"ha":851,"x_min":88,"x_max":770,"o":"m 88 0 l 88 1010 l 768 1010 l 768 834 l 301 834 l 301 593 l 733 593 l 733 417 l 301 417 l 301 176 l 770 176 l 770 0 l 88 0 z "},"Ë":{"ha":851,"x_min":88,"x_max":770,"o":"m 88 0 l 88 1010 l 768 1010 l 768 834 l 301 834 l 301 593 l 733 593 l 733 417 l 301 417 l 301 176 l 770 176 l 770 0 l 88 0 z "},"Ē":{"ha":851,"x_min":88,"x_max":770,"o":"m 88 0 l 88 1010 l 768 1010 l 768 834 l 301 834 l 301 593 l 733 593 l 733 417 l 301 417 l 301 176 l 770 176 l 770 0 l 88 0 m 670 1263 l 670 1149 l 189 1149 l 189 1263 l 670 1263 z "},"Ĕ":{"ha":851,"x_min":88,"x_max":770,"o":"m 88 0 l 88 1010 l 768 1010 l 768 834 l 301 834 l 301 593 l 733 593 l 733 417 l 301 417 l 301 176 l 770 176 l 770 0 l 88 0 m 527 1274 l 674 1274 q 607 1130 673 1185 q 430 1075 542 1075 q 252 1130 318 1075 q 186 1274 186 1185 l 331 1274 q 353 1213 331 1240 q 430 1186 376 1186 q 505 1213 482 1186 q 527 1274 527 1240 z "},"Ė":{"ha":851,"x_min":88,"x_max":770,"o":"m 88 0 l 88 1010 l 768 1010 l 768 834 l 301 834 l 301 593 l 733 593 l 733 417 l 301 417 l 301 176 l 770 176 l 770 0 l 88 0 m 430 1108 q 350 1139 383 1108 q 316 1214 316 1170 q 350 1289 316 1258 q 430 1320 383 1320 q 510 1289 476 1320 q 544 1214 544 1258 q 510 1139 544 1170 q 430 1108 476 1108 z "},"Ę":{"ha":851,"x_min":88,"x_max":787,"o":"m 88 0 l 88 1010 l 768 1010 l 768 834 l 301 834 l 301 593 l 733 593 l 733 417 l 301 417 l 301 176 l 770 176 l 770 0 l 88 0 m 675 -283 q 565 -249 609 -283 q 509 -153 521 -216 q 524 -33 498 -93 q 615 57 549 28 l 771 0 q 695 -47 725 -22 q 666 -108 665 -72 q 714 -157 665 -157 q 743 -153 730 -157 q 765 -145 756 -148 l 787 -254 q 741 -273 769 -264 q 675 -283 713 -283 z "},"Ě":{"ha":851,"x_min":88,"x_max":770,"o":"m 88 0 l 88 1010 l 768 1010 l 768 834 l 301 834 l 301 593 l 733 593 l 733 417 l 301 417 l 301 176 l 770 176 l 770 0 l 88 0 m 330 1325 l 430 1204 l 529 1325 l 708 1325 l 708 1318 l 508 1101 l 351 1101 l 151 1318 l 151 1325 l 330 1325 z "},"Ȅ":{"ha":851,"x_min":88,"x_max":770,"o":"m 88 0 l 88 1010 l 768 1010 l 768 834 l 301 834 l 301 593 l 733 593 l 733 417 l 301 417 l 301 176 l 770 176 l 770 0 l 88 0 m 348 1108 l 175 1199 l 144 1332 l 332 1240 l 348 1108 m 589 1108 l 436 1199 l 437 1332 l 599 1240 l 589 1108 z "},"Ȇ":{"ha":851,"x_min":88,"x_max":770,"o":"m 88 0 l 88 1010 l 768 1010 l 768 834 l 301 834 l 301 593 l 733 593 l 733 417 l 301 417 l 301 176 l 770 176 l 770 0 l 88 0 m 184 1132 q 250 1279 184 1222 q 429 1337 316 1337 q 607 1279 541 1337 q 673 1132 673 1222 l 527 1132 q 504 1193 526 1166 q 429 1220 481 1220 q 353 1193 375 1220 q 331 1132 330 1166 l 184 1132 z "},"Ȩ":{"ha":851,"x_min":88,"x_max":770,"o":"m 88 0 l 88 1010 l 768 1010 l 768 834 l 301 834 l 301 593 l 733 593 l 733 417 l 301 417 l 301 176 l 770 176 l 770 0 l 88 0 m 379 4 l 475 4 l 468 -39 q 551 -77 518 -47 q 583 -159 583 -107 q 515 -276 584 -232 q 323 -320 447 -320 l 321 -226 q 419 -211 383 -226 q 455 -164 454 -196 q 432 -118 456 -134 q 357 -96 408 -103 l 379 4 z "},"Ḕ":{"ha":851,"x_min":88,"x_max":770,"o":"m 88 0 l 88 1010 l 768 1010 l 768 834 l 301 834 l 301 593 l 733 593 l 733 417 l 301 417 l 301 176 l 770 176 l 770 0 l 88 0 m 670 1240 l 670 1126 l 189 1126 l 189 1240 l 670 1240 m 360 1323 l 190 1497 l 380 1497 l 518 1323 l 360 1323 z "},"Ḗ":{"ha":851,"x_min":88,"x_max":770,"o":"m 88 0 l 88 1010 l 768 1010 l 768 834 l 301 834 l 301 593 l 733 593 l 733 417 l 301 417 l 301 176 l 770 176 l 770 0 l 88 0 m 670 1240 l 670 1126 l 189 1126 l 189 1240 l 670 1240 m 342 1323 l 479 1497 l 669 1497 l 500 1323 l 342 1323 z "},"Ḙ":{"ha":851,"x_min":88,"x_max":770,"o":"m 88 0 l 88 1010 l 768 1010 l 768 834 l 301 834 l 301 593 l 733 593 l 733 417 l 301 417 l 301 176 l 770 176 l 770 0 l 88 0 z "},"Ḛ":{"ha":851,"x_min":88,"x_max":770,"o":"m 88 0 l 88 1010 l 768 1010 l 768 834 l 301 834 l 301 593 l 733 593 l 733 417 l 301 417 l 301 176 l 770 176 l 770 0 l 88 0 z "},"Ḝ":{"ha":851,"x_min":88,"x_max":770,"o":"m 88 0 l 88 1010 l 768 1010 l 768 834 l 301 834 l 301 593 l 733 593 l 733 417 l 301 417 l 301 176 l 770 176 l 770 0 l 88 0 m 379 4 l 475 4 l 468 -39 q 551 -77 518 -47 q 583 -159 583 -107 q 515 -276 584 -232 q 323 -320 447 -320 l 321 -226 q 419 -211 383 -226 q 455 -164 454 -196 q 432 -118 456 -134 q 357 -96 408 -103 l 379 4 m 527 1274 l 674 1274 q 607 1130 673 1185 q 430 1075 542 1075 q 252 1130 318 1075 q 186 1274 186 1185 l 331 1274 q 353 1213 331 1240 q 430 1186 376 1186 q 505 1213 482 1186 q 527 1274 527 1240 z "},"Ẹ":{"ha":851,"x_min":88,"x_max":770,"o":"m 88 0 l 88 1010 l 768 1010 l 768 834 l 301 834 l 301 593 l 733 593 l 733 417 l 301 417 l 301 176 l 770 176 l 770 0 l 88 0 z "},"Ẻ":{"ha":851,"x_min":88,"x_max":770,"o":"m 88 0 l 88 1010 l 768 1010 l 768 834 l 301 834 l 301 593 l 733 593 l 733 417 l 301 417 l 301 176 l 770 176 l 770 0 l 88 0 m 507 1119 l 351 1119 l 340 1207 q 415 1221 393 1210 q 436 1252 437 1233 q 409 1288 437 1279 q 338 1298 380 1298 l 343 1393 q 544 1357 475 1393 q 612 1259 613 1322 q 580 1191 613 1214 q 507 1162 546 1168 l 507 1119 z "},"Ẽ":{"ha":851,"x_min":88,"x_max":770,"o":"m 88 0 l 88 1010 l 768 1010 l 768 834 l 301 834 l 301 593 l 733 593 l 733 417 l 301 417 l 301 176 l 770 176 l 770 0 l 88 0 m 289 1103 l 172 1105 q 218 1249 172 1199 q 332 1300 265 1300 q 397 1286 370 1300 q 446 1257 424 1272 q 479 1235 463 1244 q 514 1226 495 1226 q 557 1248 543 1227 q 573 1303 572 1269 l 688 1299 q 641 1155 687 1205 q 527 1104 594 1105 q 460 1118 486 1104 q 413 1148 434 1132 q 381 1169 397 1160 q 345 1178 365 1178 q 304 1158 320 1178 q 289 1103 289 1138 z "},"Ế":{"ha":851,"x_min":88,"x_max":911,"o":"m 88 0 l 88 1010 l 768 1010 l 768 834 l 301 834 l 301 593 l 733 593 l 733 417 l 301 417 l 301 176 l 770 176 l 770 0 l 88 0 m 173 1093 l 372 1246 l 485 1246 l 685 1093 l 534 1093 l 430 1176 l 324 1093 l 173 1093 m 633 1180 l 749 1365 l 911 1365 l 752 1180 l 633 1180 z "},"Ề":{"ha":851,"x_min":-52,"x_max":770,"o":"m 88 0 l 88 1010 l 768 1010 l 768 834 l 301 834 l 301 593 l 733 593 l 733 417 l 301 417 l 301 176 l 770 176 l 770 0 l 88 0 m 485 1243 l 686 1090 l 534 1090 l 430 1173 l 325 1090 l 174 1090 l 372 1243 l 485 1243 m 109 1361 l 225 1177 l 108 1177 l -52 1361 l 109 1361 z "},"Ể":{"ha":851,"x_min":88,"x_max":816,"o":"m 88 0 l 88 1010 l 768 1010 l 768 834 l 301 834 l 301 593 l 733 593 l 733 417 l 301 417 l 301 176 l 770 176 l 770 0 l 88 0 m 488 1241 l 683 1088 l 538 1088 l 429 1174 l 318 1088 l 173 1088 l 367 1241 l 488 1241 m 727 1174 l 618 1174 l 609 1248 q 690 1285 690 1252 q 666 1315 690 1308 q 606 1323 642 1323 l 611 1403 q 763 1373 711 1403 q 816 1291 816 1344 q 788 1234 816 1254 q 727 1209 761 1215 l 727 1174 z "},"Ễ":{"ha":851,"x_min":88,"x_max":770,"o":"m 88 0 l 88 1010 l 768 1010 l 768 834 l 301 834 l 301 593 l 733 593 l 733 417 l 301 417 l 301 176 l 770 176 l 770 0 l 88 0 m 486 1237 l 685 1086 l 540 1086 l 429 1168 l 320 1086 l 173 1086 l 373 1237 l 486 1237 m 537 1405 l 610 1380 q 584 1306 610 1340 q 516 1273 559 1273 q 461 1284 485 1273 q 415 1306 437 1295 q 368 1316 393 1316 q 342 1302 352 1316 q 332 1270 332 1288 l 261 1289 q 286 1361 261 1327 q 354 1394 311 1394 q 404 1384 379 1394 q 454 1363 429 1374 q 502 1352 478 1352 q 527 1369 517 1352 q 537 1405 537 1386 z "},"Ệ":{"ha":851,"x_min":88,"x_max":770,"o":"m 88 0 l 88 1010 l 768 1010 l 768 834 l 301 834 l 301 593 l 733 593 l 733 417 l 301 417 l 301 176 l 770 176 l 770 0 l 88 0 z "},"Ɇ":{"ha":851,"x_min":88,"x_max":770,"o":"m 696 1138 l 659 1010 l 768 1010 l 768 834 l 609 834 l 540 593 l 733 593 l 733 417 l 489 417 l 419 176 l 770 176 l 770 0 l 368 0 l 331 -128 l 219 -128 l 256 0 l 88 0 l 88 1010 l 547 1010 l 584 1138 l 696 1138 m 496 834 l 301 834 l 301 593 l 427 593 l 496 834 m 376 417 l 301 417 l 301 176 l 307 176 l 376 417 z "},"Ǝ":{"ha":851,"x_min":62,"x_max":745,"o":"m 745 1010 l 745 0 l 64 0 l 64 176 l 531 176 l 531 417 l 99 417 l 99 593 l 531 593 l 531 834 l 62 834 l 62 1010 l 745 1010 z "},"Ε":{"ha":851,"x_min":88,"x_max":770,"o":"m 88 0 l 88 1010 l 768 1010 l 768 834 l 301 834 l 301 593 l 733 593 l 733 417 l 301 417 l 301 176 l 770 176 l 770 0 l 88 0 z "},"Έ":{"ha":1090,"x_min":66,"x_max":1010,"o":"m 327 0 l 327 1010 l 1008 1010 l 1008 834 l 541 834 l 541 593 l 973 593 l 973 417 l 541 417 l 541 176 l 1010 176 l 1010 0 l 327 0 z "},"Ἐ":{"ha":1053,"x_min":38,"x_max":972,"o":"m 290 0 l 290 1010 l 970 1010 l 970 834 l 503 834 l 503 593 l 935 593 l 935 417 l 503 417 l 503 176 l 972 176 l 972 0 l 290 0 z "},"Ἑ":{"ha":1054,"x_min":64,"x_max":974,"o":"m 291 0 l 291 1010 l 972 1010 l 972 834 l 505 834 l 505 593 l 937 593 l 937 417 l 505 417 l 505 176 l 974 176 l 974 0 l 291 0 z "},"Ἒ":{"ha":1320,"x_min":62,"x_max":1239,"o":"m 557 0 l 557 1010 l 1237 1010 l 1237 834 l 770 834 l 770 593 l 1202 593 l 1202 417 l 770 417 l 770 176 l 1239 176 l 1239 0 l 557 0 z "},"Ἓ":{"ha":1279,"x_min":60,"x_max":1199,"o":"m 516 0 l 516 1010 l 1197 1010 l 1197 834 l 730 834 l 730 593 l 1162 593 l 1162 417 l 730 417 l 730 176 l 1199 176 l 1199 0 l 516 0 z "},"Ἔ":{"ha":1293,"x_min":65,"x_max":1213,"o":"m 530 0 l 530 1010 l 1211 1010 l 1211 834 l 744 834 l 744 593 l 1176 593 l 1176 417 l 744 417 l 744 176 l 1213 176 l 1213 0 l 530 0 z "},"Ἕ":{"ha":1312,"x_min":64,"x_max":1232,"o":"m 549 0 l 549 1010 l 1230 1010 l 1230 834 l 763 834 l 763 593 l 1195 593 l 1195 417 l 763 417 l 763 176 l 1232 176 l 1232 0 l 549 0 z "},"Ὲ":{"ha":1109,"x_min":62,"x_max":1028,"o":"m 346 0 l 346 1010 l 1026 1010 l 1026 834 l 559 834 l 559 593 l 991 593 l 991 417 l 559 417 l 559 176 l 1028 176 l 1028 0 l 346 0 z "},"Έ":{"ha":1093,"x_min":73,"x_max":1013,"o":"m 330 0 l 330 1010 l 1011 1010 l 1011 834 l 544 834 l 544 593 l 976 593 l 976 417 l 544 417 l 544 176 l 1013 176 l 1013 0 l 330 0 z "},"Е":{"ha":851,"x_min":88,"x_max":770,"o":"m 88 0 l 88 1010 l 768 1010 l 768 834 l 301 834 l 301 593 l 733 593 l 733 417 l 301 417 l 301 176 l 770 176 l 770 0 l 88 0 z "},"Ѐ":{"ha":851,"x_min":88,"x_max":770,"o":"m 88 0 l 88 1010 l 768 1010 l 768 834 l 301 834 l 301 593 l 733 593 l 733 417 l 301 417 l 301 176 l 770 176 l 770 0 l 88 0 m 357 1108 l 207 1332 l 400 1332 l 506 1108 l 357 1108 z "},"Ё":{"ha":851,"x_min":88,"x_max":770,"o":"m 88 0 l 88 1010 l 768 1010 l 768 834 l 301 834 l 301 593 l 733 593 l 733 417 l 301 417 l 301 176 l 770 176 l 770 0 l 88 0 m 279 1114 q 206 1144 237 1114 q 176 1214 176 1173 q 206 1285 176 1256 q 279 1314 237 1314 q 352 1285 322 1314 q 382 1214 382 1256 q 352 1144 382 1173 q 279 1114 322 1114 m 581 1114 q 508 1144 539 1114 q 477 1214 477 1173 q 508 1285 477 1256 q 581 1314 539 1314 q 654 1285 624 1314 q 684 1214 684 1256 q 654 1144 684 1173 q 581 1114 624 1114 z "},"Ӗ":{"ha":851,"x_min":88,"x_max":770,"o":"m 88 0 l 88 1010 l 768 1010 l 768 834 l 301 834 l 301 593 l 733 593 l 733 417 l 301 417 l 301 176 l 770 176 l 770 0 l 88 0 m 527 1274 l 674 1274 q 607 1130 673 1185 q 430 1075 542 1075 q 252 1130 318 1075 q 186 1274 186 1185 l 331 1274 q 353 1213 331 1240 q 430 1186 376 1186 q 505 1213 482 1186 q 527 1274 527 1240 z "},"F":{"ha":812,"x_min":88,"x_max":757,"o":"m 88 0 l 88 1010 l 757 1010 l 757 834 l 301 834 l 301 593 l 712 593 l 712 417 l 301 417 l 301 0 l 88 0 z "},"Ƒ":{"ha":843,"x_min":-29,"x_max":787,"o":"m 119 0 l 118 0 l 118 1010 l 787 1010 l 787 834 l 332 834 l 332 593 l 743 593 l 743 417 l 332 417 l 332 0 l 332 0 l 332 -46 q 294 -195 332 -144 q 194 -265 256 -247 q 58 -284 131 -284 q 18 -283 43 -284 q -29 -279 -7 -283 l -29 -118 q -11 -120 -21 -120 q 8 -120 0 -120 q 14 -120 12 -120 q 87 -105 55 -120 q 119 -46 119 -90 l 119 0 z "},"Ḟ":{"ha":812,"x_min":88,"x_max":757,"o":"m 88 0 l 88 1010 l 757 1010 l 757 834 l 301 834 l 301 593 l 712 593 l 712 417 l 301 417 l 301 0 l 88 0 m 428 1108 q 348 1139 382 1108 q 315 1214 315 1170 q 348 1289 315 1258 q 428 1320 382 1320 q 509 1289 475 1320 q 542 1214 542 1258 q 509 1139 542 1170 q 428 1108 475 1108 z "},"Ⅎ":{"ha":812,"x_min":56,"x_max":725,"o":"m 725 1010 l 725 0 l 56 0 l 56 176 l 511 176 l 511 417 l 100 417 l 100 593 l 511 593 l 511 1010 l 725 1010 z "},"G":{"ha":1056,"x_min":70,"x_max":984,"o":"m 758 684 q 683 795 737 755 q 546 835 628 835 q 358 749 430 835 q 287 506 287 664 q 357 261 287 348 q 548 175 428 175 q 715 231 654 175 q 778 380 776 286 l 561 380 l 561 541 l 984 541 l 984 413 q 928 185 984 281 q 773 37 872 89 q 547 -14 675 -14 q 297 49 405 -14 q 130 228 190 112 q 70 504 70 344 q 133 784 70 668 q 302 962 195 901 q 543 1024 409 1024 q 750 981 657 1024 q 902 860 842 937 q 975 684 961 784 l 758 684 z "},"Ǥ":{"ha":1056,"x_min":70,"x_max":1031,"o":"m 1031 327 l 1031 251 l 958 251 q 804 55 913 125 q 547 -14 695 -14 q 297 49 405 -14 q 130 228 190 112 q 70 504 70 344 q 133 784 70 668 q 302 962 195 901 q 543 1024 409 1024 q 750 981 657 1024 q 902 860 842 937 q 975 684 961 784 l 758 684 q 683 795 737 755 q 546 835 628 835 q 358 749 430 835 q 287 506 287 664 q 357 261 287 348 q 548 175 428 175 q 734 251 673 175 l 561 251 l 561 327 l 771 327 q 778 380 778 352 l 561 380 l 561 541 l 984 541 l 984 413 q 977 327 984 368 l 1031 327 z "},"Ɠ":{"ha":1159,"x_min":70,"x_max":1163,"o":"m 975 684 l 756 684 l 756 689 q 681 796 735 757 q 546 835 627 835 q 358 749 430 835 q 287 506 287 664 q 357 261 287 348 q 548 175 428 175 q 715 231 654 175 q 778 380 776 286 l 561 380 l 561 541 l 984 541 l 984 413 q 928 185 984 281 q 773 37 872 89 q 547 -14 675 -14 q 297 49 405 -14 q 130 228 190 112 q 70 504 70 344 q 133 784 70 668 q 302 962 195 901 q 543 1024 409 1024 q 673 1008 611 1024 q 786 961 734 991 q 898 1072 823 1034 q 1064 1111 973 1111 q 1163 1099 1115 1111 l 1163 932 q 1134 935 1149 933 q 1104 937 1119 937 q 1013 918 1053 937 q 974 837 974 900 l 974 690 q 975 684 974 687 z "},"Ĝ":{"ha":1056,"x_min":70,"x_max":984,"o":"m 758 684 q 683 795 737 755 q 546 835 628 835 q 358 749 430 835 q 287 506 287 664 q 357 261 287 348 q 548 175 428 175 q 715 231 654 175 q 778 380 776 286 l 561 380 l 561 541 l 984 541 l 984 413 q 928 185 984 281 q 773 37 872 89 q 547 -14 675 -14 q 297 49 405 -14 q 130 228 190 112 q 70 504 70 344 q 133 784 70 668 q 302 962 195 901 q 543 1024 409 1024 q 750 981 657 1024 q 902 860 842 937 q 975 684 961 784 l 758 684 z "},"Ğ":{"ha":1056,"x_min":70,"x_max":984,"o":"m 758 684 q 683 795 737 755 q 546 835 628 835 q 358 749 430 835 q 287 506 287 664 q 357 261 287 348 q 548 175 428 175 q 715 231 654 175 q 778 380 776 286 l 561 380 l 561 541 l 984 541 l 984 413 q 928 185 984 281 q 773 37 872 89 q 547 -14 675 -14 q 297 49 405 -14 q 130 228 190 112 q 70 504 70 344 q 133 784 70 668 q 302 962 195 901 q 543 1024 409 1024 q 750 981 657 1024 q 902 860 842 937 q 975 684 961 784 l 758 684 m 636 1274 l 782 1274 q 716 1130 782 1185 q 538 1075 650 1075 q 360 1130 426 1075 q 294 1274 294 1185 l 440 1274 q 462 1213 439 1240 q 538 1186 484 1186 q 613 1213 591 1186 q 636 1274 636 1240 z "},"Ġ":{"ha":1056,"x_min":70,"x_max":984,"o":"m 758 684 q 683 795 737 755 q 546 835 628 835 q 358 749 430 835 q 287 506 287 664 q 357 261 287 348 q 548 175 428 175 q 715 231 654 175 q 778 380 776 286 l 561 380 l 561 541 l 984 541 l 984 413 q 928 185 984 281 q 773 37 872 89 q 547 -14 675 -14 q 297 49 405 -14 q 130 228 190 112 q 70 504 70 344 q 133 784 70 668 q 302 962 195 901 q 543 1024 409 1024 q 750 981 657 1024 q 902 860 842 937 q 975 684 961 784 l 758 684 m 538 1108 q 458 1139 491 1108 q 424 1214 424 1170 q 458 1289 424 1258 q 538 1320 491 1320 q 618 1289 584 1320 q 652 1214 652 1258 q 618 1139 652 1170 q 538 1108 584 1108 z "},"Ģ":{"ha":1056,"x_min":70,"x_max":984,"o":"m 758 684 q 683 795 737 755 q 546 835 628 835 q 358 749 430 835 q 287 506 287 664 q 357 261 287 348 q 548 175 428 175 q 715 231 654 175 q 778 380 776 286 l 561 380 l 561 541 l 984 541 l 984 413 q 928 185 984 281 q 773 37 872 89 q 547 -14 675 -14 q 297 49 405 -14 q 130 228 190 112 q 70 504 70 344 q 133 784 70 668 q 302 962 195 901 q 543 1024 409 1024 q 750 981 657 1024 q 902 860 842 937 q 975 684 961 784 l 758 684 m 379 -321 l 440 -77 l 634 -77 l 526 -321 l 379 -321 z "},"Ǧ":{"ha":1056,"x_min":70,"x_max":984,"o":"m 758 684 q 683 795 737 755 q 546 835 628 835 q 358 749 430 835 q 287 506 287 664 q 357 261 287 348 q 548 175 428 175 q 715 231 654 175 q 778 380 776 286 l 561 380 l 561 541 l 984 541 l 984 413 q 928 185 984 281 q 773 37 872 89 q 547 -14 675 -14 q 297 49 405 -14 q 130 228 190 112 q 70 504 70 344 q 133 784 70 668 q 302 962 195 901 q 543 1024 409 1024 q 750 981 657 1024 q 902 860 842 937 q 975 684 961 784 l 758 684 m 439 1325 l 538 1204 l 637 1325 l 816 1325 l 816 1318 l 616 1101 l 460 1101 l 260 1318 l 260 1325 l 439 1325 z "},"Ǵ":{"ha":1056,"x_min":70,"x_max":984,"o":"m 758 684 q 683 795 737 755 q 546 835 628 835 q 358 749 430 835 q 287 506 287 664 q 357 261 287 348 q 548 175 428 175 q 715 231 654 175 q 778 380 776 286 l 561 380 l 561 541 l 984 541 l 984 413 q 928 185 984 281 q 773 37 872 89 q 547 -14 675 -14 q 297 49 405 -14 q 130 228 190 112 q 70 504 70 344 q 133 784 70 668 q 302 962 195 901 q 543 1024 409 1024 q 750 981 657 1024 q 902 860 842 937 q 975 684 961 784 l 758 684 m 462 1108 l 567 1332 l 761 1332 l 611 1108 l 462 1108 z "},"Ḡ":{"ha":1056,"x_min":70,"x_max":984,"o":"m 758 684 q 683 795 737 755 q 546 835 628 835 q 358 749 430 835 q 287 506 287 664 q 357 261 287 348 q 548 175 428 175 q 715 231 654 175 q 778 380 776 286 l 561 380 l 561 541 l 984 541 l 984 413 q 928 185 984 281 q 773 37 872 89 q 547 -14 675 -14 q 297 49 405 -14 q 130 228 190 112 q 70 504 70 344 q 133 784 70 668 q 302 962 195 901 q 543 1024 409 1024 q 750 981 657 1024 q 902 860 842 937 q 975 684 961 784 l 758 684 m 778 1263 l 778 1149 l 297 1149 l 297 1263 l 778 1263 z "},"":{"ha":1065,"x_min":70,"x_max":993,"o":"m 547 -14 q 298 49 405 -14 q 130 228 190 112 q 70 504 70 344 q 134 784 70 668 q 306 962 197 901 q 547 1024 414 1024 q 755 981 661 1024 q 910 861 849 938 q 984 684 971 784 l 768 684 q 691 795 749 756 q 550 835 633 835 q 361 749 435 835 q 287 506 287 664 q 358 261 287 348 q 548 175 429 175 q 718 232 656 175 q 782 380 779 288 l 561 380 l 561 541 l 993 541 l 993 0 l 847 0 l 835 115 l 829 115 q 709 20 778 54 q 547 -14 640 -14 z "},"":{"ha":1066,"x_min":70,"x_max":1041,"o":"m 1041 327 l 1041 251 l 993 251 l 993 0 l 847 0 l 835 115 l 829 115 q 709 20 778 54 q 547 -14 640 -14 q 298 49 405 -14 q 130 228 190 112 q 70 504 70 344 q 134 784 70 668 q 306 962 197 901 q 547 1024 414 1024 q 755 981 661 1024 q 910 861 849 938 q 984 684 971 784 l 768 684 q 691 795 749 756 q 550 835 633 835 q 361 749 435 835 q 287 506 287 664 q 358 261 287 348 q 548 175 429 175 q 659 195 611 175 q 736 251 706 215 l 561 251 l 561 327 l 775 327 q 782 380 781 352 l 561 380 l 561 541 l 993 541 l 993 327 l 1041 327 z "},"":{"ha":1159,"x_min":70,"x_max":1174,"o":"m 984 684 l 766 684 l 766 690 q 688 797 745 759 q 550 835 631 835 q 361 749 435 835 q 287 506 287 664 q 358 261 287 348 q 548 175 429 175 q 718 232 656 175 q 782 380 779 288 l 561 380 l 561 541 l 993 541 l 993 0 l 847 0 l 835 115 l 829 115 q 709 20 778 54 q 547 -14 640 -14 q 298 49 405 -14 q 130 228 190 112 q 70 504 70 344 q 134 784 70 668 q 306 962 197 901 q 547 1024 414 1024 q 680 1007 617 1024 q 796 960 743 990 q 908 1072 833 1033 q 1075 1111 983 1111 q 1174 1099 1125 1111 l 1174 932 q 1145 935 1160 933 q 1115 937 1130 937 q 1024 918 1063 937 q 984 837 984 900 l 984 684 z "},"":{"ha":1065,"x_min":70,"x_max":993,"o":"m 547 -14 q 298 49 405 -14 q 130 228 190 112 q 70 504 70 344 q 134 784 70 668 q 306 962 197 901 q 547 1024 414 1024 q 755 981 661 1024 q 910 861 849 938 q 984 684 971 784 l 768 684 q 691 795 749 756 q 550 835 633 835 q 361 749 435 835 q 287 506 287 664 q 358 261 287 348 q 548 175 429 175 q 718 232 656 175 q 782 380 779 288 l 561 380 l 561 541 l 993 541 l 993 0 l 847 0 l 835 115 l 829 115 q 709 20 778 54 q 547 -14 640 -14 z "},"":{"ha":1065,"x_min":70,"x_max":993,"o":"m 547 -14 q 298 49 405 -14 q 130 228 190 112 q 70 504 70 344 q 134 784 70 668 q 306 962 197 901 q 547 1024 414 1024 q 755 981 661 1024 q 910 861 849 938 q 984 684 971 784 l 768 684 q 691 795 749 756 q 550 835 633 835 q 361 749 435 835 q 287 506 287 664 q 358 261 287 348 q 548 175 429 175 q 718 232 656 175 q 782 380 779 288 l 561 380 l 561 541 l 993 541 l 993 0 l 847 0 l 835 115 l 829 115 q 709 20 778 54 q 547 -14 640 -14 m 636 1274 l 782 1274 q 716 1130 782 1185 q 538 1075 650 1075 q 360 1130 426 1075 q 294 1274 294 1185 l 440 1274 q 462 1213 439 1240 q 538 1186 484 1186 q 613 1213 591 1186 q 636 1274 636 1240 z "},"":{"ha":1065,"x_min":70,"x_max":993,"o":"m 547 -14 q 298 49 405 -14 q 130 228 190 112 q 70 504 70 344 q 134 784 70 668 q 306 962 197 901 q 547 1024 414 1024 q 755 981 661 1024 q 910 861 849 938 q 984 684 971 784 l 768 684 q 691 795 749 756 q 550 835 633 835 q 361 749 435 835 q 287 506 287 664 q 358 261 287 348 q 548 175 429 175 q 718 232 656 175 q 782 380 779 288 l 561 380 l 561 541 l 993 541 l 993 0 l 847 0 l 835 115 l 829 115 q 709 20 778 54 q 547 -14 640 -14 m 538 1108 q 458 1139 491 1108 q 424 1214 424 1170 q 458 1289 424 1258 q 538 1320 491 1320 q 618 1289 584 1320 q 652 1214 652 1258 q 618 1139 652 1170 q 538 1108 584 1108 z "},"":{"ha":1065,"x_min":70,"x_max":993,"o":"m 547 -14 q 298 49 405 -14 q 130 228 190 112 q 70 504 70 344 q 134 784 70 668 q 306 962 197 901 q 547 1024 414 1024 q 755 981 661 1024 q 910 861 849 938 q 984 684 971 784 l 768 684 q 691 795 749 756 q 550 835 633 835 q 361 749 435 835 q 287 506 287 664 q 358 261 287 348 q 548 175 429 175 q 718 232 656 175 q 782 380 779 288 l 561 380 l 561 541 l 993 541 l 993 0 l 847 0 l 835 115 l 829 115 q 709 20 778 54 q 547 -14 640 -14 m 379 -321 l 440 -77 l 634 -77 l 526 -321 l 379 -321 z "},"":{"ha":1065,"x_min":70,"x_max":993,"o":"m 547 -14 q 298 49 405 -14 q 130 228 190 112 q 70 504 70 344 q 134 784 70 668 q 306 962 197 901 q 547 1024 414 1024 q 755 981 661 1024 q 910 861 849 938 q 984 684 971 784 l 768 684 q 691 795 749 756 q 550 835 633 835 q 361 749 435 835 q 287 506 287 664 q 358 261 287 348 q 548 175 429 175 q 718 232 656 175 q 782 380 779 288 l 561 380 l 561 541 l 993 541 l 993 0 l 847 0 l 835 115 l 829 115 q 709 20 778 54 q 547 -14 640 -14 m 439 1325 l 538 1204 l 637 1325 l 816 1325 l 816 1318 l 616 1101 l 460 1101 l 260 1318 l 260 1325 l 439 1325 z "},"":{"ha":1065,"x_min":70,"x_max":993,"o":"m 547 -14 q 298 49 405 -14 q 130 228 190 112 q 70 504 70 344 q 134 784 70 668 q 306 962 197 901 q 547 1024 414 1024 q 755 981 661 1024 q 910 861 849 938 q 984 684 971 784 l 768 684 q 691 795 749 756 q 550 835 633 835 q 361 749 435 835 q 287 506 287 664 q 358 261 287 348 q 548 175 429 175 q 718 232 656 175 q 782 380 779 288 l 561 380 l 561 541 l 993 541 l 993 0 l 847 0 l 835 115 l 829 115 q 709 20 778 54 q 547 -14 640 -14 m 462 1108 l 567 1332 l 761 1332 l 611 1108 l 462 1108 z "},"":{"ha":1065,"x_min":70,"x_max":993,"o":"m 547 -14 q 298 49 405 -14 q 130 228 190 112 q 70 504 70 344 q 134 784 70 668 q 306 962 197 901 q 547 1024 414 1024 q 755 981 661 1024 q 910 861 849 938 q 984 684 971 784 l 768 684 q 691 795 749 756 q 550 835 633 835 q 361 749 435 835 q 287 506 287 664 q 358 261 287 348 q 548 175 429 175 q 718 232 656 175 q 782 380 779 288 l 561 380 l 561 541 l 993 541 l 993 0 l 847 0 l 835 115 l 829 115 q 709 20 778 54 q 547 -14 640 -14 m 778 1263 l 778 1149 l 297 1149 l 297 1263 l 778 1263 z "},"H":{"ha":1036,"x_min":88,"x_max":948,"o":"m 88 0 l 88 1010 l 301 1010 l 301 593 l 735 593 l 735 1010 l 948 1010 l 948 0 l 735 0 l 735 417 l 301 417 l 301 0 l 88 0 z "},"Ḩ":{"ha":1036,"x_min":88,"x_max":948,"o":"m 88 0 l 88 1010 l 301 1010 l 301 593 l 735 593 l 735 1010 l 948 1010 l 948 0 l 735 0 l 735 417 l 301 417 l 301 0 l 88 0 m 148 3 l 245 3 l 237 -40 q 320 -78 288 -48 q 353 -160 352 -108 q 285 -277 353 -233 q 92 -321 216 -321 l 90 -227 q 188 -212 152 -227 q 224 -165 223 -197 q 201 -119 225 -135 q 126 -97 177 -104 l 148 3 z "},"Ĥ":{"ha":1036,"x_min":88,"x_max":948,"o":"m 88 0 l 88 1010 l 301 1010 l 301 593 l 735 593 l 735 1010 l 948 1010 l 948 0 l 735 0 l 735 417 l 301 417 l 301 0 l 88 0 z "},"Ȟ":{"ha":1036,"x_min":88,"x_max":948,"o":"m 88 0 l 88 1010 l 301 1010 l 301 593 l 735 593 l 735 1010 l 948 1010 l 948 0 l 735 0 l 735 417 l 301 417 l 301 0 l 88 0 m 421 1326 l 520 1205 l 619 1326 l 799 1326 l 799 1319 l 598 1102 l 442 1102 l 242 1319 l 242 1326 l 421 1326 z "},"Ḣ":{"ha":1036,"x_min":88,"x_max":948,"o":"m 88 0 l 88 1010 l 301 1010 l 301 593 l 735 593 l 735 1010 l 948 1010 l 948 0 l 735 0 l 735 417 l 301 417 l 301 0 l 88 0 m 520 1109 q 440 1140 473 1109 q 406 1215 406 1171 q 440 1290 406 1259 q 520 1321 473 1321 q 600 1290 567 1321 q 634 1215 634 1259 q 600 1140 634 1171 q 520 1109 567 1109 z "},"Ḥ":{"ha":1036,"x_min":88,"x_max":948,"o":"m 88 0 l 88 1010 l 301 1010 l 301 593 l 735 593 l 735 1010 l 948 1010 l 948 0 l 735 0 l 735 417 l 301 417 l 301 0 l 88 0 z "},"Ḧ":{"ha":1036,"x_min":88,"x_max":948,"o":"m 88 0 l 88 1010 l 301 1010 l 301 593 l 735 593 l 735 1010 l 948 1010 l 948 0 l 735 0 l 735 417 l 301 417 l 301 0 l 88 0 z "},"Ḫ":{"ha":1036,"x_min":88,"x_max":948,"o":"m 88 0 l 88 1010 l 301 1010 l 301 593 l 735 593 l 735 1010 l 948 1010 l 948 0 l 735 0 l 735 417 l 301 417 l 301 0 l 88 0 m 618 -56 l 763 -56 q 697 -202 762 -144 q 518 -260 631 -260 q 341 -203 408 -260 q 275 -56 274 -146 l 420 -56 q 442 -118 420 -90 q 518 -145 465 -145 q 594 -117 571 -145 q 618 -56 617 -89 z "},"Ħ":{"ha":1126,"x_min":49,"x_max":1076,"o":"m 1076 835 l 1076 716 l 992 716 l 992 0 l 779 0 l 779 417 l 346 417 l 346 0 l 132 0 l 132 716 l 49 716 l 49 835 l 132 835 l 132 1010 l 346 1010 l 346 835 l 779 835 l 779 1010 l 992 1010 l 992 835 l 1076 835 m 779 716 l 346 716 l 346 593 l 779 593 l 779 716 z "},"Ӈ":{"ha":1036,"x_min":88,"x_max":948,"o":"m 88 0 l 88 1010 l 301 1010 l 301 593 l 735 593 l 735 1010 l 948 1010 l 948 -49 q 937 -127 948 -84 q 894 -210 927 -170 q 799 -274 862 -249 q 628 -299 735 -299 q 581 -297 605 -299 q 551 -293 558 -295 l 551 -123 q 580 -126 562 -124 q 611 -127 598 -127 q 696 -109 657 -127 q 735 -36 735 -92 l 735 417 l 301 417 l 301 0 l 88 0 z "},"Ң":{"ha":1186,"x_min":88,"x_max":1148,"o":"m 88 0 l 88 1010 l 301 1010 l 301 593 l 735 593 l 735 1010 l 948 1010 l 948 0 l 735 0 l 735 417 l 301 417 l 301 0 l 88 0 m 1148 145 l 1148 -244 l 944 -244 l 944 145 l 1148 145 z "},"Ӊ":{"ha":1154,"x_min":88,"x_max":1116,"o":"m 88 0 l 88 1010 l 301 1010 l 301 593 l 735 593 l 735 1010 l 948 1010 l 948 0 l 735 0 l 735 417 l 301 417 l 301 0 l 88 0 m 1116 115 l 1116 -3 q 1081 -161 1116 -84 q 989 -289 1045 -237 l 877 -240 q 884 -226 880 -233 q 891 -212 887 -219 q 930 -126 912 -172 q 948 -15 948 -80 l 948 115 l 1116 115 z "},"Ҥ":{"ha":1398,"x_min":88,"x_max":1348,"o":"m 1348 1010 l 1348 834 l 948 834 l 948 0 l 735 0 l 735 417 l 301 417 l 301 0 l 88 0 l 88 1010 l 301 1010 l 301 593 l 735 593 l 735 1010 l 1348 1010 z "},"Ƕ":{"ha":1560,"x_min":88,"x_max":1476,"o":"m 1106 -14 q 836 79 936 -14 q 735 340 735 172 l 735 417 l 301 417 l 301 0 l 88 0 l 88 1010 l 301 1010 l 301 593 l 735 593 l 735 1010 l 948 1010 l 948 340 q 990 210 948 254 q 1106 166 1032 166 q 1221 210 1181 166 q 1262 340 1262 254 l 1262 737 l 1476 737 l 1476 340 q 1376 78 1476 171 q 1106 -14 1276 -14 z "},"Η":{"ha":1036,"x_min":88,"x_max":948,"o":"m 88 0 l 88 1010 l 301 1010 l 301 593 l 735 593 l 735 1010 l 948 1010 l 948 0 l 735 0 l 735 417 l 301 417 l 301 0 l 88 0 z "},"Ή":{"ha":1290,"x_min":85,"x_max":1201,"o":"m 341 0 l 341 1010 l 555 1010 l 555 593 l 988 593 l 988 1010 l 1201 1010 l 1201 0 l 988 0 l 988 417 l 555 417 l 555 0 l 341 0 z "},"Ἠ":{"ha":1272,"x_min":78,"x_max":1184,"o":"m 324 0 l 324 1010 l 537 1010 l 537 593 l 971 593 l 971 1010 l 1184 1010 l 1184 0 l 971 0 l 971 417 l 537 417 l 537 0 l 324 0 z "},"Ἡ":{"ha":1254,"x_min":83,"x_max":1166,"o":"m 306 0 l 306 1010 l 519 1010 l 519 593 l 953 593 l 953 1010 l 1166 1010 l 1166 0 l 953 0 l 953 417 l 519 417 l 519 0 l 306 0 z "},"Ἢ":{"ha":1520,"x_min":82,"x_max":1431,"o":"m 571 0 l 571 1010 l 785 1010 l 785 593 l 1218 593 l 1218 1010 l 1431 1010 l 1431 0 l 1218 0 l 1218 417 l 785 417 l 785 0 l 571 0 z "},"Ἣ":{"ha":1479,"x_min":79,"x_max":1391,"o":"m 531 0 l 531 1010 l 744 1010 l 744 593 l 1178 593 l 1178 1010 l 1391 1010 l 1391 0 l 1178 0 l 1178 417 l 744 417 l 744 0 l 531 0 z "},"Ἤ":{"ha":1492,"x_min":85,"x_max":1405,"o":"m 545 0 l 545 1010 l 758 1010 l 758 593 l 1192 593 l 1192 1010 l 1405 1010 l 1405 0 l 1192 0 l 1192 417 l 758 417 l 758 0 l 545 0 z "},"Ἥ":{"ha":1512,"x_min":83,"x_max":1423,"o":"m 563 0 l 563 1010 l 777 1010 l 777 593 l 1210 593 l 1210 1010 l 1423 1010 l 1423 0 l 1210 0 l 1210 417 l 777 417 l 777 0 l 563 0 z "},"Ἦ":{"ha":1397,"x_min":79,"x_max":1309,"o":"m 449 0 l 449 1010 l 662 1010 l 662 593 l 1096 593 l 1096 1010 l 1309 1010 l 1309 0 l 1096 0 l 1096 417 l 662 417 l 662 0 l 449 0 z "},"Ἧ":{"ha":1416,"x_min":79,"x_max":1328,"o":"m 468 0 l 468 1010 l 681 1010 l 681 593 l 1115 593 l 1115 1010 l 1328 1010 l 1328 0 l 1115 0 l 1115 417 l 681 417 l 681 0 l 468 0 z "},"Ὴ":{"ha":1308,"x_min":82,"x_max":1220,"o":"m 360 0 l 360 1010 l 574 1010 l 574 593 l 1007 593 l 1007 1010 l 1220 1010 l 1220 0 l 1007 0 l 1007 417 l 574 417 l 574 0 l 360 0 z "},"Ή":{"ha":1293,"x_min":93,"x_max":1204,"o":"m 344 0 l 344 1010 l 558 1010 l 558 593 l 991 593 l 991 1010 l 1204 1010 l 1204 0 l 991 0 l 991 417 l 558 417 l 558 0 l 344 0 z "},"Н":{"ha":1036,"x_min":88,"x_max":948,"o":"m 88 0 l 88 1010 l 301 1010 l 301 593 l 735 593 l 735 1010 l 948 1010 l 948 0 l 735 0 l 735 417 l 301 417 l 301 0 l 88 0 z "},"ᾘ":{"ha":1240,"x_min":47,"x_max":1152,"o":"m 292 0 l 292 1010 l 506 1010 l 506 593 l 939 593 l 939 1010 l 1152 1010 l 1152 0 l 939 0 l 939 417 l 506 417 l 506 0 l 292 0 m 790 -335 q 698 -305 736 -335 q 661 -208 661 -275 l 661 -65 l 786 -65 l 786 -207 q 823 -248 786 -248 q 841 -247 834 -248 q 854 -246 849 -246 l 854 -327 q 825 -333 840 -330 q 790 -335 810 -335 z "},"ᾙ":{"ha":1254,"x_min":83,"x_max":1166,"o":"m 306 0 l 306 1010 l 519 1010 l 519 593 l 953 593 l 953 1010 l 1166 1010 l 1166 0 l 953 0 l 953 417 l 519 417 l 519 0 l 306 0 m 803 -335 q 712 -305 750 -335 q 675 -208 675 -275 l 675 -65 l 800 -65 l 800 -207 q 837 -248 800 -248 q 855 -247 847 -248 q 868 -246 863 -246 l 868 -327 q 839 -333 854 -330 q 803 -335 824 -335 z "},"ᾚ":{"ha":1520,"x_min":82,"x_max":1431,"o":"m 571 0 l 571 1010 l 785 1010 l 785 593 l 1218 593 l 1218 1010 l 1431 1010 l 1431 0 l 1218 0 l 1218 417 l 785 417 l 785 0 l 571 0 m 1069 -335 q 978 -305 1015 -335 q 940 -208 940 -275 l 940 -65 l 1065 -65 l 1065 -207 q 1102 -248 1065 -248 q 1121 -247 1113 -248 q 1133 -246 1128 -246 l 1133 -327 q 1104 -333 1120 -330 q 1069 -335 1089 -335 z "},"ᾛ":{"ha":1479,"x_min":79,"x_max":1391,"o":"m 531 0 l 531 1010 l 744 1010 l 744 593 l 1178 593 l 1178 1010 l 1391 1010 l 1391 0 l 1178 0 l 1178 417 l 744 417 l 744 0 l 531 0 m 1028 -335 q 937 -305 975 -335 q 900 -208 900 -275 l 900 -65 l 1025 -65 l 1025 -207 q 1062 -248 1025 -248 q 1080 -247 1072 -248 q 1093 -246 1088 -246 l 1093 -327 q 1064 -333 1079 -330 q 1028 -335 1049 -335 z "},"ᾜ":{"ha":1492,"x_min":85,"x_max":1405,"o":"m 545 0 l 545 1010 l 758 1010 l 758 593 l 1192 593 l 1192 1010 l 1405 1010 l 1405 0 l 1192 0 l 1192 417 l 758 417 l 758 0 l 545 0 m 1042 -335 q 951 -305 988 -335 q 913 -208 913 -275 l 913 -65 l 1039 -65 l 1039 -207 q 1076 -248 1039 -248 q 1094 -247 1086 -248 q 1107 -246 1102 -246 l 1107 -327 q 1078 -333 1093 -330 q 1042 -335 1062 -335 z "},"ᾝ":{"ha":1512,"x_min":83,"x_max":1423,"o":"m 563 0 l 563 1010 l 777 1010 l 777 593 l 1210 593 l 1210 1010 l 1423 1010 l 1423 0 l 1210 0 l 1210 417 l 777 417 l 777 0 l 563 0 m 1061 -335 q 970 -305 1007 -335 q 932 -208 932 -275 l 932 -65 l 1057 -65 l 1057 -207 q 1094 -248 1057 -248 q 1113 -247 1105 -248 q 1126 -246 1121 -246 l 1126 -327 q 1096 -333 1112 -330 q 1061 -335 1081 -335 z "},"ᾞ":{"ha":1397,"x_min":79,"x_max":1309,"o":"m 449 0 l 449 1010 l 662 1010 l 662 593 l 1096 593 l 1096 1010 l 1309 1010 l 1309 0 l 1096 0 l 1096 417 l 662 417 l 662 0 l 449 0 m 946 -335 q 855 -305 893 -335 q 818 -208 818 -275 l 818 -65 l 943 -65 l 943 -207 q 980 -248 943 -248 q 998 -247 990 -248 q 1011 -246 1006 -246 l 1011 -327 q 982 -333 997 -330 q 946 -335 967 -335 z "},"ᾟ":{"ha":1416,"x_min":79,"x_max":1328,"o":"m 468 0 l 468 1010 l 681 1010 l 681 593 l 1115 593 l 1115 1010 l 1328 1010 l 1328 0 l 1115 0 l 1115 417 l 681 417 l 681 0 l 468 0 m 965 -335 q 874 -305 911 -335 q 836 -208 836 -275 l 836 -65 l 962 -65 l 962 -207 q 999 -248 962 -248 q 1017 -247 1009 -248 q 1030 -246 1025 -246 l 1030 -327 q 1001 -333 1016 -330 q 965 -335 985 -335 z "},"ῌ":{"ha":1036,"x_min":88,"x_max":948,"o":"m 88 0 l 88 1010 l 301 1010 l 301 593 l 735 593 l 735 1010 l 948 1010 l 948 0 l 735 0 l 735 417 l 301 417 l 301 0 l 88 0 m 585 -335 q 494 -305 532 -335 q 457 -208 457 -275 l 457 -65 l 582 -65 l 582 -207 q 619 -248 582 -248 q 637 -247 629 -248 q 650 -246 645 -246 l 650 -327 q 621 -333 636 -330 q 585 -335 606 -335 z "},"I":{"ha":390,"x_min":88,"x_max":301,"o":"m 301 1010 l 301 0 l 88 0 l 88 1010 l 301 1010 z "},"Ï":{"ha":390,"x_min":-59,"x_max":449,"o":"m 301 1010 l 301 0 l 88 0 l 88 1010 l 301 1010 z "},"Ḯ":{"ha":390,"x_min":-49,"x_max":439,"o":"m 301 1010 l 301 0 l 88 0 l 88 1010 l 301 1010 m 114 1330 l 251 1504 l 439 1504 l 265 1330 l 114 1330 m 340 1078 q 270 1106 299 1078 q 241 1173 241 1134 q 270 1240 241 1212 q 340 1268 299 1268 q 410 1240 381 1268 q 438 1173 438 1212 q 410 1106 438 1134 q 340 1078 381 1078 m 50 1078 q -20 1106 9 1078 q -49 1173 -49 1134 q -20 1240 -49 1212 q 50 1268 9 1268 q 120 1240 91 1268 q 148 1173 148 1212 q 120 1106 148 1134 q 50 1078 91 1078 z "},"Ɨ":{"ha":390,"x_min":-53,"x_max":439,"o":"m 301 1010 l 301 0 l 88 0 l 88 1010 l 301 1010 m -53 471 l -53 594 l 439 594 l 439 471 l -53 471 z "},"Ḭ":{"ha":390,"x_min":-37,"x_max":478,"o":"m 301 1010 l 301 0 l 88 0 l 88 1010 l 301 1010 z "},"Ì":{"ha":390,"x_min":-28,"x_max":301,"o":"m 301 1010 l 301 0 l 88 0 l 88 1010 l 301 1010 m 122 1108 l -28 1332 l 166 1332 l 271 1108 l 122 1108 z "},"Í":{"ha":390,"x_min":88,"x_max":419,"o":"m 301 1010 l 301 0 l 88 0 l 88 1010 l 301 1010 m 120 1108 l 224 1332 l 419 1332 l 268 1108 l 120 1108 z "},"Î":{"ha":390,"x_min":-83,"x_max":473,"o":"m 301 1010 l 301 0 l 88 0 l 88 1010 l 301 1010 z "},"Ĩ":{"ha":626,"x_min":55,"x_max":571,"o":"m 419 1010 l 419 0 l 205 0 l 205 1010 l 419 1010 m 172 1103 l 55 1105 q 101 1249 55 1199 q 215 1300 148 1300 q 280 1286 254 1300 q 329 1257 307 1272 q 362 1235 346 1244 q 397 1226 378 1226 q 440 1248 426 1227 q 456 1303 455 1269 l 571 1299 q 524 1155 570 1205 q 410 1104 477 1105 q 343 1118 369 1104 q 296 1148 317 1132 q 264 1169 280 1160 q 228 1178 248 1178 q 187 1158 203 1178 q 172 1103 172 1138 z "},"Ī":{"ha":390,"x_min":-45,"x_max":436,"o":"m 301 1010 l 301 0 l 88 0 l 88 1010 l 301 1010 m 436 1263 l 436 1149 l -45 1149 l -45 1263 l 436 1263 z "},"Ĭ":{"ha":390,"x_min":-48,"x_max":439,"o":"m 301 1010 l 301 0 l 88 0 l 88 1010 l 301 1010 m 293 1274 l 439 1274 q 373 1130 439 1185 q 195 1075 307 1075 q 18 1130 83 1075 q -48 1274 -48 1185 l 97 1274 q 119 1213 97 1240 q 195 1186 142 1186 q 271 1213 248 1186 q 293 1274 293 1240 z "},"Į":{"ha":390,"x_min":28,"x_max":318,"o":"m 301 1010 l 301 0 l 88 0 l 88 1010 l 301 1010 m 205 -283 q 95 -249 140 -283 q 40 -153 51 -216 q 54 -33 28 -93 q 145 57 80 28 l 301 0 q 225 -47 255 -22 q 196 -108 196 -72 q 244 -157 195 -157 q 273 -153 261 -157 q 296 -145 286 -148 l 318 -254 q 271 -273 299 -264 q 205 -283 243 -283 z "},"İ":{"ha":390,"x_min":82,"x_max":309,"o":"m 301 1010 l 301 0 l 88 0 l 88 1010 l 301 1010 m 195 1108 q 115 1139 149 1108 q 82 1214 82 1170 q 115 1289 82 1258 q 195 1320 149 1320 q 276 1289 242 1320 q 309 1214 309 1258 q 276 1139 309 1170 q 195 1108 242 1108 z "},"Ǐ":{"ha":390,"x_min":-83,"x_max":473,"o":"m 301 1010 l 301 0 l 88 0 l 88 1010 l 301 1010 m 96 1325 l 195 1204 l 294 1325 l 473 1325 l 473 1318 l 273 1101 l 117 1101 l -83 1318 l -83 1325 l 96 1325 z "},"Ȉ":{"ha":390,"x_min":-90,"x_max":365,"o":"m 301 1010 l 301 0 l 88 0 l 88 1010 l 301 1010 m 113 1108 l -59 1199 l -90 1332 l 98 1240 l 113 1108 m 355 1108 l 202 1199 l 203 1332 l 365 1240 l 355 1108 z "},"Ȋ":{"ha":390,"x_min":-51,"x_max":438,"o":"m 301 1010 l 301 0 l 88 0 l 88 1010 l 301 1010 m -50 1132 q 15 1279 -51 1222 q 194 1337 81 1337 q 372 1279 306 1337 q 438 1132 438 1222 l 292 1132 q 269 1193 291 1166 q 194 1220 247 1220 q 118 1193 140 1220 q 96 1132 96 1166 l -50 1132 z "},"Ỉ":{"ha":390,"x_min":88,"x_max":378,"o":"m 301 1010 l 301 0 l 88 0 l 88 1010 l 301 1010 m 273 1119 l 117 1119 l 106 1207 q 181 1221 158 1210 q 202 1252 203 1233 q 174 1288 203 1279 q 104 1298 146 1298 l 109 1393 q 309 1357 241 1393 q 378 1259 378 1322 q 345 1191 378 1214 q 273 1162 312 1168 l 273 1119 z "},"Ị":{"ha":390,"x_min":80,"x_max":308,"o":"m 301 1010 l 301 0 l 88 0 l 88 1010 l 301 1010 z "},"Ι":{"ha":390,"x_min":88,"x_max":301,"o":"m 301 1010 l 301 0 l 88 0 l 88 1010 l 301 1010 z "},"Ί":{"ha":537,"x_min":3,"x_max":449,"o":"m 449 1010 l 449 0 l 235 0 l 235 1010 l 449 1010 z "},"Ϊ":{"ha":390,"x_min":-59,"x_max":449,"o":"m 301 1010 l 301 0 l 88 0 l 88 1010 l 301 1010 z "},"Ἰ":{"ha":598,"x_min":78,"x_max":513,"o":"m 513 1010 l 513 0 l 300 0 l 300 1010 l 513 1010 z "},"Ἱ":{"ha":580,"x_min":83,"x_max":496,"o":"m 496 1010 l 496 0 l 282 0 l 282 1010 l 496 1010 z "},"Ἲ":{"ha":845,"x_min":82,"x_max":761,"o":"m 761 1010 l 761 0 l 547 0 l 547 1010 l 761 1010 z "},"Ἳ":{"ha":805,"x_min":79,"x_max":721,"o":"m 721 1010 l 721 0 l 507 0 l 507 1010 l 721 1010 z "},"Ἴ":{"ha":819,"x_min":85,"x_max":734,"o":"m 734 1010 l 734 0 l 521 0 l 521 1010 l 734 1010 z "},"Ἵ":{"ha":837,"x_min":83,"x_max":753,"o":"m 753 1010 l 753 0 l 540 0 l 540 1010 l 753 1010 z "},"Ἶ":{"ha":723,"x_min":79,"x_max":639,"o":"m 639 1010 l 639 0 l 425 0 l 425 1010 l 639 1010 z "},"Ἷ":{"ha":742,"x_min":79,"x_max":657,"o":"m 657 1010 l 657 0 l 444 0 l 444 1010 l 657 1010 z "},"Ῐ":{"ha":390,"x_min":-48,"x_max":439,"o":"m 301 1010 l 301 0 l 88 0 l 88 1010 l 301 1010 m 293 1274 l 439 1274 q 373 1130 439 1185 q 195 1075 307 1075 q 18 1130 83 1075 q -48 1274 -48 1185 l 97 1274 q 119 1213 97 1240 q 195 1186 142 1186 q 271 1213 248 1186 q 293 1274 293 1240 z "},"Ῑ":{"ha":390,"x_min":-45,"x_max":436,"o":"m 301 1010 l 301 0 l 88 0 l 88 1010 l 301 1010 m 436 1263 l 436 1149 l -45 1149 l -45 1263 l 436 1263 z "},"Ὶ":{"ha":634,"x_min":82,"x_max":550,"o":"m 550 1010 l 550 0 l 336 0 l 336 1010 l 550 1010 z "},"Ί":{"ha":618,"x_min":93,"x_max":534,"o":"m 534 1010 l 534 0 l 321 0 l 321 1010 l 534 1010 z "},"І":{"ha":390,"x_min":88,"x_max":301,"o":"m 301 1010 l 301 0 l 88 0 l 88 1010 l 301 1010 z "},"Ї":{"ha":390,"x_min":-59,"x_max":449,"o":"m 301 1010 l 301 0 l 88 0 l 88 1010 l 301 1010 m 45 1114 q -28 1144 2 1114 q -59 1214 -59 1173 q -28 1285 -59 1256 q 45 1314 2 1314 q 118 1285 88 1314 q 147 1214 147 1256 q 118 1144 147 1173 q 45 1114 88 1114 m 347 1114 q 274 1144 304 1114 q 243 1214 243 1173 q 274 1285 243 1256 q 347 1314 304 1314 q 419 1285 390 1314 q 449 1214 449 1256 q 419 1144 449 1173 q 347 1114 390 1114 z "},"":{"ha":666,"x_min":49,"x_max":617,"o":"m 49 834 l 49 1010 l 617 1010 l 617 834 l 440 834 l 440 176 l 617 176 l 617 0 l 49 0 l 49 176 l 226 176 l 226 834 l 49 834 z "},"":{"ha":666,"x_min":49,"x_max":617,"o":"m 49 834 l 49 1010 l 617 1010 l 617 834 l 440 834 l 440 176 l 617 176 l 617 0 l 49 0 l 49 176 l 226 176 l 226 834 l 49 834 z "},"":{"ha":666,"x_min":49,"x_max":617,"o":"m 49 834 l 49 1010 l 617 1010 l 617 834 l 440 834 l 440 176 l 617 176 l 617 0 l 49 0 l 49 176 l 226 176 l 226 834 l 49 834 m 253 1330 l 389 1504 l 578 1504 l 404 1330 l 253 1330 m 478 1078 q 409 1106 438 1078 q 379 1173 379 1134 q 409 1240 379 1212 q 478 1268 438 1268 q 548 1240 520 1268 q 577 1173 577 1212 q 548 1106 577 1134 q 478 1078 520 1078 m 188 1078 q 119 1106 148 1078 q 89 1173 89 1134 q 119 1240 89 1212 q 188 1268 148 1268 q 258 1240 230 1268 q 287 1173 287 1212 q 258 1106 287 1134 q 188 1078 230 1078 z "},"":{"ha":666,"x_min":49,"x_max":617,"o":"m 49 834 l 49 1010 l 617 1010 l 617 834 l 440 834 l 440 176 l 617 176 l 617 0 l 49 0 l 49 176 l 226 176 l 226 834 l 49 834 m 86 471 l 86 594 l 578 594 l 578 471 l 86 471 z "},"":{"ha":666,"x_min":49,"x_max":617,"o":"m 49 834 l 49 1010 l 617 1010 l 617 834 l 440 834 l 440 176 l 617 176 l 617 0 l 49 0 l 49 176 l 226 176 l 226 834 l 49 834 z "},"":{"ha":666,"x_min":49,"x_max":617,"o":"m 49 834 l 49 1010 l 617 1010 l 617 834 l 440 834 l 440 176 l 617 176 l 617 0 l 49 0 l 49 176 l 226 176 l 226 834 l 49 834 m 261 1108 l 110 1332 l 304 1332 l 409 1108 l 261 1108 z "},"":{"ha":666,"x_min":49,"x_max":617,"o":"m 49 834 l 49 1010 l 617 1010 l 617 834 l 440 834 l 440 176 l 617 176 l 617 0 l 49 0 l 49 176 l 226 176 l 226 834 l 49 834 m 258 1108 l 363 1332 l 557 1332 l 407 1108 l 258 1108 z "},"":{"ha":666,"x_min":49,"x_max":617,"o":"m 49 834 l 49 1010 l 617 1010 l 617 834 l 440 834 l 440 176 l 617 176 l 617 0 l 49 0 l 49 176 l 226 176 l 226 834 l 49 834 z "},"":{"ha":666,"x_min":49,"x_max":617,"o":"m 49 834 l 49 1010 l 617 1010 l 617 834 l 440 834 l 440 176 l 617 176 l 617 0 l 49 0 l 49 176 l 226 176 l 226 834 l 49 834 m 193 1103 l 76 1105 q 123 1249 76 1199 q 236 1300 169 1300 q 301 1286 275 1300 q 350 1257 328 1272 q 383 1235 367 1244 q 418 1226 400 1226 q 462 1248 447 1227 q 477 1303 476 1269 l 592 1299 q 545 1155 591 1205 q 432 1104 499 1105 q 364 1118 390 1104 q 317 1148 338 1132 q 285 1169 301 1160 q 250 1178 269 1178 q 208 1158 224 1178 q 193 1103 193 1138 z "},"":{"ha":666,"x_min":49,"x_max":617,"o":"m 49 834 l 49 1010 l 617 1010 l 617 834 l 440 834 l 440 176 l 617 176 l 617 0 l 49 0 l 49 176 l 226 176 l 226 834 l 49 834 m 574 1263 l 574 1149 l 94 1149 l 94 1263 l 574 1263 z "},"":{"ha":666,"x_min":49,"x_max":617,"o":"m 49 834 l 49 1010 l 617 1010 l 617 834 l 440 834 l 440 176 l 617 176 l 617 0 l 49 0 l 49 176 l 226 176 l 226 834 l 49 834 m 432 1274 l 578 1274 q 512 1130 578 1185 q 334 1075 446 1075 q 156 1130 222 1075 q 90 1274 90 1185 l 236 1274 q 258 1213 235 1240 q 334 1186 280 1186 q 409 1213 387 1186 q 432 1274 432 1240 z "},"":{"ha":666,"x_min":49,"x_max":633,"o":"m 49 834 l 49 1010 l 617 1010 l 617 834 l 440 834 l 440 176 l 617 176 l 617 0 l 49 0 l 49 176 l 226 176 l 226 834 l 49 834 m 521 -283 q 411 -249 455 -283 q 356 -153 367 -216 q 370 -33 344 -93 q 461 57 396 28 l 617 0 q 541 -47 571 -22 q 512 -108 511 -72 q 560 -157 511 -157 q 589 -153 577 -157 q 612 -145 602 -148 l 633 -254 q 587 -273 615 -264 q 521 -283 559 -283 z "},"":{"ha":666,"x_min":49,"x_max":617,"o":"m 49 834 l 49 1010 l 617 1010 l 617 834 l 440 834 l 440 176 l 617 176 l 617 0 l 49 0 l 49 176 l 226 176 l 226 834 l 49 834 m 333 1108 q 254 1139 287 1108 q 220 1214 220 1170 q 254 1289 220 1258 q 333 1320 287 1320 q 414 1289 380 1320 q 447 1214 447 1258 q 414 1139 447 1170 q 333 1108 380 1108 z "},"":{"ha":666,"x_min":49,"x_max":617,"o":"m 49 834 l 49 1010 l 617 1010 l 617 834 l 440 834 l 440 176 l 617 176 l 617 0 l 49 0 l 49 176 l 226 176 l 226 834 l 49 834 m 235 1325 l 334 1204 l 433 1325 l 612 1325 l 612 1318 l 412 1101 l 255 1101 l 56 1318 l 56 1325 l 235 1325 z "},"":{"ha":666,"x_min":48,"x_max":617,"o":"m 49 834 l 49 1010 l 617 1010 l 617 834 l 440 834 l 440 176 l 617 176 l 617 0 l 49 0 l 49 176 l 226 176 l 226 834 l 49 834 m 252 1108 l 79 1199 l 48 1332 l 236 1240 l 252 1108 m 493 1108 l 340 1199 l 342 1332 l 504 1240 l 493 1108 z "},"":{"ha":666,"x_min":49,"x_max":617,"o":"m 49 834 l 49 1010 l 617 1010 l 617 834 l 440 834 l 440 176 l 617 176 l 617 0 l 49 0 l 49 176 l 226 176 l 226 834 l 49 834 m 88 1132 q 154 1279 88 1222 q 332 1337 219 1337 q 510 1279 444 1337 q 577 1132 577 1222 l 431 1132 q 408 1193 430 1166 q 332 1220 385 1220 q 256 1193 279 1220 q 235 1132 234 1166 l 88 1132 z "},"":{"ha":666,"x_min":49,"x_max":617,"o":"m 49 834 l 49 1010 l 617 1010 l 617 834 l 440 834 l 440 176 l 617 176 l 617 0 l 49 0 l 49 176 l 226 176 l 226 834 l 49 834 m 411 1119 l 255 1119 l 245 1207 q 319 1221 297 1210 q 341 1252 341 1233 q 313 1288 341 1279 q 242 1298 285 1298 l 248 1393 q 448 1357 379 1393 q 516 1259 517 1322 q 484 1191 517 1214 q 411 1162 451 1168 l 411 1119 z "},"":{"ha":666,"x_min":49,"x_max":617,"o":"m 49 834 l 49 1010 l 617 1010 l 617 834 l 440 834 l 440 176 l 617 176 l 617 0 l 49 0 l 49 176 l 226 176 l 226 834 l 49 834 z "},"":{"ha":888,"x_min":49,"x_max":839,"o":"m 271 834 l 271 1010 l 839 1010 l 839 834 l 662 834 l 662 176 l 839 176 l 839 0 l 271 0 l 271 176 l 448 176 l 448 834 l 271 834 z "},"":{"ha":865,"x_min":49,"x_max":816,"o":"m 248 834 l 248 1010 l 816 1010 l 816 834 l 639 834 l 639 176 l 816 176 l 816 0 l 248 0 l 248 176 l 425 176 l 425 834 l 248 834 z "},"":{"ha":1132,"x_min":49,"x_max":1083,"o":"m 515 834 l 515 1010 l 1083 1010 l 1083 834 l 906 834 l 906 176 l 1083 176 l 1083 0 l 515 0 l 515 176 l 692 176 l 692 834 l 515 834 z "},"":{"ha":1094,"x_min":49,"x_max":1044,"o":"m 476 834 l 476 1010 l 1044 1010 l 1044 834 l 867 834 l 867 176 l 1044 176 l 1044 0 l 476 0 l 476 176 l 654 176 l 654 834 l 476 834 z "},"":{"ha":1103,"x_min":49,"x_max":1054,"o":"m 486 834 l 486 1010 l 1054 1010 l 1054 834 l 876 834 l 876 176 l 1054 176 l 1054 0 l 486 0 l 486 176 l 663 176 l 663 834 l 486 834 z "},"":{"ha":1123,"x_min":49,"x_max":1074,"o":"m 506 834 l 506 1010 l 1074 1010 l 1074 834 l 897 834 l 897 176 l 1074 176 l 1074 0 l 506 0 l 506 176 l 683 176 l 683 834 l 506 834 z "},"":{"ha":1012,"x_min":49,"x_max":963,"o":"m 395 834 l 395 1010 l 963 1010 l 963 834 l 786 834 l 786 176 l 963 176 l 963 0 l 395 0 l 395 176 l 572 176 l 572 834 l 395 834 z "},"":{"ha":1031,"x_min":49,"x_max":981,"o":"m 414 834 l 414 1010 l 981 1010 l 981 834 l 804 834 l 804 176 l 981 176 l 981 0 l 414 0 l 414 176 l 591 176 l 591 834 l 414 834 z "},"":{"ha":666,"x_min":49,"x_max":617,"o":"m 49 834 l 49 1010 l 617 1010 l 617 834 l 440 834 l 440 176 l 617 176 l 617 0 l 49 0 l 49 176 l 226 176 l 226 834 l 49 834 m 432 1274 l 578 1274 q 512 1130 578 1185 q 334 1075 446 1075 q 156 1130 222 1075 q 90 1274 90 1185 l 236 1274 q 258 1213 235 1240 q 334 1186 280 1186 q 409 1213 387 1186 q 432 1274 432 1240 z "},"":{"ha":666,"x_min":49,"x_max":617,"o":"m 49 834 l 49 1010 l 617 1010 l 617 834 l 440 834 l 440 176 l 617 176 l 617 0 l 49 0 l 49 176 l 226 176 l 226 834 l 49 834 m 574 1263 l 574 1149 l 94 1149 l 94 1263 l 574 1263 z "},"":{"ha":921,"x_min":49,"x_max":872,"o":"m 304 834 l 304 1010 l 872 1010 l 872 834 l 694 834 l 694 176 l 872 176 l 872 0 l 304 0 l 304 176 l 481 176 l 481 834 l 304 834 z "},"":{"ha":905,"x_min":60,"x_max":856,"o":"m 288 834 l 288 1010 l 856 1010 l 856 834 l 679 834 l 679 176 l 856 176 l 856 0 l 288 0 l 288 176 l 465 176 l 465 834 l 288 834 z "},"":{"ha":666,"x_min":49,"x_max":617,"o":"m 49 834 l 49 1010 l 617 1010 l 617 834 l 440 834 l 440 176 l 617 176 l 617 0 l 49 0 l 49 176 l 226 176 l 226 834 l 49 834 z "},"":{"ha":666,"x_min":49,"x_max":617,"o":"m 49 834 l 49 1010 l 617 1010 l 617 834 l 440 834 l 440 176 l 617 176 l 617 0 l 49 0 l 49 176 l 226 176 l 226 834 l 49 834 m 183 1114 q 110 1144 141 1114 q 80 1214 80 1173 q 110 1285 80 1256 q 183 1314 141 1314 q 256 1285 226 1314 q 286 1214 286 1256 q 256 1144 286 1173 q 183 1114 226 1114 m 485 1114 q 412 1144 443 1114 q 382 1214 382 1173 q 412 1285 382 1256 q 485 1314 443 1314 q 558 1285 528 1314 q 588 1214 588 1256 q 558 1144 588 1173 q 485 1114 528 1114 z "},"J":{"ha":792,"x_min":32,"x_max":703,"o":"m 492 1010 l 703 1010 l 703 306 q 660 136 703 208 q 539 25 616 65 q 359 -14 461 -14 q 193 19 267 -14 q 75 117 119 51 q 33 284 32 183 l 245 284 q 280 191 246 224 q 369 157 314 157 q 492 306 491 157 l 492 1010 z "},"Ĵ":{"ha":792,"x_min":32,"x_max":875,"o":"m 492 1010 l 703 1010 l 703 306 q 660 136 703 208 q 539 25 616 65 q 359 -14 461 -14 q 193 19 267 -14 q 75 117 119 51 q 33 284 32 183 l 245 284 q 280 191 246 224 q 369 157 314 157 q 492 306 491 157 l 492 1010 z "},"Ɉ":{"ha":792,"x_min":32,"x_max":841,"o":"m 492 1010 l 703 1010 l 703 306 q 660 136 703 208 q 539 25 616 65 q 359 -14 461 -14 q 193 19 267 -14 q 75 117 119 51 q 33 284 32 183 l 245 284 q 280 191 246 224 q 369 157 314 157 q 492 306 491 157 l 492 1010 m 349 541 l 349 665 l 841 665 l 841 541 l 349 541 z "},"Ϳ":{"ha":792,"x_min":32,"x_max":703,"o":"m 492 1010 l 703 1010 l 703 306 q 660 136 703 208 q 539 25 616 65 q 359 -14 461 -14 q 193 19 267 -14 q 75 117 119 51 q 33 284 32 183 l 245 284 q 280 191 246 224 q 369 157 314 157 q 492 306 491 157 l 492 1010 z "},"Ј":{"ha":792,"x_min":32,"x_max":703,"o":"m 492 1010 l 703 1010 l 703 306 q 660 136 703 208 q 539 25 616 65 q 359 -14 461 -14 q 193 19 267 -14 q 75 117 119 51 q 33 284 32 183 l 245 284 q 280 191 246 224 q 369 157 314 157 q 492 306 491 157 l 492 1010 z "},"K":{"ha":958,"x_min":88,"x_max":939,"o":"m 88 0 l 88 1010 l 301 1010 l 301 565 l 315 565 l 678 1010 l 934 1010 l 559 558 l 939 0 l 683 0 l 406 415 l 301 287 l 301 0 l 88 0 z "},"Ķ":{"ha":958,"x_min":88,"x_max":939,"o":"m 88 0 l 88 1010 l 301 1010 l 301 565 l 315 565 l 678 1010 l 934 1010 l 559 558 l 939 0 l 683 0 l 406 415 l 301 287 l 301 0 l 88 0 m 318 -323 l 379 -79 l 574 -79 l 466 -323 l 318 -323 z "},"Ǩ":{"ha":958,"x_min":88,"x_max":939,"o":"m 88 0 l 88 1010 l 301 1010 l 301 565 l 315 565 l 678 1010 l 934 1010 l 559 558 l 939 0 l 683 0 l 406 415 l 301 287 l 301 0 l 88 0 m 379 1325 l 478 1204 l 577 1325 l 756 1325 l 756 1318 l 556 1101 l 400 1101 l 200 1318 l 200 1325 l 379 1325 z "},"Ḱ":{"ha":958,"x_min":88,"x_max":939,"o":"m 88 0 l 88 1010 l 301 1010 l 301 565 l 315 565 l 678 1010 l 934 1010 l 559 558 l 939 0 l 683 0 l 406 415 l 301 287 l 301 0 l 88 0 m 402 1108 l 507 1332 l 701 1332 l 551 1108 l 402 1108 z "},"Ḳ":{"ha":958,"x_min":88,"x_max":939,"o":"m 88 0 l 88 1010 l 301 1010 l 301 565 l 315 565 l 678 1010 l 934 1010 l 559 558 l 939 0 l 683 0 l 406 415 l 301 287 l 301 0 l 88 0 z "},"Ḵ":{"ha":958,"x_min":88,"x_max":939,"o":"m 88 0 l 88 1010 l 301 1010 l 301 565 l 315 565 l 678 1010 l 934 1010 l 559 558 l 939 0 l 683 0 l 406 415 l 301 287 l 301 0 l 88 0 z "},"Ҡ":{"ha":1179,"x_min":23,"x_max":1126,"o":"m 862 0 l 537 431 l 464 431 l 464 0 l 251 0 l 251 843 l 23 843 l 23 1010 l 464 1010 l 464 607 l 507 607 l 842 1010 l 1108 1010 l 714 542 l 1126 0 l 862 0 z "},"Қ":{"ha":1028,"x_min":88,"x_max":984,"o":"m 699 0 l 374 431 l 301 431 l 301 0 l 88 0 l 88 1010 l 301 1010 l 301 607 l 344 607 l 680 1010 l 945 1010 l 551 542 l 964 0 l 699 0 m 984 152 l 984 -237 l 780 -237 l 780 152 l 984 152 z "},"Ƙ":{"ha":1013,"x_min":88,"x_max":1003,"o":"m 88 0 l 88 1010 l 301 1010 l 301 575 l 315 575 l 646 926 q 816 1020 724 1007 q 1003 978 908 1034 l 935 826 q 863 837 893 848 q 799 792 833 827 l 561 544 l 978 0 l 722 0 l 425 393 l 301 260 l 301 0 l 88 0 z "},"Κ":{"ha":958,"x_min":88,"x_max":939,"o":"m 88 0 l 88 1010 l 301 1010 l 301 565 l 315 565 l 678 1010 l 934 1010 l 559 558 l 939 0 l 683 0 l 406 415 l 301 287 l 301 0 l 88 0 z "},"L":{"ha":788,"x_min":88,"x_max":734,"o":"m 88 0 l 88 1010 l 301 1010 l 301 176 l 734 176 l 734 0 l 88 0 z "},"Ĺ":{"ha":788,"x_min":88,"x_max":734,"o":"m 88 0 l 88 1010 l 301 1010 l 301 176 l 734 176 l 734 0 l 88 0 m 117 1108 l 222 1332 l 416 1332 l 266 1108 l 117 1108 z "},"Ļ":{"ha":788,"x_min":88,"x_max":734,"o":"m 88 0 l 88 1010 l 301 1010 l 301 176 l 734 176 l 734 0 l 88 0 m 254 -324 l 316 -80 l 510 -80 l 402 -324 l 254 -324 z "},"Ľ":{"ha":788,"x_min":88,"x_max":734,"o":"m 88 0 l 88 1010 l 301 1010 l 301 176 l 734 176 l 734 0 l 88 0 m 453 802 l 453 1062 l 611 1062 l 575 802 l 453 802 z "},"Ḷ":{"ha":788,"x_min":88,"x_max":734,"o":"m 88 0 l 88 1010 l 301 1010 l 301 176 l 734 176 l 734 0 l 88 0 z "},"Ḹ":{"ha":788,"x_min":-47,"x_max":734,"o":"m 88 0 l 88 1010 l 301 1010 l 301 176 l 734 176 l 734 0 l 88 0 m 433 1263 l 433 1149 l -47 1149 l -47 1263 l 433 1263 z "},"Ḻ":{"ha":788,"x_min":88,"x_max":734,"o":"m 88 0 l 88 1010 l 301 1010 l 301 176 l 734 176 l 734 0 l 88 0 z "},"Ḽ":{"ha":788,"x_min":88,"x_max":734,"o":"m 88 0 l 88 1010 l 301 1010 l 301 176 l 734 176 l 734 0 l 88 0 z "},"Ł":{"ha":813,"x_min":20,"x_max":777,"o":"m 477 653 l 477 536 l 344 499 l 344 176 l 777 176 l 777 0 l 130 0 l 130 440 l 20 409 l 20 525 l 130 556 l 130 1010 l 344 1010 l 344 616 l 477 653 z "},"Ƚ":{"ha":788,"x_min":-53,"x_max":734,"o":"m 88 0 l 88 1010 l 301 1010 l 301 176 l 734 176 l 734 0 l 88 0 m -53 471 l -53 594 l 439 594 l 439 471 l -53 471 z "},"ǈ":{"ha":1166,"x_min":88,"x_max":1090,"o":"m 88 0 l 88 1010 l 301 1010 l 301 176 l 734 176 l 734 0 l 88 0 z "},"M":{"ha":1271,"x_min":88,"x_max":1183,"o":"m 88 1010 l 351 1010 l 629 331 l 641 331 l 919 1010 l 1183 1010 l 1183 0 l 976 0 l 976 657 l 967 657 l 706 5 l 565 5 l 303 660 l 295 660 l 295 0 l 88 0 l 88 1010 z "},"Ḿ":{"ha":1271,"x_min":88,"x_max":1183,"o":"m 88 1010 l 351 1010 l 629 331 l 641 331 l 919 1010 l 1183 1010 l 1183 0 l 976 0 l 976 657 l 967 657 l 706 5 l 565 5 l 303 660 l 295 660 l 295 0 l 88 0 l 88 1010 m 560 1108 l 664 1332 l 859 1332 l 708 1108 l 560 1108 z "},"Ṁ":{"ha":1271,"x_min":88,"x_max":1183,"o":"m 88 1010 l 351 1010 l 629 331 l 641 331 l 919 1010 l 1183 1010 l 1183 0 l 976 0 l 976 657 l 967 657 l 706 5 l 565 5 l 303 660 l 295 660 l 295 0 l 88 0 l 88 1010 m 635 1108 q 555 1139 589 1108 q 522 1214 522 1170 q 555 1289 522 1258 q 635 1320 589 1320 q 716 1289 682 1320 q 749 1214 749 1258 q 716 1139 749 1170 q 635 1108 682 1108 z "},"Ṃ":{"ha":1271,"x_min":88,"x_max":1183,"o":"m 88 1010 l 351 1010 l 629 331 l 641 331 l 919 1010 l 1183 1010 l 1183 0 l 976 0 l 976 657 l 967 657 l 706 5 l 565 5 l 303 660 l 295 660 l 295 0 l 88 0 l 88 1010 z "},"Ӎ":{"ha":1362,"x_min":88,"x_max":1350,"o":"m 88 1010 l 351 1010 l 629 331 l 641 331 l 919 1010 l 1183 1010 l 1183 0 l 976 0 l 976 657 l 967 657 l 706 5 l 565 5 l 303 660 l 295 660 l 295 0 l 88 0 l 88 1010 m 1350 115 l 1350 -3 q 1315 -161 1350 -84 q 1223 -289 1279 -237 l 1111 -240 q 1118 -226 1115 -233 q 1125 -212 1122 -219 q 1164 -126 1146 -172 q 1182 -15 1183 -80 l 1182 115 l 1350 115 z "},"Μ":{"ha":1271,"x_min":88,"x_max":1183,"o":"m 88 1010 l 351 1010 l 629 331 l 641 331 l 919 1010 l 1183 1010 l 1183 0 l 976 0 l 976 657 l 967 657 l 706 5 l 565 5 l 303 660 l 295 660 l 295 0 l 88 0 l 88 1010 z "},"Ϻ":{"ha":1271,"x_min":88,"x_max":1183,"o":"m 88 1010 l 351 1010 l 629 331 l 641 331 l 919 1010 l 1183 1010 l 1183 0 l 976 0 l 976 657 l 967 657 l 706 5 l 565 5 l 303 660 l 295 660 l 295 0 l 88 0 l 88 1010 z "},"М":{"ha":1271,"x_min":88,"x_max":1183,"o":"m 88 1010 l 351 1010 l 629 331 l 641 331 l 919 1010 l 1183 1010 l 1183 0 l 976 0 l 976 657 l 967 657 l 706 5 l 565 5 l 303 660 l 295 660 l 295 0 l 88 0 l 88 1010 z "},"N":{"ha":1021,"x_min":88,"x_max":933,"o":"m 933 1010 l 933 0 l 748 0 l 309 636 l 301 636 l 301 0 l 88 0 l 88 1010 l 275 1010 l 711 375 l 720 375 l 720 1010 l 933 1010 z "},"Ñ":{"ha":1021,"x_min":88,"x_max":933,"o":"m 933 1010 l 933 0 l 748 0 l 309 636 l 301 636 l 301 0 l 88 0 l 88 1010 l 275 1010 l 711 375 l 720 375 l 720 1010 l 933 1010 m 370 1103 l 253 1105 q 300 1249 253 1199 q 413 1300 346 1300 q 478 1286 452 1300 q 527 1257 505 1272 q 561 1235 545 1244 q 595 1226 577 1226 q 639 1248 624 1227 q 654 1303 654 1269 l 769 1299 q 722 1155 768 1205 q 609 1104 676 1105 q 541 1118 567 1104 q 494 1148 515 1132 q 462 1169 478 1160 q 427 1178 446 1178 q 385 1158 401 1178 q 370 1103 370 1138 z "},"Ń":{"ha":1021,"x_min":88,"x_max":933,"o":"m 933 1010 l 933 0 l 748 0 l 309 636 l 301 636 l 301 0 l 88 0 l 88 1010 l 275 1010 l 711 375 l 720 375 l 720 1010 l 933 1010 m 436 1108 l 540 1332 l 734 1332 l 584 1108 l 436 1108 z "},"Ņ":{"ha":1021,"x_min":88,"x_max":933,"o":"m 933 1010 l 933 0 l 748 0 l 309 636 l 301 636 l 301 0 l 88 0 l 88 1010 l 275 1010 l 711 375 l 720 375 l 720 1010 l 933 1010 m 354 -324 l 415 -80 l 610 -80 l 502 -324 l 354 -324 z "},"Ň":{"ha":1021,"x_min":88,"x_max":933,"o":"m 933 1010 l 933 0 l 748 0 l 309 636 l 301 636 l 301 0 l 88 0 l 88 1010 l 275 1010 l 711 375 l 720 375 l 720 1010 l 933 1010 m 412 1325 l 511 1204 l 610 1325 l 789 1325 l 789 1318 l 589 1101 l 433 1101 l 233 1318 l 233 1325 l 412 1325 z "},"Ǹ":{"ha":1021,"x_min":88,"x_max":933,"o":"m 933 1010 l 933 0 l 748 0 l 309 636 l 301 636 l 301 0 l 88 0 l 88 1010 l 275 1010 l 711 375 l 720 375 l 720 1010 l 933 1010 m 438 1108 l 288 1332 l 481 1332 l 586 1108 l 438 1108 z "},"Ṅ":{"ha":1021,"x_min":88,"x_max":933,"o":"m 933 1010 l 933 0 l 748 0 l 309 636 l 301 636 l 301 0 l 88 0 l 88 1010 l 275 1010 l 711 375 l 720 375 l 720 1010 l 933 1010 m 511 1108 q 431 1139 465 1108 q 398 1214 398 1170 q 431 1289 398 1258 q 511 1320 465 1320 q 591 1289 558 1320 q 625 1214 625 1258 q 591 1139 625 1170 q 511 1108 558 1108 z "},"Ṇ":{"ha":1021,"x_min":88,"x_max":933,"o":"m 933 1010 l 933 0 l 748 0 l 309 636 l 301 636 l 301 0 l 88 0 l 88 1010 l 275 1010 l 711 375 l 720 375 l 720 1010 l 933 1010 z "},"Ṉ":{"ha":1021,"x_min":88,"x_max":933,"o":"m 933 1010 l 933 0 l 748 0 l 309 636 l 301 636 l 301 0 l 88 0 l 88 1010 l 275 1010 l 711 375 l 720 375 l 720 1010 l 933 1010 z "},"Ṋ":{"ha":1021,"x_min":88,"x_max":933,"o":"m 933 1010 l 933 0 l 748 0 l 309 636 l 301 636 l 301 0 l 88 0 l 88 1010 l 275 1010 l 711 375 l 720 375 l 720 1010 l 933 1010 z "},"Ɲ":{"ha":1045,"x_min":-36,"x_max":956,"o":"m 956 1010 l 956 0 l 772 0 l 332 636 l 325 636 l 325 -46 q 286 -195 325 -144 q 187 -265 248 -247 q 62 -284 127 -284 q 13 -283 43 -284 q -36 -279 -17 -283 l -36 -118 q -18 -120 -28 -120 q 0 -120 -8 -120 q 7 -120 5 -120 q 80 -105 48 -120 q 111 -46 111 -90 l 111 1010 l 299 1010 l 735 375 l 744 375 l 744 1010 l 956 1010 z "},"Ŋ":{"ha":1021,"x_min":88,"x_max":933,"o":"m 748 0 l 309 636 l 301 636 l 301 0 l 88 0 l 88 1010 l 275 1010 l 711 375 l 720 375 l 720 1010 l 933 1010 l 933 -40 q 896 -193 933 -137 q 792 -275 859 -250 q 636 -299 725 -299 q 597 -297 618 -299 q 559 -289 577 -294 l 559 -130 q 632 -138 591 -138 q 716 -115 684 -138 q 748 -43 748 -92 l 748 0 z "},"И":{"ha":1021,"x_min":88,"x_max":933,"o":"m 88 1010 l 88 0 l 273 0 l 712 636 l 720 636 l 720 0 l 933 0 l 933 1010 l 746 1010 l 310 375 l 301 375 l 301 1010 l 88 1010 z "},"Ѝ":{"ha":1021,"x_min":88,"x_max":933,"o":"m 88 1010 l 88 0 l 273 0 l 712 636 l 720 636 l 720 0 l 933 0 l 933 1010 l 746 1010 l 310 375 l 301 375 l 301 1010 l 88 1010 m 437 1108 l 287 1332 l 480 1332 l 585 1108 l 437 1108 z "},"Й":{"ha":1021,"x_min":88,"x_max":933,"o":"m 88 1010 l 88 0 l 273 0 l 712 636 l 720 636 l 720 0 l 933 0 l 933 1010 l 746 1010 l 310 375 l 301 375 l 301 1010 l 88 1010 m 608 1274 l 754 1274 q 688 1130 754 1185 q 510 1075 622 1075 q 332 1130 398 1075 q 266 1274 266 1185 l 412 1274 q 434 1213 411 1240 q 510 1186 456 1186 q 585 1213 563 1186 q 608 1274 608 1240 z "},"Ӣ":{"ha":1021,"x_min":88,"x_max":933,"o":"m 88 1010 l 88 0 l 273 0 l 712 636 l 720 636 l 720 0 l 933 0 l 933 1010 l 746 1010 l 310 375 l 301 375 l 301 1010 l 88 1010 m 750 1263 l 750 1149 l 269 1149 l 269 1263 l 750 1263 z "},"Ӥ":{"ha":1021,"x_min":88,"x_max":933,"o":"m 88 1010 l 88 0 l 273 0 l 712 636 l 720 636 l 720 0 l 933 0 l 933 1010 l 746 1010 l 310 375 l 301 375 l 301 1010 l 88 1010 z "},"Ҋ":{"ha":1021,"x_min":88,"x_max":1097,"o":"m 88 1010 l 88 0 l 273 0 l 712 636 l 720 636 l 720 0 l 933 0 l 933 1010 l 746 1010 l 310 375 l 301 375 l 301 1010 l 88 1010 m 608 1274 l 754 1274 q 688 1130 754 1185 q 510 1075 622 1075 q 332 1130 398 1075 q 266 1274 266 1185 l 412 1274 q 434 1213 411 1240 q 510 1186 456 1186 q 585 1213 563 1186 q 608 1274 608 1240 m 1097 115 l 1097 -3 q 1062 -161 1097 -84 q 970 -289 1026 -237 l 858 -240 q 865 -226 862 -233 q 872 -212 869 -219 q 911 -126 893 -172 q 929 -15 930 -80 l 929 115 l 1097 115 z "},"Ͷ":{"ha":1076,"x_min":115,"x_max":960,"o":"m 115 1010 l 115 0 l 300 0 l 739 636 l 747 636 l 747 0 l 960 0 l 960 1010 l 773 1010 l 337 375 l 328 375 l 328 1010 l 115 1010 z "},"Ν":{"ha":1021,"x_min":88,"x_max":933,"o":"m 933 1010 l 933 0 l 748 0 l 309 636 l 301 636 l 301 0 l 88 0 l 88 1010 l 275 1010 l 711 375 l 720 375 l 720 1010 l 933 1010 z "},"ǋ":{"ha":1362,"x_min":88,"x_max":1287,"o":"m 933 1010 l 933 0 l 748 0 l 309 636 l 301 636 l 301 0 l 88 0 l 88 1010 l 275 1010 l 711 375 l 720 375 l 720 1010 l 933 1010 z "},"O":{"ha":1086,"x_min":70,"x_max":1016,"o":"m 1016 505 q 954 224 1016 340 q 784 47 891 108 q 543 -14 677 -14 q 301 47 408 -14 q 132 225 194 109 q 70 505 70 341 q 132 786 70 670 q 301 963 194 902 q 543 1024 408 1024 q 784 963 677 1024 q 954 786 891 902 q 1016 505 1016 670 m 799 505 q 729 750 799 666 q 543 835 659 835 q 357 750 427 835 q 287 505 287 666 q 357 260 287 345 q 543 175 427 175 q 729 260 659 175 q 799 505 799 345 z "},"Ö":{"ha":1086,"x_min":70,"x_max":1016,"o":"m 1016 505 q 954 224 1016 340 q 784 47 891 108 q 543 -14 677 -14 q 301 47 408 -14 q 132 225 194 109 q 70 505 70 341 q 132 786 70 670 q 301 963 194 902 q 543 1024 408 1024 q 784 963 677 1024 q 954 786 891 902 q 1016 505 1016 670 m 799 505 q 729 750 799 666 q 543 835 659 835 q 357 750 427 835 q 287 505 287 666 q 357 260 287 345 q 543 175 427 175 q 729 260 659 175 q 799 505 799 345 z "},"Õ":{"ha":1086,"x_min":70,"x_max":1016,"o":"m 1016 505 q 954 224 1016 340 q 784 47 891 108 q 543 -14 677 -14 q 301 47 408 -14 q 132 225 194 109 q 70 505 70 341 q 132 786 70 670 q 301 963 194 902 q 543 1024 408 1024 q 784 963 677 1024 q 954 786 891 902 q 1016 505 1016 670 m 799 505 q 729 750 799 666 q 543 835 659 835 q 357 750 427 835 q 287 505 287 666 q 357 260 287 345 q 543 175 427 175 q 729 260 659 175 q 799 505 799 345 z "},"Ø":{"ha":1086,"x_min":70,"x_max":1016,"o":"m 228 -48 l 132 17 l 206 122 q 106 285 142 189 q 70 505 70 382 q 132 786 70 670 q 301 963 194 902 q 543 1024 408 1024 q 789 960 681 1024 l 856 1056 l 952 991 l 880 888 q 980 725 944 822 q 1016 505 1016 629 q 954 224 1016 340 q 784 47 891 108 q 543 -14 677 -14 q 297 50 405 -14 l 228 -48 m 799 505 q 756 710 799 628 l 409 212 q 543 175 466 175 q 729 260 659 175 q 799 505 799 345 m 330 301 l 676 799 q 543 835 619 835 q 357 750 427 835 q 287 505 287 666 q 330 301 287 382 z "},"Ơ":{"ha":1129,"x_min":70,"x_max":1112,"o":"m 977 1059 l 1112 1059 q 1075 875 1112 948 q 959 773 1038 802 q 1001 650 986 718 q 1016 505 1016 583 q 954 224 1016 340 q 784 47 891 108 q 543 -14 677 -14 q 301 47 408 -14 q 132 225 194 109 q 70 505 70 341 q 132 786 70 670 q 301 963 194 902 q 543 1024 408 1024 q 740 985 650 1024 q 895 872 831 946 q 959 935 941 886 q 977 1059 977 983 m 799 505 q 729 750 799 666 q 543 835 659 835 q 357 750 427 835 q 287 505 287 666 q 357 260 287 345 q 543 175 427 175 q 729 260 659 175 q 799 505 799 345 z "},"Ò":{"ha":1086,"x_min":70,"x_max":1016,"o":"m 1016 505 q 954 224 1016 340 q 784 47 891 108 q 543 -14 677 -14 q 301 47 408 -14 q 132 225 194 109 q 70 505 70 341 q 132 786 70 670 q 301 963 194 902 q 543 1024 408 1024 q 784 963 677 1024 q 954 786 891 902 q 1016 505 1016 670 m 799 505 q 729 750 799 666 q 543 835 659 835 q 357 750 427 835 q 287 505 287 666 q 357 260 287 345 q 543 175 427 175 q 729 260 659 175 q 799 505 799 345 m 470 1108 l 320 1332 l 513 1332 l 618 1108 l 470 1108 z "},"Ó":{"ha":1086,"x_min":70,"x_max":1016,"o":"m 1016 505 q 954 224 1016 340 q 784 47 891 108 q 543 -14 677 -14 q 301 47 408 -14 q 132 225 194 109 q 70 505 70 341 q 132 786 70 670 q 301 963 194 902 q 543 1024 408 1024 q 784 963 677 1024 q 954 786 891 902 q 1016 505 1016 670 m 799 505 q 729 750 799 666 q 543 835 659 835 q 357 750 427 835 q 287 505 287 666 q 357 260 287 345 q 543 175 427 175 q 729 260 659 175 q 799 505 799 345 m 468 1108 l 572 1332 l 766 1332 l 616 1108 l 468 1108 z "},"Ô":{"ha":1086,"x_min":70,"x_max":1016,"o":"m 1016 505 q 954 224 1016 340 q 784 47 891 108 q 543 -14 677 -14 q 301 47 408 -14 q 132 225 194 109 q 70 505 70 341 q 132 786 70 670 q 301 963 194 902 q 543 1024 408 1024 q 784 963 677 1024 q 954 786 891 902 q 1016 505 1016 670 m 799 505 q 729 750 799 666 q 543 835 659 835 q 357 750 427 835 q 287 505 287 666 q 357 260 287 345 q 543 175 427 175 q 729 260 659 175 q 799 505 799 345 z "},"Ō":{"ha":1086,"x_min":70,"x_max":1016,"o":"m 1016 505 q 954 224 1016 340 q 784 47 891 108 q 543 -14 677 -14 q 301 47 408 -14 q 132 225 194 109 q 70 505 70 341 q 132 786 70 670 q 301 963 194 902 q 543 1024 408 1024 q 784 963 677 1024 q 954 786 891 902 q 1016 505 1016 670 m 799 505 q 729 750 799 666 q 543 835 659 835 q 357 750 427 835 q 287 505 287 666 q 357 260 287 345 q 543 175 427 175 q 729 260 659 175 q 799 505 799 345 m 783 1263 l 783 1149 l 303 1149 l 303 1263 l 783 1263 z "},"Ŏ":{"ha":1086,"x_min":70,"x_max":1016,"o":"m 1016 505 q 954 224 1016 340 q 784 47 891 108 q 543 -14 677 -14 q 301 47 408 -14 q 132 225 194 109 q 70 505 70 341 q 132 786 70 670 q 301 963 194 902 q 543 1024 408 1024 q 784 963 677 1024 q 954 786 891 902 q 1016 505 1016 670 m 799 505 q 729 750 799 666 q 543 835 659 835 q 357 750 427 835 q 287 505 287 666 q 357 260 287 345 q 543 175 427 175 q 729 260 659 175 q 799 505 799 345 m 641 1274 l 787 1274 q 721 1130 787 1185 q 543 1075 655 1075 q 365 1130 431 1075 q 299 1274 299 1185 l 445 1274 q 467 1213 444 1240 q 543 1186 489 1186 q 618 1213 596 1186 q 641 1274 641 1240 z "},"Ő":{"ha":1086,"x_min":70,"x_max":1016,"o":"m 1016 505 q 954 224 1016 340 q 784 47 891 108 q 543 -14 677 -14 q 301 47 408 -14 q 132 225 194 109 q 70 505 70 341 q 132 786 70 670 q 301 963 194 902 q 543 1024 408 1024 q 784 963 677 1024 q 954 786 891 902 q 1016 505 1016 670 m 799 505 q 729 750 799 666 q 543 835 659 835 q 357 750 427 835 q 287 505 287 666 q 357 260 287 345 q 543 175 427 175 q 729 260 659 175 q 799 505 799 345 m 580 1098 l 736 1302 l 914 1302 l 728 1098 l 580 1098 m 327 1098 l 459 1302 l 635 1302 l 474 1098 l 327 1098 z "},"Ǒ":{"ha":1086,"x_min":70,"x_max":1016,"o":"m 1016 505 q 954 224 1016 340 q 784 47 891 108 q 543 -14 677 -14 q 301 47 408 -14 q 132 225 194 109 q 70 505 70 341 q 132 786 70 670 q 301 963 194 902 q 543 1024 408 1024 q 784 963 677 1024 q 954 786 891 902 q 1016 505 1016 670 m 799 505 q 729 750 799 666 q 543 835 659 835 q 357 750 427 835 q 287 505 287 666 q 357 260 287 345 q 543 175 427 175 q 729 260 659 175 q 799 505 799 345 m 444 1325 l 543 1204 l 642 1325 l 821 1325 l 821 1318 l 621 1101 l 465 1101 l 265 1318 l 265 1325 l 444 1325 z "},"Ǫ":{"ha":1086,"x_min":70,"x_max":1016,"o":"m 1016 505 q 954 224 1016 340 q 784 47 891 108 q 543 -14 677 -14 q 301 47 408 -14 q 132 225 194 109 q 70 505 70 341 q 132 786 70 670 q 301 963 194 902 q 543 1024 408 1024 q 784 963 677 1024 q 954 786 891 902 q 1016 505 1016 670 m 799 505 q 729 750 799 666 q 543 835 659 835 q 357 750 427 835 q 287 505 287 666 q 357 260 287 345 q 543 175 427 175 q 729 260 659 175 q 799 505 799 345 m 570 -282 q 460 -248 504 -282 q 404 -152 416 -215 q 418 -32 393 -92 q 509 58 444 29 l 666 1 q 590 -46 619 -21 q 561 -107 560 -71 q 609 -156 560 -156 q 638 -152 625 -156 q 660 -144 651 -147 l 682 -253 q 636 -273 664 -263 q 570 -282 608 -282 z "},"Ǭ":{"ha":1086,"x_min":70,"x_max":1016,"o":"m 1016 505 q 954 224 1016 340 q 784 47 891 108 q 543 -14 677 -14 q 301 47 408 -14 q 132 225 194 109 q 70 505 70 341 q 132 786 70 670 q 301 963 194 902 q 543 1024 408 1024 q 784 963 677 1024 q 954 786 891 902 q 1016 505 1016 670 m 799 505 q 729 750 799 666 q 543 835 659 835 q 357 750 427 835 q 287 505 287 666 q 357 260 287 345 q 543 175 427 175 q 729 260 659 175 q 799 505 799 345 m 570 -282 q 460 -248 504 -282 q 404 -152 416 -215 q 418 -32 393 -92 q 509 58 444 29 l 666 1 q 590 -46 619 -21 q 561 -107 560 -71 q 609 -156 560 -156 q 638 -152 625 -156 q 660 -144 651 -147 l 682 -253 q 636 -273 664 -263 q 570 -282 608 -282 m 783 1263 l 783 1149 l 303 1149 l 303 1263 l 783 1263 z "},"Ȍ":{"ha":1086,"x_min":70,"x_max":1016,"o":"m 1016 505 q 954 224 1016 340 q 784 47 891 108 q 543 -14 677 -14 q 301 47 408 -14 q 132 225 194 109 q 70 505 70 341 q 132 786 70 670 q 301 963 194 902 q 543 1024 408 1024 q 784 963 677 1024 q 954 786 891 902 q 1016 505 1016 670 m 799 505 q 729 750 799 666 q 543 835 659 835 q 357 750 427 835 q 287 505 287 666 q 357 260 287 345 q 543 175 427 175 q 729 260 659 175 q 799 505 799 345 m 461 1108 l 289 1199 l 257 1332 l 445 1240 l 461 1108 m 702 1108 l 549 1199 l 551 1332 l 713 1240 l 702 1108 z "},"Ȏ":{"ha":1086,"x_min":70,"x_max":1016,"o":"m 1016 505 q 954 224 1016 340 q 784 47 891 108 q 543 -14 677 -14 q 301 47 408 -14 q 132 225 194 109 q 70 505 70 341 q 132 786 70 670 q 301 963 194 902 q 543 1024 408 1024 q 784 963 677 1024 q 954 786 891 902 q 1016 505 1016 670 m 799 505 q 729 750 799 666 q 543 835 659 835 q 357 750 427 835 q 287 505 287 666 q 357 260 287 345 q 543 175 427 175 q 729 260 659 175 q 799 505 799 345 m 297 1132 q 363 1279 297 1222 q 542 1337 429 1337 q 720 1279 654 1337 q 786 1132 786 1222 l 640 1132 q 617 1193 639 1166 q 542 1220 594 1220 q 466 1193 488 1220 q 444 1132 443 1166 l 297 1132 z "},"Ȫ":{"ha":1086,"x_min":70,"x_max":1016,"o":"m 1016 505 q 954 224 1016 340 q 784 47 891 108 q 543 -14 677 -14 q 301 47 408 -14 q 132 225 194 109 q 70 505 70 341 q 132 786 70 670 q 301 963 194 902 q 543 1024 408 1024 q 784 963 677 1024 q 954 786 891 902 q 1016 505 1016 670 m 799 505 q 729 750 799 666 q 543 835 659 835 q 357 750 427 835 q 287 505 287 666 q 357 260 287 345 q 543 175 427 175 q 729 260 659 175 q 799 505 799 345 z "},"Ȭ":{"ha":1086,"x_min":70,"x_max":1016,"o":"m 1016 505 q 954 224 1016 340 q 784 47 891 108 q 543 -14 677 -14 q 301 47 408 -14 q 132 225 194 109 q 70 505 70 341 q 132 786 70 670 q 301 963 194 902 q 543 1024 408 1024 q 784 963 677 1024 q 954 786 891 902 q 1016 505 1016 670 m 799 505 q 729 750 799 666 q 543 835 659 835 q 357 750 427 835 q 287 505 287 666 q 357 260 287 345 q 543 175 427 175 q 729 260 659 175 q 799 505 799 345 m 784 1449 l 784 1334 l 302 1334 l 302 1449 l 784 1449 m 663 1268 l 749 1244 q 716 1158 749 1196 q 633 1121 684 1121 q 571 1132 596 1121 q 523 1155 545 1144 q 470 1166 500 1166 q 437 1149 451 1166 q 424 1108 424 1131 l 339 1131 q 370 1218 339 1180 q 452 1256 402 1256 q 509 1245 482 1256 q 561 1222 535 1234 q 616 1211 587 1211 q 648 1227 634 1211 q 663 1268 662 1244 z "},"Ȯ":{"ha":1086,"x_min":70,"x_max":1016,"o":"m 1016 505 q 954 224 1016 340 q 784 47 891 108 q 543 -14 677 -14 q 301 47 408 -14 q 132 225 194 109 q 70 505 70 341 q 132 786 70 670 q 301 963 194 902 q 543 1024 408 1024 q 784 963 677 1024 q 954 786 891 902 q 1016 505 1016 670 m 799 505 q 729 750 799 666 q 543 835 659 835 q 357 750 427 835 q 287 505 287 666 q 357 260 287 345 q 543 175 427 175 q 729 260 659 175 q 799 505 799 345 m 543 1108 q 463 1139 496 1108 q 429 1214 429 1170 q 463 1289 429 1258 q 543 1320 496 1320 q 623 1289 589 1320 q 656 1214 656 1258 q 623 1139 656 1170 q 543 1108 589 1108 z "},"Ȱ":{"ha":1086,"x_min":70,"x_max":1016,"o":"m 1016 505 q 954 224 1016 340 q 784 47 891 108 q 543 -14 677 -14 q 301 47 408 -14 q 132 225 194 109 q 70 505 70 341 q 132 786 70 670 q 301 963 194 902 q 543 1024 408 1024 q 784 963 677 1024 q 954 786 891 902 q 1016 505 1016 670 m 799 505 q 729 750 799 666 q 543 835 659 835 q 357 750 427 835 q 287 505 287 666 q 357 260 287 345 q 543 175 427 175 q 729 260 659 175 q 799 505 799 345 z "},"Ṍ":{"ha":1086,"x_min":70,"x_max":1016,"o":"m 1016 505 q 954 224 1016 340 q 784 47 891 108 q 543 -14 677 -14 q 301 47 408 -14 q 132 225 194 109 q 70 505 70 341 q 132 786 70 670 q 301 963 194 902 q 543 1024 408 1024 q 784 963 677 1024 q 954 786 891 902 q 1016 505 1016 670 m 799 505 q 729 750 799 666 q 543 835 659 835 q 357 750 427 835 q 287 505 287 666 q 357 260 287 345 q 543 175 427 175 q 729 260 659 175 q 799 505 799 345 m 407 1095 l 295 1097 q 340 1231 295 1184 q 449 1279 384 1278 q 511 1266 486 1279 q 558 1238 537 1253 q 590 1218 575 1227 q 624 1210 606 1210 q 665 1230 651 1210 q 680 1281 680 1249 l 791 1278 q 745 1144 790 1191 q 637 1096 701 1097 q 572 1109 597 1096 q 526 1137 546 1123 q 496 1157 511 1148 q 462 1165 481 1165 q 422 1146 437 1165 q 407 1095 407 1127 m 452 1330 l 588 1504 l 776 1504 l 603 1330 l 452 1330 z "},"Ṏ":{"ha":1086,"x_min":70,"x_max":1016,"o":"m 1016 505 q 954 224 1016 340 q 784 47 891 108 q 543 -14 677 -14 q 301 47 408 -14 q 132 225 194 109 q 70 505 70 341 q 132 786 70 670 q 301 963 194 902 q 543 1024 408 1024 q 784 963 677 1024 q 954 786 891 902 q 1016 505 1016 670 m 799 505 q 729 750 799 666 q 543 835 659 835 q 357 750 427 835 q 287 505 287 666 q 357 260 287 345 q 543 175 427 175 q 729 260 659 175 q 799 505 799 345 m 661 1256 l 748 1232 q 715 1146 747 1183 q 633 1109 683 1109 q 571 1121 596 1109 q 523 1143 545 1132 q 470 1155 500 1155 q 437 1137 450 1155 q 424 1096 424 1120 l 339 1120 q 370 1206 339 1168 q 452 1244 401 1244 q 508 1233 482 1244 q 561 1210 535 1222 q 616 1199 587 1199 q 648 1216 634 1199 q 661 1256 661 1233 m 598 1377 q 624 1435 597 1411 q 693 1458 650 1458 q 762 1435 735 1458 q 788 1378 788 1411 q 762 1321 788 1344 q 693 1298 736 1298 q 624 1320 650 1298 q 598 1377 597 1343 m 297 1378 q 322 1435 296 1411 q 391 1458 348 1458 q 460 1435 433 1458 q 487 1378 487 1412 q 460 1321 487 1344 q 391 1299 434 1299 q 323 1321 349 1299 q 297 1378 296 1344 z "},"Ṑ":{"ha":1086,"x_min":70,"x_max":1016,"o":"m 1016 505 q 954 224 1016 340 q 784 47 891 108 q 543 -14 677 -14 q 301 47 408 -14 q 132 225 194 109 q 70 505 70 341 q 132 786 70 670 q 301 963 194 902 q 543 1024 408 1024 q 784 963 677 1024 q 954 786 891 902 q 1016 505 1016 670 m 799 505 q 729 750 799 666 q 543 835 659 835 q 357 750 427 835 q 287 505 287 666 q 357 260 287 345 q 543 175 427 175 q 729 260 659 175 q 799 505 799 345 m 783 1240 l 783 1126 l 303 1126 l 303 1240 l 783 1240 m 473 1323 l 304 1497 l 494 1497 l 631 1323 l 473 1323 z "},"Ṓ":{"ha":1086,"x_min":70,"x_max":1016,"o":"m 1016 505 q 954 224 1016 340 q 784 47 891 108 q 543 -14 677 -14 q 301 47 408 -14 q 132 225 194 109 q 70 505 70 341 q 132 786 70 670 q 301 963 194 902 q 543 1024 408 1024 q 784 963 677 1024 q 954 786 891 902 q 1016 505 1016 670 m 799 505 q 729 750 799 666 q 543 835 659 835 q 357 750 427 835 q 287 505 287 666 q 357 260 287 345 q 543 175 427 175 q 729 260 659 175 q 799 505 799 345 m 783 1240 l 783 1126 l 303 1126 l 303 1240 l 783 1240 m 455 1323 l 593 1497 l 783 1497 l 613 1323 l 455 1323 z "},"Ọ":{"ha":1086,"x_min":70,"x_max":1016,"o":"m 1016 505 q 954 224 1016 340 q 784 47 891 108 q 543 -14 677 -14 q 301 47 408 -14 q 132 225 194 109 q 70 505 70 341 q 132 786 70 670 q 301 963 194 902 q 543 1024 408 1024 q 784 963 677 1024 q 954 786 891 902 q 1016 505 1016 670 m 799 505 q 729 750 799 666 q 543 835 659 835 q 357 750 427 835 q 287 505 287 666 q 357 260 287 345 q 543 175 427 175 q 729 260 659 175 q 799 505 799 345 z "},"Ỏ":{"ha":1086,"x_min":70,"x_max":1016,"o":"m 1016 505 q 954 224 1016 340 q 784 47 891 108 q 543 -14 677 -14 q 301 47 408 -14 q 132 225 194 109 q 70 505 70 341 q 132 786 70 670 q 301 963 194 902 q 543 1024 408 1024 q 784 963 677 1024 q 954 786 891 902 q 1016 505 1016 670 m 799 505 q 729 750 799 666 q 543 835 659 835 q 357 750 427 835 q 287 505 287 666 q 357 260 287 345 q 543 175 427 175 q 729 260 659 175 q 799 505 799 345 m 620 1119 l 465 1119 l 454 1207 q 528 1221 506 1210 q 550 1252 550 1233 q 522 1288 550 1279 q 451 1298 494 1298 l 457 1393 q 657 1357 588 1393 q 726 1259 726 1322 q 693 1191 726 1214 q 620 1162 660 1168 l 620 1119 z "},"Ố":{"ha":1086,"x_min":70,"x_max":1024,"o":"m 1016 505 q 954 224 1016 340 q 784 47 891 108 q 543 -14 677 -14 q 301 47 408 -14 q 132 225 194 109 q 70 505 70 341 q 132 786 70 670 q 301 963 194 902 q 543 1024 408 1024 q 784 963 677 1024 q 954 786 891 902 q 1016 505 1016 670 m 799 505 q 729 750 799 666 q 543 835 659 835 q 357 750 427 835 q 287 505 287 666 q 357 260 287 345 q 543 175 427 175 q 729 260 659 175 q 799 505 799 345 m 286 1093 l 485 1246 l 598 1246 l 798 1093 l 647 1093 l 543 1176 l 437 1093 l 286 1093 m 746 1180 l 862 1365 l 1024 1365 l 865 1180 l 746 1180 z "},"Ồ":{"ha":1086,"x_min":61,"x_max":1016,"o":"m 1016 505 q 954 224 1016 340 q 784 47 891 108 q 543 -14 677 -14 q 301 47 408 -14 q 132 225 194 109 q 70 505 70 341 q 132 786 70 670 q 301 963 194 902 q 543 1024 408 1024 q 784 963 677 1024 q 954 786 891 902 q 1016 505 1016 670 m 799 505 q 729 750 799 666 q 543 835 659 835 q 357 750 427 835 q 287 505 287 666 q 357 260 287 345 q 543 175 427 175 q 729 260 659 175 q 799 505 799 345 m 598 1243 l 799 1090 l 647 1090 l 543 1173 l 437 1090 l 287 1090 l 485 1243 l 598 1243 m 222 1361 l 338 1177 l 221 1177 l 61 1361 l 222 1361 z "},"Ổ":{"ha":1086,"x_min":70,"x_max":1016,"o":"m 1016 505 q 954 224 1016 340 q 784 47 891 108 q 543 -14 677 -14 q 301 47 408 -14 q 132 225 194 109 q 70 505 70 341 q 132 786 70 670 q 301 963 194 902 q 543 1024 408 1024 q 784 963 677 1024 q 954 786 891 902 q 1016 505 1016 670 m 799 505 q 729 750 799 666 q 543 835 659 835 q 357 750 427 835 q 287 505 287 666 q 357 260 287 345 q 543 175 427 175 q 729 260 659 175 q 799 505 799 345 m 602 1241 l 796 1088 l 652 1088 l 542 1174 l 431 1088 l 287 1088 l 481 1241 l 602 1241 m 841 1174 l 732 1174 l 723 1248 q 803 1285 803 1252 q 780 1315 803 1308 q 719 1323 756 1323 l 724 1403 q 877 1373 824 1403 q 930 1291 930 1344 q 902 1234 930 1254 q 841 1209 874 1215 l 841 1174 z "},"Ỗ":{"ha":1086,"x_min":70,"x_max":1016,"o":"m 1016 505 q 954 224 1016 340 q 784 47 891 108 q 543 -14 677 -14 q 301 47 408 -14 q 132 225 194 109 q 70 505 70 341 q 132 786 70 670 q 301 963 194 902 q 543 1024 408 1024 q 784 963 677 1024 q 954 786 891 902 q 1016 505 1016 670 m 799 505 q 729 750 799 666 q 543 835 659 835 q 357 750 427 835 q 287 505 287 666 q 357 260 287 345 q 543 175 427 175 q 729 260 659 175 q 799 505 799 345 m 599 1237 l 798 1086 l 653 1086 l 542 1168 l 434 1086 l 287 1086 l 487 1237 l 599 1237 m 651 1405 l 724 1380 q 698 1306 723 1340 q 630 1273 672 1273 q 575 1284 599 1273 q 528 1306 550 1295 q 482 1316 507 1316 q 455 1302 465 1316 q 446 1270 446 1288 l 375 1289 q 400 1361 375 1327 q 468 1394 425 1394 q 518 1384 493 1394 q 567 1363 543 1374 q 616 1352 592 1352 q 640 1369 631 1352 q 651 1405 650 1386 z "},"Ộ":{"ha":1086,"x_min":70,"x_max":1016,"o":"m 1016 505 q 954 224 1016 340 q 784 47 891 108 q 543 -14 677 -14 q 301 47 408 -14 q 132 225 194 109 q 70 505 70 341 q 132 786 70 670 q 301 963 194 902 q 543 1024 408 1024 q 784 963 677 1024 q 954 786 891 902 q 1016 505 1016 670 m 799 505 q 729 750 799 666 q 543 835 659 835 q 357 750 427 835 q 287 505 287 666 q 357 260 287 345 q 543 175 427 175 q 729 260 659 175 q 799 505 799 345 z "},"Ớ":{"ha":1129,"x_min":70,"x_max":1112,"o":"m 977 1059 l 1112 1059 q 1075 875 1112 948 q 959 773 1038 802 q 1001 650 986 718 q 1016 505 1016 583 q 954 224 1016 340 q 784 47 891 108 q 543 -14 677 -14 q 301 47 408 -14 q 132 225 194 109 q 70 505 70 341 q 132 786 70 670 q 301 963 194 902 q 543 1024 408 1024 q 740 985 650 1024 q 895 872 831 946 q 959 935 941 886 q 977 1059 977 983 m 799 505 q 729 750 799 666 q 543 835 659 835 q 357 750 427 835 q 287 505 287 666 q 357 260 287 345 q 543 175 427 175 q 729 260 659 175 q 799 505 799 345 m 468 1108 l 572 1332 l 766 1332 l 616 1108 l 468 1108 z "},"Ờ":{"ha":1129,"x_min":70,"x_max":1112,"o":"m 977 1059 l 1112 1059 q 1075 875 1112 948 q 959 773 1038 802 q 1001 650 986 718 q 1016 505 1016 583 q 954 224 1016 340 q 784 47 891 108 q 543 -14 677 -14 q 301 47 408 -14 q 132 225 194 109 q 70 505 70 341 q 132 786 70 670 q 301 963 194 902 q 543 1024 408 1024 q 740 985 650 1024 q 895 872 831 946 q 959 935 941 886 q 977 1059 977 983 m 799 505 q 729 750 799 666 q 543 835 659 835 q 357 750 427 835 q 287 505 287 666 q 357 260 287 345 q 543 175 427 175 q 729 260 659 175 q 799 505 799 345 m 470 1108 l 320 1332 l 513 1332 l 618 1108 l 470 1108 z "},"Ở":{"ha":1129,"x_min":70,"x_max":1112,"o":"m 977 1059 l 1112 1059 q 1075 875 1112 948 q 959 773 1038 802 q 1001 650 986 718 q 1016 505 1016 583 q 954 224 1016 340 q 784 47 891 108 q 543 -14 677 -14 q 301 47 408 -14 q 132 225 194 109 q 70 505 70 341 q 132 786 70 670 q 301 963 194 902 q 543 1024 408 1024 q 740 985 650 1024 q 895 872 831 946 q 959 935 941 886 q 977 1059 977 983 m 799 505 q 729 750 799 666 q 543 835 659 835 q 357 750 427 835 q 287 505 287 666 q 357 260 287 345 q 543 175 427 175 q 729 260 659 175 q 799 505 799 345 m 620 1119 l 465 1119 l 454 1207 q 528 1221 506 1210 q 550 1252 550 1233 q 522 1288 550 1279 q 451 1298 494 1298 l 457 1393 q 657 1357 588 1393 q 726 1259 726 1322 q 693 1191 726 1214 q 620 1162 660 1168 l 620 1119 z "},"Ỡ":{"ha":1129,"x_min":70,"x_max":1112,"o":"m 977 1059 l 1112 1059 q 1075 875 1112 948 q 959 773 1038 802 q 1001 650 986 718 q 1016 505 1016 583 q 954 224 1016 340 q 784 47 891 108 q 543 -14 677 -14 q 301 47 408 -14 q 132 225 194 109 q 70 505 70 341 q 132 786 70 670 q 301 963 194 902 q 543 1024 408 1024 q 740 985 650 1024 q 895 872 831 946 q 959 935 941 886 q 977 1059 977 983 m 799 505 q 729 750 799 666 q 543 835 659 835 q 357 750 427 835 q 287 505 287 666 q 357 260 287 345 q 543 175 427 175 q 729 260 659 175 q 799 505 799 345 m 402 1103 l 285 1105 q 332 1249 285 1199 q 445 1300 378 1300 q 510 1286 484 1300 q 559 1257 537 1272 q 593 1235 577 1244 q 627 1226 609 1226 q 671 1248 656 1227 q 686 1303 686 1269 l 801 1299 q 754 1155 800 1205 q 641 1104 708 1105 q 573 1118 599 1104 q 526 1148 547 1132 q 494 1169 510 1160 q 459 1178 478 1178 q 418 1158 433 1178 q 402 1103 402 1138 z "},"Ợ":{"ha":1129,"x_min":70,"x_max":1112,"o":"m 977 1059 l 1112 1059 q 1075 875 1112 948 q 959 773 1038 802 q 1001 650 986 718 q 1016 505 1016 583 q 954 224 1016 340 q 784 47 891 108 q 543 -14 677 -14 q 301 47 408 -14 q 132 225 194 109 q 70 505 70 341 q 132 786 70 670 q 301 963 194 902 q 543 1024 408 1024 q 740 985 650 1024 q 895 872 831 946 q 959 935 941 886 q 977 1059 977 983 m 799 505 q 729 750 799 666 q 543 835 659 835 q 357 750 427 835 q 287 505 287 666 q 357 260 287 345 q 543 175 427 175 q 729 260 659 175 q 799 505 799 345 z "},"Ǿ":{"ha":1086,"x_min":70,"x_max":1016,"o":"m 228 -48 l 132 17 l 206 122 q 106 285 142 189 q 70 505 70 382 q 132 786 70 670 q 301 963 194 902 q 543 1024 408 1024 q 789 960 681 1024 l 856 1056 l 952 991 l 880 888 q 980 725 944 822 q 1016 505 1016 629 q 954 224 1016 340 q 784 47 891 108 q 543 -14 677 -14 q 297 50 405 -14 l 228 -48 m 799 505 q 756 710 799 628 l 409 212 q 543 175 466 175 q 729 260 659 175 q 799 505 799 345 m 330 301 l 676 799 q 543 835 619 835 q 357 750 427 835 q 287 505 287 666 q 330 301 287 382 m 468 1108 l 572 1332 l 766 1332 l 616 1108 l 468 1108 z "},"Ο":{"ha":1086,"x_min":70,"x_max":1016,"o":"m 1016 505 q 954 224 1016 340 q 784 47 891 108 q 543 -14 677 -14 q 301 47 408 -14 q 132 225 194 109 q 70 505 70 341 q 132 786 70 670 q 301 963 194 902 q 543 1024 408 1024 q 784 963 677 1024 q 954 786 891 902 q 1016 505 1016 670 m 799 505 q 729 750 799 666 q 543 835 659 835 q 357 750 427 835 q 287 505 287 666 q 357 260 287 345 q 543 175 427 175 q 729 260 659 175 q 799 505 799 345 z "},"Ό":{"ha":1117,"x_min":-15,"x_max":1082,"o":"m 1082 505 q 1019 224 1082 340 q 850 47 957 108 q 609 -14 743 -14 q 367 47 474 -14 q 198 225 260 109 q 136 505 136 341 q 198 786 136 670 q 367 963 260 902 q 609 1024 474 1024 q 850 963 743 1024 q 1019 786 957 902 q 1082 505 1082 670 m 865 505 q 795 750 865 666 q 609 835 725 835 q 422 750 492 835 q 352 505 352 666 q 422 260 352 345 q 609 175 492 175 q 795 260 725 175 q 865 505 865 345 z "},"Ὀ":{"ha":1136,"x_min":-14,"x_max":1100,"o":"m 1100 505 q 1038 224 1100 340 q 869 47 976 108 q 627 -14 762 -14 q 386 47 493 -14 q 217 225 279 109 q 154 505 154 341 q 217 786 154 670 q 386 963 279 902 q 627 1024 493 1024 q 869 963 762 1024 q 1038 786 976 902 q 1100 505 1100 670 m 884 505 q 814 750 884 666 q 627 835 744 835 q 441 750 511 835 q 371 505 371 666 q 441 260 371 345 q 627 175 511 175 q 814 260 744 175 q 884 505 884 345 z "},"Ὁ":{"ha":1182,"x_min":55,"x_max":1147,"o":"m 1147 505 q 1084 224 1147 340 q 915 47 1022 108 q 674 -14 808 -14 q 432 47 539 -14 q 263 225 325 109 q 201 505 201 341 q 263 786 201 670 q 432 963 325 902 q 674 1024 539 1024 q 915 963 808 1024 q 1084 786 1022 902 q 1147 505 1147 670 m 930 505 q 860 750 930 666 q 674 835 790 835 q 487 750 557 835 q 417 505 417 666 q 487 260 417 345 q 674 175 557 175 q 860 260 790 175 q 930 505 930 345 z "},"Ὂ":{"ha":1383,"x_min":-10,"x_max":1348,"o":"m 1348 505 q 1286 224 1348 340 q 1116 47 1223 108 q 875 -14 1009 -14 q 633 47 740 -14 q 464 225 526 109 q 402 505 402 341 q 464 786 402 670 q 633 963 526 902 q 875 1024 740 1024 q 1116 963 1009 1024 q 1286 786 1223 902 q 1348 505 1348 670 m 1131 505 q 1061 750 1131 666 q 875 835 991 835 q 689 750 759 835 q 618 505 618 666 q 689 260 618 345 q 875 175 759 175 q 1061 260 991 175 q 1131 505 1131 345 z "},"Ὃ":{"ha":1335,"x_min":-21,"x_max":1299,"o":"m 1299 505 q 1237 224 1299 340 q 1067 47 1174 108 q 826 -14 960 -14 q 584 47 691 -14 q 415 225 477 109 q 353 505 353 341 q 415 786 353 670 q 584 963 477 902 q 826 1024 691 1024 q 1067 963 960 1024 q 1237 786 1174 902 q 1299 505 1299 670 m 1083 505 q 1013 750 1083 666 q 826 835 943 835 q 640 750 710 835 q 570 505 570 666 q 640 260 570 345 q 826 175 710 175 q 1013 260 943 175 q 1083 505 1083 345 z "},"Ὄ":{"ha":1284,"x_min":-8,"x_max":1249,"o":"m 1249 505 q 1186 224 1249 340 q 1017 47 1124 108 q 776 -14 910 -14 q 534 47 641 -14 q 365 225 427 109 q 303 505 303 341 q 365 786 303 670 q 534 963 427 902 q 776 1024 641 1024 q 1017 963 910 1024 q 1186 786 1124 902 q 1249 505 1249 670 m 1032 505 q 962 750 1032 666 q 776 835 892 835 q 589 750 659 835 q 519 505 519 666 q 589 260 519 345 q 776 175 659 175 q 962 260 892 175 q 1032 505 1032 345 z "},"Ὅ":{"ha":1300,"x_min":-9,"x_max":1265,"o":"m 1265 505 q 1202 224 1265 340 q 1033 47 1140 108 q 792 -14 926 -14 q 550 47 657 -14 q 381 225 443 109 q 319 505 319 341 q 381 786 319 670 q 550 963 443 902 q 792 1024 657 1024 q 1033 963 926 1024 q 1202 786 1140 902 q 1265 505 1265 670 m 1048 505 q 978 750 1048 666 q 792 835 908 835 q 605 750 675 835 q 535 505 535 666 q 605 260 535 345 q 792 175 675 175 q 978 260 908 175 q 1048 505 1048 345 z "},"Ὸ":{"ha":1172,"x_min":-10,"x_max":1137,"o":"m 1137 505 q 1074 224 1137 340 q 905 47 1012 108 q 664 -14 798 -14 q 422 47 529 -14 q 253 225 315 109 q 191 505 191 341 q 253 786 191 670 q 422 963 315 902 q 664 1024 529 1024 q 905 963 798 1024 q 1074 786 1012 902 q 1137 505 1137 670 m 920 505 q 850 750 920 666 q 664 835 780 835 q 477 750 547 835 q 407 505 407 666 q 477 260 407 345 q 664 175 547 175 q 850 260 780 175 q 920 505 920 345 z "},"ϴ":{"ha":1086,"x_min":70,"x_max":1016,"o":"m 1016 505 q 954 224 1016 340 q 784 47 891 108 q 543 -14 677 -14 q 301 47 408 -14 q 132 225 194 109 q 70 505 70 341 q 132 786 70 670 q 301 963 194 902 q 543 1024 408 1024 q 784 963 677 1024 q 954 786 891 902 q 1016 505 1016 670 m 543 175 q 710 239 644 175 q 794 425 777 303 q 692 402 737 404 q 610 409 648 400 q 537 430 573 418 q 429 456 485 446 q 290 442 372 466 q 371 244 303 312 q 543 175 438 175 m 796 569 q 715 767 782 699 q 543 835 647 835 q 376 772 442 835 q 292 587 309 708 q 393 608 349 607 q 475 601 437 610 q 548 581 512 593 q 656 555 599 565 q 796 569 714 545 z "},"Ό":{"ha":1084,"x_min":34,"x_max":1049,"o":"m 1049 505 q 986 224 1049 340 q 817 47 924 108 q 576 -14 710 -14 q 334 47 441 -14 q 165 225 227 109 q 103 505 103 341 q 165 786 103 670 q 334 963 227 902 q 576 1024 441 1024 q 817 963 710 1024 q 986 786 924 902 q 1049 505 1049 670 m 832 505 q 762 750 832 666 q 576 835 692 835 q 389 750 459 835 q 319 505 319 666 q 389 260 319 345 q 576 175 459 175 q 762 260 692 175 q 832 505 832 345 z "},"О":{"ha":1086,"x_min":70,"x_max":1016,"o":"m 1016 505 q 954 224 1016 340 q 784 47 891 108 q 543 -14 677 -14 q 301 47 408 -14 q 132 225 194 109 q 70 505 70 341 q 132 786 70 670 q 301 963 194 902 q 543 1024 408 1024 q 784 963 677 1024 q 954 786 891 902 q 1016 505 1016 670 m 799 505 q 729 750 799 666 q 543 835 659 835 q 357 750 427 835 q 287 505 287 666 q 357 260 287 345 q 543 175 427 175 q 729 260 659 175 q 799 505 799 345 z "},"Ӧ":{"ha":1086,"x_min":70,"x_max":1016,"o":"m 1016 505 q 954 224 1016 340 q 784 47 891 108 q 543 -14 677 -14 q 301 47 408 -14 q 132 225 194 109 q 70 505 70 341 q 132 786 70 670 q 301 963 194 902 q 543 1024 408 1024 q 784 963 677 1024 q 954 786 891 902 q 1016 505 1016 670 m 799 505 q 729 750 799 666 q 543 835 659 835 q 357 750 427 835 q 287 505 287 666 q 357 260 287 345 q 543 175 427 175 q 729 260 659 175 q 799 505 799 345 z "},"Ɵ":{"ha":1086,"x_min":70,"x_max":1016,"o":"m 1016 505 q 954 224 1016 340 q 784 47 891 108 q 543 -14 677 -14 q 301 47 408 -14 q 132 225 194 109 q 70 505 70 341 q 132 786 70 670 q 301 963 194 902 q 543 1024 408 1024 q 784 963 677 1024 q 954 786 891 902 q 1016 505 1016 670 m 543 175 q 710 239 644 175 q 794 425 777 303 q 692 402 737 404 q 610 409 648 400 q 537 430 573 418 q 429 456 485 446 q 290 442 372 466 q 371 244 303 312 q 543 175 438 175 m 796 569 q 715 767 782 699 q 543 835 647 835 q 376 772 442 835 q 292 587 309 708 q 393 608 349 607 q 475 601 437 610 q 548 581 512 593 q 656 555 599 565 q 796 569 714 545 z "},"Ө":{"ha":1086,"x_min":70,"x_max":1016,"o":"m 1016 505 q 954 224 1016 340 q 784 47 891 108 q 543 -14 677 -14 q 301 47 408 -14 q 132 225 194 109 q 70 505 70 341 q 132 786 70 670 q 301 963 194 902 q 543 1024 408 1024 q 784 963 677 1024 q 954 786 891 902 q 1016 505 1016 670 m 543 175 q 710 239 644 175 q 794 425 777 303 q 692 402 737 404 q 610 409 648 400 q 537 430 573 418 q 429 456 485 446 q 290 442 372 466 q 371 244 303 312 q 543 175 438 175 m 796 569 q 715 767 782 699 q 543 835 647 835 q 376 772 442 835 q 292 587 309 708 q 393 608 349 607 q 475 601 437 610 q 548 581 512 593 q 656 555 599 565 q 796 569 714 545 z "},"Ӫ":{"ha":1086,"x_min":70,"x_max":1016,"o":"m 1016 505 q 954 224 1016 340 q 784 47 891 108 q 543 -14 677 -14 q 301 47 408 -14 q 132 225 194 109 q 70 505 70 341 q 132 786 70 670 q 301 963 194 902 q 543 1024 408 1024 q 784 963 677 1024 q 954 786 891 902 q 1016 505 1016 670 m 543 175 q 710 239 644 175 q 794 425 777 303 q 692 402 737 404 q 610 409 648 400 q 537 430 573 418 q 429 456 485 446 q 290 442 372 466 q 371 244 303 312 q 543 175 438 175 m 796 569 q 715 767 782 699 q 543 835 647 835 q 376 772 442 835 q 292 587 309 708 q 393 608 349 607 q 475 601 437 610 q 548 581 512 593 q 656 555 599 565 q 796 569 714 545 z "},"Œ":{"ha":1414,"x_min":70,"x_max":1334,"o":"m 529 0 q 293 58 398 0 q 130 228 189 116 q 70 504 70 341 q 130 781 70 668 q 293 952 189 894 q 529 1010 398 1010 l 1332 1010 l 1332 834 l 865 834 l 865 593 l 1297 593 l 1297 417 l 865 417 l 865 176 l 1334 176 l 1334 0 l 529 0 m 651 176 l 651 834 l 529 834 q 352 755 421 834 q 284 504 284 675 q 352 254 284 332 q 529 176 421 176 l 651 176 z "},"P":{"ha":900,"x_min":88,"x_max":848,"o":"m 88 0 l 88 1010 l 486 1010 q 682 966 601 1010 q 806 846 763 923 q 848 668 848 768 q 805 491 848 567 q 679 371 762 414 q 481 327 597 327 l 301 327 l 301 0 l 88 0 m 301 499 l 446 499 q 583 546 538 499 q 628 668 628 593 q 583 789 628 743 q 445 836 538 836 l 301 836 l 301 499 z "},"Ṕ":{"ha":900,"x_min":88,"x_max":848,"o":"m 88 0 l 88 1010 l 486 1010 q 682 966 601 1010 q 806 846 763 923 q 848 668 848 768 q 805 491 848 567 q 679 371 762 414 q 481 327 597 327 l 301 327 l 301 0 l 88 0 m 301 499 l 446 499 q 583 546 538 499 q 628 668 628 593 q 583 789 628 743 q 445 836 538 836 l 301 836 l 301 499 m 368 1108 l 472 1332 l 667 1332 l 516 1108 l 368 1108 z "},"Ṗ":{"ha":900,"x_min":88,"x_max":848,"o":"m 88 0 l 88 1010 l 486 1010 q 682 966 601 1010 q 806 846 763 923 q 848 668 848 768 q 805 491 848 567 q 679 371 762 414 q 481 327 597 327 l 301 327 l 301 0 l 88 0 m 301 499 l 446 499 q 583 546 538 499 q 628 668 628 593 q 583 789 628 743 q 445 836 538 836 l 301 836 l 301 499 m 443 1108 q 363 1139 397 1108 q 330 1214 330 1170 q 363 1289 330 1258 q 443 1320 397 1320 q 524 1289 490 1320 q 557 1214 557 1258 q 524 1139 557 1170 q 443 1108 490 1108 z "},"Ҏ":{"ha":918,"x_min":93,"x_max":853,"o":"m 93 0 l 93 1010 l 491 1010 q 687 966 606 1010 q 811 846 768 923 q 853 668 853 768 q 814 497 853 572 q 699 379 774 423 l 765 277 l 676 219 l 598 340 q 486 327 545 327 l 306 327 l 306 0 l 93 0 m 515 663 l 590 548 q 633 668 633 592 q 588 789 633 743 q 450 836 543 836 l 306 836 l 306 499 l 451 499 q 493 502 473 499 l 426 606 l 515 663 z "},"Ƥ":{"ha":1185,"x_min":49,"x_max":1134,"o":"m 240 651 l 49 651 l 49 750 q 126 940 49 869 q 338 1010 204 1010 l 772 1010 q 968 966 887 1010 q 1091 846 1049 923 q 1134 668 1134 768 q 1090 491 1134 567 q 965 371 1047 414 q 766 327 883 327 l 587 327 l 587 0 l 373 0 l 373 836 l 339 836 q 276 817 298 836 q 247 769 255 798 q 240 709 239 740 l 240 651 m 587 499 l 732 499 q 869 546 824 499 q 914 668 914 593 q 869 789 914 743 q 731 836 824 836 l 587 836 l 587 499 z "},"Ρ":{"ha":900,"x_min":88,"x_max":848,"o":"m 88 0 l 88 1010 l 486 1010 q 682 966 601 1010 q 806 846 763 923 q 848 668 848 768 q 805 491 848 567 q 679 371 762 414 q 481 327 597 327 l 301 327 l 301 0 l 88 0 m 301 499 l 446 499 q 583 546 538 499 q 628 668 628 593 q 583 789 628 743 q 445 836 538 836 l 301 836 l 301 499 z "},"Ῥ":{"ha":1114,"x_min":70,"x_max":1047,"o":"m 286 0 l 286 1010 l 685 1010 q 880 966 799 1010 q 1004 846 961 923 q 1047 668 1047 768 q 1003 491 1047 567 q 878 371 960 414 q 679 327 796 327 l 500 327 l 500 0 l 286 0 m 500 499 l 645 499 q 781 546 736 499 q 827 668 827 593 q 781 789 827 743 q 644 836 736 836 l 500 836 l 500 499 z "},"Q":{"ha":1087,"x_min":70,"x_max":1016,"o":"m 1016 505 q 973 267 1016 370 q 856 99 930 165 l 1001 -83 l 801 -83 l 720 17 q 543 -14 638 -14 q 301 47 408 -14 q 132 225 194 109 q 70 505 70 341 q 132 786 70 670 q 301 963 194 902 q 543 1024 408 1024 q 784 963 677 1024 q 954 786 891 902 q 1016 505 1016 670 m 469 351 l 651 351 l 726 255 q 780 360 761 297 q 799 505 799 422 q 729 750 799 666 q 543 835 659 835 q 357 750 427 835 q 287 505 287 666 q 357 260 287 345 q 543 175 427 175 q 598 181 572 175 l 469 351 z "},"R":{"ha":911,"x_min":88,"x_max":884,"o":"m 88 0 l 88 1010 l 486 1010 q 753 920 658 1010 q 848 680 848 831 q 802 503 848 577 q 670 393 756 430 l 884 0 l 649 0 l 457 358 l 301 358 l 301 0 l 88 0 m 301 530 l 446 530 q 628 680 628 530 q 445 836 628 836 l 301 836 l 301 530 z "},"Ŕ":{"ha":911,"x_min":88,"x_max":884,"o":"m 88 0 l 88 1010 l 486 1010 q 753 920 658 1010 q 848 680 848 831 q 802 503 848 577 q 670 393 756 430 l 884 0 l 649 0 l 457 358 l 301 358 l 301 0 l 88 0 m 301 530 l 446 530 q 628 680 628 530 q 445 836 628 836 l 301 836 l 301 530 m 374 1108 l 479 1332 l 673 1332 l 523 1108 l 374 1108 z "},"Ŗ":{"ha":911,"x_min":88,"x_max":884,"o":"m 88 0 l 88 1010 l 486 1010 q 753 920 658 1010 q 848 680 848 831 q 802 503 848 577 q 670 393 756 430 l 884 0 l 649 0 l 457 358 l 301 358 l 301 0 l 88 0 m 301 530 l 446 530 q 628 680 628 530 q 445 836 628 836 l 301 836 l 301 530 m 310 -324 l 371 -80 l 565 -80 l 457 -324 l 310 -324 z "},"Ř":{"ha":911,"x_min":88,"x_max":884,"o":"m 88 0 l 88 1010 l 486 1010 q 753 920 658 1010 q 848 680 848 831 q 802 503 848 577 q 670 393 756 430 l 884 0 l 649 0 l 457 358 l 301 358 l 301 0 l 88 0 m 301 530 l 446 530 q 628 680 628 530 q 445 836 628 836 l 301 836 l 301 530 m 351 1325 l 450 1204 l 549 1325 l 728 1325 l 728 1318 l 528 1101 l 371 1101 l 172 1318 l 172 1325 l 351 1325 z "},"Ȑ":{"ha":911,"x_min":88,"x_max":884,"o":"m 88 0 l 88 1010 l 486 1010 q 753 920 658 1010 q 848 680 848 831 q 802 503 848 577 q 670 393 756 430 l 884 0 l 649 0 l 457 358 l 301 358 l 301 0 l 88 0 m 301 530 l 446 530 q 628 680 628 530 q 445 836 628 836 l 301 836 l 301 530 m 368 1108 l 195 1199 l 164 1332 l 352 1240 l 368 1108 m 609 1108 l 456 1199 l 458 1332 l 619 1240 l 609 1108 z "},"Ȓ":{"ha":911,"x_min":88,"x_max":884,"o":"m 88 0 l 88 1010 l 486 1010 q 753 920 658 1010 q 848 680 848 831 q 802 503 848 577 q 670 393 756 430 l 884 0 l 649 0 l 457 358 l 301 358 l 301 0 l 88 0 m 301 530 l 446 530 q 628 680 628 530 q 445 836 628 836 l 301 836 l 301 530 m 204 1132 q 270 1279 204 1222 q 448 1337 335 1337 q 626 1279 560 1337 q 693 1132 692 1222 l 546 1132 q 524 1193 546 1166 q 448 1220 501 1220 q 372 1193 395 1220 q 351 1132 350 1166 l 204 1132 z "},"Ṙ":{"ha":911,"x_min":88,"x_max":884,"o":"m 88 0 l 88 1010 l 486 1010 q 753 920 658 1010 q 848 680 848 831 q 802 503 848 577 q 670 393 756 430 l 884 0 l 649 0 l 457 358 l 301 358 l 301 0 l 88 0 m 301 530 l 446 530 q 628 680 628 530 q 445 836 628 836 l 301 836 l 301 530 m 450 1108 q 370 1139 403 1108 q 336 1214 336 1170 q 370 1289 336 1258 q 450 1320 403 1320 q 530 1289 497 1320 q 564 1214 564 1258 q 530 1139 564 1170 q 450 1108 497 1108 z "},"Ṛ":{"ha":911,"x_min":88,"x_max":884,"o":"m 88 0 l 88 1010 l 486 1010 q 753 920 658 1010 q 848 680 848 831 q 802 503 848 577 q 670 393 756 430 l 884 0 l 649 0 l 457 358 l 301 358 l 301 0 l 88 0 m 301 530 l 446 530 q 628 680 628 530 q 445 836 628 836 l 301 836 l 301 530 z "},"Ṝ":{"ha":911,"x_min":88,"x_max":884,"o":"m 88 0 l 88 1010 l 486 1010 q 753 920 658 1010 q 848 680 848 831 q 802 503 848 577 q 670 393 756 430 l 884 0 l 649 0 l 457 358 l 301 358 l 301 0 l 88 0 m 301 530 l 446 530 q 628 680 628 530 q 445 836 628 836 l 301 836 l 301 530 m 690 1263 l 690 1149 l 210 1149 l 210 1263 l 690 1263 z "},"Ṟ":{"ha":911,"x_min":88,"x_max":884,"o":"m 88 0 l 88 1010 l 486 1010 q 753 920 658 1010 q 848 680 848 831 q 802 503 848 577 q 670 393 756 430 l 884 0 l 649 0 l 457 358 l 301 358 l 301 0 l 88 0 m 301 530 l 446 530 q 628 680 628 530 q 445 836 628 836 l 301 836 l 301 530 z "},"℟":{"ha":920,"x_min":91,"x_max":888,"o":"m 648 1152 l 614 995 q 790 884 728 966 q 852 680 852 801 q 806 503 852 577 q 673 393 760 430 l 888 0 l 652 0 l 472 337 l 345 -248 l 266 -237 l 397 358 l 305 358 l 305 0 l 91 0 l 91 1010 l 490 1010 q 539 1008 515 1010 l 559 1100 l 342 1151 l 363 1224 l 648 1152 m 305 530 l 434 530 l 501 832 q 449 836 477 836 l 305 836 l 305 530 m 515 536 q 632 680 632 559 q 573 805 632 767 l 515 536 z "},"℞":{"ha":1064,"x_min":88,"x_max":999,"o":"m 88 1010 l 477 1010 q 754 925 662 1010 q 846 695 846 840 q 803 529 846 596 q 690 423 760 462 l 748 345 l 830 457 l 975 457 l 821 244 l 999 0 l 815 0 l 730 117 l 646 0 l 496 0 l 656 219 l 544 375 l 301 375 l 301 0 l 88 0 l 88 1010 m 301 550 l 474 550 q 635 691 635 550 q 596 795 635 757 q 477 834 556 834 l 301 834 l 301 550 z "},"Ɍ":{"ha":939,"x_min":11,"x_max":907,"o":"m 110 0 l 110 372 l 11 372 l 11 532 l 110 532 l 110 1010 l 509 1010 q 776 920 681 1010 q 871 680 871 831 q 825 503 871 577 q 692 393 779 430 l 907 0 l 671 0 l 480 358 l 324 358 l 324 0 l 110 0 m 324 530 l 469 530 q 651 680 651 530 q 468 836 651 836 l 324 836 l 324 530 z "},"S":{"ha":909,"x_min":55,"x_max":854,"o":"m 636 720 q 585 812 630 779 q 463 845 540 845 q 343 813 385 845 q 301 732 301 781 q 347 650 300 678 q 461 607 395 622 l 551 585 q 708 528 639 566 q 815 432 776 491 q 854 289 854 373 q 750 68 854 150 q 462 -14 647 -14 q 169 70 278 -14 q 55 317 59 153 l 262 317 q 322 203 267 241 q 460 165 376 165 q 590 199 541 165 q 639 289 638 234 q 594 368 638 340 q 467 415 549 396 l 357 443 q 155 540 229 473 q 82 718 81 607 q 131 879 81 810 q 267 986 181 947 q 465 1024 354 1024 q 661 985 577 1024 q 792 878 745 947 q 840 720 839 810 l 636 720 z "},"Ś":{"ha":909,"x_min":55,"x_max":854,"o":"m 636 720 q 585 812 630 779 q 463 845 540 845 q 343 813 385 845 q 301 732 301 781 q 347 650 300 678 q 461 607 395 622 l 551 585 q 708 528 639 566 q 815 432 776 491 q 854 289 854 373 q 750 68 854 150 q 462 -14 647 -14 q 169 70 278 -14 q 55 317 59 153 l 262 317 q 322 203 267 241 q 460 165 376 165 q 590 199 541 165 q 639 289 638 234 q 594 368 638 340 q 467 415 549 396 l 357 443 q 155 540 229 473 q 82 718 81 607 q 131 879 81 810 q 267 986 181 947 q 465 1024 354 1024 q 661 985 577 1024 q 792 878 745 947 q 840 720 839 810 l 636 720 m 379 1108 l 484 1332 l 678 1332 l 528 1108 l 379 1108 z "},"Ŝ":{"ha":909,"x_min":55,"x_max":854,"o":"m 636 720 q 585 812 630 779 q 463 845 540 845 q 343 813 385 845 q 301 732 301 781 q 347 650 300 678 q 461 607 395 622 l 551 585 q 708 528 639 566 q 815 432 776 491 q 854 289 854 373 q 750 68 854 150 q 462 -14 647 -14 q 169 70 278 -14 q 55 317 59 153 l 262 317 q 322 203 267 241 q 460 165 376 165 q 590 199 541 165 q 639 289 638 234 q 594 368 638 340 q 467 415 549 396 l 357 443 q 155 540 229 473 q 82 718 81 607 q 131 879 81 810 q 267 986 181 947 q 465 1024 354 1024 q 661 985 577 1024 q 792 878 745 947 q 840 720 839 810 l 636 720 z "},"Ş":{"ha":909,"x_min":55,"x_max":854,"o":"m 636 720 q 585 812 630 779 q 463 845 540 845 q 343 813 385 845 q 301 732 301 781 q 347 650 300 678 q 461 607 395 622 l 551 585 q 708 528 639 566 q 815 432 776 491 q 854 289 854 373 q 750 68 854 150 q 462 -14 647 -14 q 169 70 278 -14 q 55 317 59 153 l 262 317 q 322 203 267 241 q 460 165 376 165 q 590 199 541 165 q 639 289 638 234 q 594 368 638 340 q 467 415 549 396 l 357 443 q 155 540 229 473 q 82 718 81 607 q 131 879 81 810 q 267 986 181 947 q 465 1024 354 1024 q 661 985 577 1024 q 792 878 745 947 q 840 720 839 810 l 636 720 m 408 4 l 505 4 l 497 -39 q 580 -77 547 -47 q 613 -159 612 -107 q 545 -276 613 -232 q 352 -320 476 -320 l 350 -226 q 448 -211 412 -226 q 484 -164 483 -196 q 461 -118 485 -134 q 386 -96 437 -103 l 408 4 z "},"Š":{"ha":909,"x_min":55,"x_max":854,"o":"m 636 720 q 585 812 630 779 q 463 845 540 845 q 343 813 385 845 q 301 732 301 781 q 347 650 300 678 q 461 607 395 622 l 551 585 q 708 528 639 566 q 815 432 776 491 q 854 289 854 373 q 750 68 854 150 q 462 -14 647 -14 q 169 70 278 -14 q 55 317 59 153 l 262 317 q 322 203 267 241 q 460 165 376 165 q 590 199 541 165 q 639 289 638 234 q 594 368 638 340 q 467 415 549 396 l 357 443 q 155 540 229 473 q 82 718 81 607 q 131 879 81 810 q 267 986 181 947 q 465 1024 354 1024 q 661 985 577 1024 q 792 878 745 947 q 840 720 839 810 l 636 720 m 356 1325 l 455 1204 l 554 1325 l 733 1325 l 733 1318 l 533 1101 l 377 1101 l 177 1318 l 177 1325 l 356 1325 z "},"Ș":{"ha":909,"x_min":55,"x_max":854,"o":"m 636 720 q 585 812 630 779 q 463 845 540 845 q 343 813 385 845 q 301 732 301 781 q 347 650 300 678 q 461 607 395 622 l 551 585 q 708 528 639 566 q 815 432 776 491 q 854 289 854 373 q 750 68 854 150 q 462 -14 647 -14 q 169 70 278 -14 q 55 317 59 153 l 262 317 q 322 203 267 241 q 460 165 376 165 q 590 199 541 165 q 639 289 638 234 q 594 368 638 340 q 467 415 549 396 l 357 443 q 155 540 229 473 q 82 718 81 607 q 131 879 81 810 q 267 986 181 947 q 465 1024 354 1024 q 661 985 577 1024 q 792 878 745 947 q 840 720 839 810 l 636 720 m 301 -330 l 363 -87 l 557 -87 l 449 -330 l 301 -330 z "},"Ṡ":{"ha":909,"x_min":55,"x_max":854,"o":"m 636 720 q 585 812 630 779 q 463 845 540 845 q 343 813 385 845 q 301 732 301 781 q 347 650 300 678 q 461 607 395 622 l 551 585 q 708 528 639 566 q 815 432 776 491 q 854 289 854 373 q 750 68 854 150 q 462 -14 647 -14 q 169 70 278 -14 q 55 317 59 153 l 262 317 q 322 203 267 241 q 460 165 376 165 q 590 199 541 165 q 639 289 638 234 q 594 368 638 340 q 467 415 549 396 l 357 443 q 155 540 229 473 q 82 718 81 607 q 131 879 81 810 q 267 986 181 947 q 465 1024 354 1024 q 661 985 577 1024 q 792 878 745 947 q 840 720 839 810 l 636 720 m 455 1108 q 375 1139 408 1108 q 341 1214 341 1170 q 375 1289 341 1258 q 455 1320 408 1320 q 535 1289 502 1320 q 569 1214 569 1258 q 535 1139 569 1170 q 455 1108 502 1108 z "},"Ṣ":{"ha":909,"x_min":55,"x_max":854,"o":"m 636 720 q 585 812 630 779 q 463 845 540 845 q 343 813 385 845 q 301 732 301 781 q 347 650 300 678 q 461 607 395 622 l 551 585 q 708 528 639 566 q 815 432 776 491 q 854 289 854 373 q 750 68 854 150 q 462 -14 647 -14 q 169 70 278 -14 q 55 317 59 153 l 262 317 q 322 203 267 241 q 460 165 376 165 q 590 199 541 165 q 639 289 638 234 q 594 368 638 340 q 467 415 549 396 l 357 443 q 155 540 229 473 q 82 718 81 607 q 131 879 81 810 q 267 986 181 947 q 465 1024 354 1024 q 661 985 577 1024 q 792 878 745 947 q 840 720 839 810 l 636 720 z "},"Ṥ":{"ha":909,"x_min":55,"x_max":854,"o":"m 636 720 q 585 812 630 779 q 463 845 540 845 q 343 813 385 845 q 301 732 301 781 q 347 650 300 678 q 461 607 395 622 l 551 585 q 708 528 639 566 q 815 432 776 491 q 854 289 854 373 q 750 68 854 150 q 462 -14 647 -14 q 169 70 278 -14 q 55 317 59 153 l 262 317 q 322 203 267 241 q 460 165 376 165 q 590 199 541 165 q 639 289 638 234 q 594 368 638 340 q 467 415 549 396 l 357 443 q 155 540 229 473 q 82 718 81 607 q 131 879 81 810 q 267 986 181 947 q 465 1024 354 1024 q 661 985 577 1024 q 792 878 745 947 q 840 720 839 810 l 636 720 m 230 1277 q 257 1335 231 1311 q 325 1358 283 1358 q 395 1335 369 1358 q 421 1277 421 1311 q 395 1220 421 1244 q 325 1197 369 1197 q 257 1220 283 1197 q 230 1277 231 1244 m 408 1110 l 508 1283 l 659 1283 l 521 1110 l 408 1110 z "},"Ṧ":{"ha":909,"x_min":55,"x_max":854,"o":"m 636 720 q 585 812 630 779 q 463 845 540 845 q 343 813 385 845 q 301 732 301 781 q 347 650 300 678 q 461 607 395 622 l 551 585 q 708 528 639 566 q 815 432 776 491 q 854 289 854 373 q 750 68 854 150 q 462 -14 647 -14 q 169 70 278 -14 q 55 317 59 153 l 262 317 q 322 203 267 241 q 460 165 376 165 q 590 199 541 165 q 639 289 638 234 q 594 368 638 340 q 467 415 549 396 l 357 443 q 155 540 229 473 q 82 718 81 607 q 131 879 81 810 q 267 986 181 947 q 465 1024 354 1024 q 661 985 577 1024 q 792 878 745 947 q 840 720 839 810 l 636 720 m 364 1294 l 456 1217 l 547 1294 l 724 1294 l 724 1282 l 527 1126 l 385 1126 l 187 1283 l 187 1294 l 364 1294 m 360 1406 q 386 1464 360 1441 q 455 1487 413 1487 q 525 1463 499 1487 q 550 1406 550 1440 q 524 1350 550 1373 q 455 1327 498 1327 q 386 1350 413 1327 q 360 1406 360 1373 z "},"Ṩ":{"ha":909,"x_min":55,"x_max":854,"o":"m 636 720 q 585 812 630 779 q 463 845 540 845 q 343 813 385 845 q 301 732 301 781 q 347 650 300 678 q 461 607 395 622 l 551 585 q 708 528 639 566 q 815 432 776 491 q 854 289 854 373 q 750 68 854 150 q 462 -14 647 -14 q 169 70 278 -14 q 55 317 59 153 l 262 317 q 322 203 267 241 q 460 165 376 165 q 590 199 541 165 q 639 289 638 234 q 594 368 638 340 q 467 415 549 396 l 357 443 q 155 540 229 473 q 82 718 81 607 q 131 879 81 810 q 267 986 181 947 q 465 1024 354 1024 q 661 985 577 1024 q 792 878 745 947 q 840 720 839 810 l 636 720 m 455 1108 q 375 1139 408 1108 q 341 1214 341 1170 q 375 1289 341 1258 q 455 1320 408 1320 q 535 1289 502 1320 q 569 1214 569 1258 q 535 1139 569 1170 q 455 1108 502 1108 z "},"Ѕ":{"ha":909,"x_min":55,"x_max":854,"o":"m 636 720 q 585 812 630 779 q 463 845 540 845 q 343 813 385 845 q 301 732 301 781 q 347 650 300 678 q 461 607 395 622 l 551 585 q 708 528 639 566 q 815 432 776 491 q 854 289 854 373 q 750 68 854 150 q 462 -14 647 -14 q 169 70 278 -14 q 55 317 59 153 l 262 317 q 322 203 267 241 q 460 165 376 165 q 590 199 541 165 q 639 289 638 234 q 594 368 638 340 q 467 415 549 396 l 357 443 q 155 540 229 473 q 82 718 81 607 q 131 879 81 810 q 267 986 181 947 q 465 1024 354 1024 q 661 985 577 1024 q 792 878 745 947 q 840 720 839 810 l 636 720 z "},"Ƨ":{"ha":909,"x_min":55,"x_max":854,"o":"m 274 720 q 325 812 280 779 q 446 845 370 845 q 567 813 525 845 q 609 732 609 781 q 562 650 610 678 q 449 607 514 622 l 358 585 q 202 528 270 566 q 94 432 134 491 q 55 289 55 373 q 159 68 56 150 q 447 -14 262 -14 q 741 70 631 -14 q 854 317 850 153 l 648 317 q 588 203 642 241 q 450 165 533 165 q 320 199 368 165 q 271 289 271 234 q 316 368 271 340 q 442 415 360 396 l 552 443 q 754 540 680 473 q 828 718 828 607 q 779 879 828 810 q 642 986 729 947 q 445 1024 555 1024 q 248 985 332 1024 q 117 878 164 947 q 69 720 71 810 l 274 720 z "},"ẞ":{"ha":995,"x_min":88,"x_max":940,"o":"m 88 0 l 88 665 q 131 856 88 776 q 255 980 175 937 q 445 1024 336 1024 q 596 1001 518 1024 q 749 939 674 979 q 886 849 823 900 l 661 585 q 864 489 789 569 q 940 292 940 409 q 894 130 940 199 q 767 24 848 62 q 581 -14 686 -14 q 466 -3 526 -14 q 358 27 405 8 l 417 186 q 489 163 450 173 q 566 154 528 154 q 688 191 644 154 q 732 293 732 228 q 701 393 732 358 q 625 441 670 428 q 539 455 580 455 l 446 455 l 446 583 l 630 793 q 550 837 596 819 q 447 855 503 855 q 335 800 369 855 q 301 665 301 746 l 301 0 l 88 0 z "},"T":{"ha":928,"x_min":49,"x_max":879,"o":"m 49 834 l 49 1010 l 879 1010 l 879 834 l 570 834 l 570 0 l 359 0 l 359 834 l 49 834 z "},"Ţ":{"ha":928,"x_min":49,"x_max":879,"o":"m 49 834 l 49 1010 l 879 1010 l 879 834 l 570 834 l 570 0 l 359 0 l 359 834 l 49 834 m 419 4 l 515 4 l 508 -39 q 591 -77 558 -47 q 623 -159 623 -107 q 555 -276 624 -232 q 363 -320 487 -320 l 361 -226 q 459 -211 423 -226 q 495 -164 494 -196 q 472 -118 496 -134 q 397 -96 448 -103 l 419 4 z "},"Ť":{"ha":928,"x_min":49,"x_max":879,"o":"m 49 834 l 49 1010 l 879 1010 l 879 834 l 570 834 l 570 0 l 359 0 l 359 834 l 49 834 m 366 1325 l 465 1204 l 564 1325 l 743 1325 l 743 1318 l 543 1101 l 387 1101 l 187 1318 l 187 1325 l 366 1325 z "},"Ț":{"ha":928,"x_min":49,"x_max":879,"o":"m 49 834 l 49 1010 l 879 1010 l 879 834 l 570 834 l 570 0 l 359 0 l 359 834 l 49 834 m 307 -324 l 368 -80 l 562 -80 l 454 -324 l 307 -324 z "},"Ṫ":{"ha":928,"x_min":49,"x_max":879,"o":"m 49 834 l 49 1010 l 879 1010 l 879 834 l 570 834 l 570 0 l 359 0 l 359 834 l 49 834 m 465 1108 q 385 1139 418 1108 q 351 1214 351 1170 q 385 1289 351 1258 q 465 1320 418 1320 q 545 1289 511 1320 q 579 1214 579 1258 q 545 1139 579 1170 q 465 1108 511 1108 z "},"Ṭ":{"ha":928,"x_min":49,"x_max":879,"o":"m 49 834 l 49 1010 l 879 1010 l 879 834 l 570 834 l 570 0 l 359 0 l 359 834 l 49 834 z "},"Ṯ":{"ha":928,"x_min":49,"x_max":879,"o":"m 49 834 l 49 1010 l 879 1010 l 879 834 l 570 834 l 570 0 l 359 0 l 359 834 l 49 834 z "},"Ṱ":{"ha":928,"x_min":49,"x_max":879,"o":"m 49 834 l 49 1010 l 879 1010 l 879 834 l 570 834 l 570 0 l 359 0 l 359 834 l 49 834 z "},"Ƭ":{"ha":977,"x_min":49,"x_max":927,"o":"m 927 1010 l 927 834 l 618 834 l 618 0 l 407 0 l 407 834 l 327 834 q 264 816 286 834 q 234 770 242 798 q 226 711 226 742 l 226 652 l 49 652 l 49 749 q 121 940 49 870 q 327 1010 192 1010 l 927 1010 z "},"Ʈ":{"ha":928,"x_min":49,"x_max":879,"o":"m 49 834 l 49 1010 l 879 1010 l 879 834 l 570 834 l 570 -46 q 603 -105 570 -91 q 678 -119 637 -119 l 720 -119 l 720 -284 l 622 -284 q 496 -265 556 -284 q 397 -195 436 -247 q 359 -46 359 -144 l 359 834 l 49 834 z "},"Ⱦ":{"ha":928,"x_min":49,"x_max":879,"o":"m 212 -128 l 359 325 l 359 834 l 49 834 l 49 1010 l 580 1010 l 621 1138 l 751 1138 l 709 1010 l 879 1010 l 879 834 l 652 834 l 570 579 l 570 0 l 382 0 l 341 -128 l 212 -128 z "},"Τ":{"ha":928,"x_min":49,"x_max":879,"o":"m 49 834 l 49 1010 l 879 1010 l 879 834 l 570 834 l 570 0 l 359 0 l 359 834 l 49 834 z "},"U":{"ha":1013,"x_min":88,"x_max":925,"o":"m 712 1010 l 925 1010 l 925 354 q 873 161 925 244 q 727 32 821 78 q 507 -14 632 -14 q 287 32 381 -14 q 140 161 192 78 q 88 354 88 244 l 88 1010 l 301 1010 l 301 372 q 358 230 301 286 q 507 174 414 174 q 656 230 600 174 q 712 372 712 286 l 712 1010 z "},"Ư":{"ha":1208,"x_min":88,"x_max":1159,"o":"m 1023 1047 l 1159 1047 q 1109 829 1159 911 q 925 731 1059 747 l 925 354 q 873 161 925 244 q 727 32 821 78 q 507 -14 632 -14 q 287 32 381 -14 q 140 161 192 78 q 88 354 88 244 l 88 1010 l 301 1010 l 301 372 q 358 230 301 286 q 507 174 414 174 q 656 230 600 174 q 712 372 712 286 l 712 1010 l 925 1010 l 925 844 q 1008 913 992 861 q 1023 1047 1023 966 z "},"Ù":{"ha":1013,"x_min":88,"x_max":925,"o":"m 712 1010 l 925 1010 l 925 354 q 873 161 925 244 q 727 32 821 78 q 507 -14 632 -14 q 287 32 381 -14 q 140 161 192 78 q 88 354 88 244 l 88 1010 l 301 1010 l 301 372 q 358 230 301 286 q 507 174 414 174 q 656 230 600 174 q 712 372 712 286 l 712 1010 m 434 1108 l 284 1332 l 477 1332 l 582 1108 l 434 1108 z "},"Ú":{"ha":1013,"x_min":88,"x_max":925,"o":"m 712 1010 l 925 1010 l 925 354 q 873 161 925 244 q 727 32 821 78 q 507 -14 632 -14 q 287 32 381 -14 q 140 161 192 78 q 88 354 88 244 l 88 1010 l 301 1010 l 301 372 q 358 230 301 286 q 507 174 414 174 q 656 230 600 174 q 712 372 712 286 l 712 1010 m 431 1108 l 536 1332 l 730 1332 l 580 1108 l 431 1108 z "},"Û":{"ha":1013,"x_min":88,"x_max":925,"o":"m 712 1010 l 925 1010 l 925 354 q 873 161 925 244 q 727 32 821 78 q 507 -14 632 -14 q 287 32 381 -14 q 140 161 192 78 q 88 354 88 244 l 88 1010 l 301 1010 l 301 372 q 358 230 301 286 q 507 174 414 174 q 656 230 600 174 q 712 372 712 286 l 712 1010 z "},"Ü":{"ha":1013,"x_min":88,"x_max":925,"o":"m 712 1010 l 925 1010 l 925 354 q 873 161 925 244 q 727 32 821 78 q 507 -14 632 -14 q 287 32 381 -14 q 140 161 192 78 q 88 354 88 244 l 88 1010 l 301 1010 l 301 372 q 358 230 301 286 q 507 174 414 174 q 656 230 600 174 q 712 372 712 286 l 712 1010 z "},"Ũ":{"ha":1013,"x_min":88,"x_max":925,"o":"m 712 1010 l 925 1010 l 925 354 q 873 161 925 244 q 727 32 821 78 q 507 -14 632 -14 q 287 32 381 -14 q 140 161 192 78 q 88 354 88 244 l 88 1010 l 301 1010 l 301 372 q 358 230 301 286 q 507 174 414 174 q 656 230 600 174 q 712 372 712 286 l 712 1010 m 365 1103 l 249 1105 q 295 1249 249 1199 q 409 1300 342 1300 q 474 1286 447 1300 q 523 1257 501 1272 q 556 1235 540 1244 q 591 1226 572 1226 q 634 1248 619 1227 q 650 1303 649 1269 l 764 1299 q 718 1155 764 1205 q 604 1104 671 1105 q 537 1118 563 1104 q 490 1148 510 1132 q 458 1169 473 1160 q 422 1178 442 1178 q 381 1158 397 1178 q 365 1103 365 1138 z "},"Ū":{"ha":1013,"x_min":88,"x_max":925,"o":"m 712 1010 l 925 1010 l 925 354 q 873 161 925 244 q 727 32 821 78 q 507 -14 632 -14 q 287 32 381 -14 q 140 161 192 78 q 88 354 88 244 l 88 1010 l 301 1010 l 301 372 q 358 230 301 286 q 507 174 414 174 q 656 230 600 174 q 712 372 712 286 l 712 1010 m 747 1263 l 747 1149 l 266 1149 l 266 1263 l 747 1263 z "},"Ŭ":{"ha":1013,"x_min":88,"x_max":925,"o":"m 712 1010 l 925 1010 l 925 354 q 873 161 925 244 q 727 32 821 78 q 507 -14 632 -14 q 287 32 381 -14 q 140 161 192 78 q 88 354 88 244 l 88 1010 l 301 1010 l 301 372 q 358 230 301 286 q 507 174 414 174 q 656 230 600 174 q 712 372 712 286 l 712 1010 m 604 1274 l 751 1274 q 684 1130 750 1185 q 507 1075 618 1075 q 329 1130 395 1075 q 263 1274 263 1185 l 408 1274 q 430 1213 408 1240 q 507 1186 453 1186 q 582 1213 559 1186 q 604 1274 604 1240 z "},"Ů":{"ha":1013,"x_min":88,"x_max":925,"o":"m 712 1010 l 925 1010 l 925 354 q 873 161 925 244 q 727 32 821 78 q 507 -14 632 -14 q 287 32 381 -14 q 140 161 192 78 q 88 354 88 244 l 88 1010 l 301 1010 l 301 372 q 358 230 301 286 q 507 174 414 174 q 656 230 600 174 q 712 372 712 286 l 712 1010 m 507 1064 q 426 1085 462 1064 q 368 1140 390 1105 q 346 1217 346 1175 q 368 1294 346 1259 q 426 1349 390 1328 q 507 1370 462 1370 q 587 1349 551 1370 q 645 1294 623 1328 q 667 1217 667 1259 q 645 1140 667 1175 q 587 1085 623 1105 q 507 1064 551 1064 m 507 1150 q 556 1170 536 1150 q 577 1217 577 1189 q 556 1264 577 1244 q 507 1284 536 1284 q 457 1264 478 1284 q 436 1217 436 1244 q 457 1169 436 1189 q 507 1150 477 1150 z "},"Ű":{"ha":1013,"x_min":88,"x_max":925,"o":"m 712 1010 l 925 1010 l 925 354 q 873 161 925 244 q 727 32 821 78 q 507 -14 632 -14 q 287 32 381 -14 q 140 161 192 78 q 88 354 88 244 l 88 1010 l 301 1010 l 301 372 q 358 230 301 286 q 507 174 414 174 q 656 230 600 174 q 712 372 712 286 l 712 1010 m 544 1098 l 700 1302 l 877 1302 l 692 1098 l 544 1098 m 291 1098 l 422 1302 l 599 1302 l 437 1098 l 291 1098 z "},"Ų":{"ha":1013,"x_min":88,"x_max":925,"o":"m 712 1010 l 925 1010 l 925 354 q 873 161 925 244 q 727 32 821 78 q 507 -14 632 -14 q 287 32 381 -14 q 140 161 192 78 q 88 354 88 244 l 88 1010 l 301 1010 l 301 372 q 358 230 301 286 q 507 174 414 174 q 656 230 600 174 q 712 372 712 286 l 712 1010 m 539 -282 q 429 -248 473 -282 q 374 -152 385 -215 q 388 -32 362 -92 q 479 58 414 29 l 635 1 q 559 -46 589 -21 q 530 -107 530 -71 q 578 -156 529 -156 q 607 -152 595 -156 q 630 -144 620 -147 l 652 -253 q 605 -273 633 -263 q 539 -282 577 -282 z "},"Ǔ":{"ha":1013,"x_min":88,"x_max":925,"o":"m 712 1010 l 925 1010 l 925 354 q 873 161 925 244 q 727 32 821 78 q 507 -14 632 -14 q 287 32 381 -14 q 140 161 192 78 q 88 354 88 244 l 88 1010 l 301 1010 l 301 372 q 358 230 301 286 q 507 174 414 174 q 656 230 600 174 q 712 372 712 286 l 712 1010 m 407 1325 l 507 1204 l 606 1325 l 785 1325 l 785 1318 l 584 1101 l 428 1101 l 228 1318 l 228 1325 l 407 1325 z "},"Ǖ":{"ha":1013,"x_min":88,"x_max":925,"o":"m 712 1010 l 925 1010 l 925 354 q 873 161 925 244 q 727 32 821 78 q 507 -14 632 -14 q 287 32 381 -14 q 140 161 192 78 q 88 354 88 244 l 88 1010 l 301 1010 l 301 372 q 358 230 301 286 q 507 174 414 174 q 656 230 600 174 q 712 372 712 286 l 712 1010 z "},"Ǘ":{"ha":1013,"x_min":88,"x_max":925,"o":"m 712 1010 l 925 1010 l 925 354 q 873 161 925 244 q 727 32 821 78 q 507 -14 632 -14 q 287 32 381 -14 q 140 161 192 78 q 88 354 88 244 l 88 1010 l 301 1010 l 301 372 q 358 230 301 286 q 507 174 414 174 q 656 230 600 174 q 712 372 712 286 l 712 1010 m 426 1330 l 562 1504 l 750 1504 l 577 1330 l 426 1330 m 651 1078 q 581 1106 611 1078 q 552 1173 552 1134 q 581 1240 552 1212 q 651 1268 611 1268 q 721 1240 692 1268 q 750 1173 750 1212 q 721 1106 750 1134 q 651 1078 692 1078 m 361 1078 q 291 1106 321 1078 q 262 1173 262 1134 q 291 1240 262 1212 q 361 1268 321 1268 q 431 1240 402 1268 q 460 1173 460 1212 q 431 1106 460 1134 q 361 1078 402 1078 z "},"Ǚ":{"ha":1013,"x_min":88,"x_max":925,"o":"m 712 1010 l 925 1010 l 925 354 q 873 161 925 244 q 727 32 821 78 q 507 -14 632 -14 q 287 32 381 -14 q 140 161 192 78 q 88 354 88 244 l 88 1010 l 301 1010 l 301 372 q 358 230 301 286 q 507 174 414 174 q 656 230 600 174 q 712 372 712 286 l 712 1010 m 416 1448 l 507 1373 l 599 1448 l 775 1448 l 775 1437 l 580 1281 l 436 1281 l 239 1439 l 239 1448 l 416 1448 m 563 1199 q 589 1255 563 1232 q 658 1278 615 1278 q 727 1255 700 1278 q 753 1199 753 1233 q 727 1141 753 1164 q 658 1118 700 1118 q 589 1141 615 1118 q 563 1199 563 1165 m 262 1199 q 288 1256 262 1233 q 355 1279 313 1279 q 425 1256 399 1279 q 451 1199 451 1232 q 424 1141 451 1164 q 356 1119 398 1119 q 288 1142 314 1119 q 262 1199 262 1164 z "},"Ǜ":{"ha":1013,"x_min":88,"x_max":925,"o":"m 712 1010 l 925 1010 l 925 354 q 873 161 925 244 q 727 32 821 78 q 507 -14 632 -14 q 287 32 381 -14 q 140 161 192 78 q 88 354 88 244 l 88 1010 l 301 1010 l 301 372 q 358 230 301 286 q 507 174 414 174 q 656 230 600 174 q 712 372 712 286 l 712 1010 m 561 1199 q 588 1255 561 1233 q 657 1278 615 1278 q 726 1255 700 1278 q 752 1199 751 1232 q 726 1142 751 1165 q 657 1118 700 1118 q 588 1141 615 1118 q 561 1199 561 1164 m 260 1199 q 286 1256 260 1233 q 354 1279 312 1279 q 424 1256 398 1279 q 451 1199 450 1232 q 423 1141 450 1164 q 354 1119 397 1119 q 286 1142 312 1119 q 260 1199 260 1164 m 480 1400 l 570 1270 l 459 1270 l 334 1400 l 480 1400 z "},"Ȕ":{"ha":1013,"x_min":88,"x_max":925,"o":"m 712 1010 l 925 1010 l 925 354 q 873 161 925 244 q 727 32 821 78 q 507 -14 632 -14 q 287 32 381 -14 q 140 161 192 78 q 88 354 88 244 l 88 1010 l 301 1010 l 301 372 q 358 230 301 286 q 507 174 414 174 q 656 230 600 174 q 712 372 712 286 l 712 1010 m 425 1108 l 252 1199 l 221 1332 l 409 1240 l 425 1108 m 666 1108 l 513 1199 l 514 1332 l 676 1240 l 666 1108 z "},"Ȗ":{"ha":1013,"x_min":88,"x_max":925,"o":"m 712 1010 l 925 1010 l 925 354 q 873 161 925 244 q 727 32 821 78 q 507 -14 632 -14 q 287 32 381 -14 q 140 161 192 78 q 88 354 88 244 l 88 1010 l 301 1010 l 301 372 q 358 230 301 286 q 507 174 414 174 q 656 230 600 174 q 712 372 712 286 l 712 1010 m 261 1132 q 327 1279 261 1222 q 506 1337 393 1337 q 684 1279 618 1337 q 750 1132 750 1222 l 604 1132 q 581 1193 603 1166 q 506 1220 558 1220 q 430 1193 452 1220 q 408 1132 407 1166 l 261 1132 z "},"Ṳ":{"ha":1013,"x_min":88,"x_max":925,"o":"m 712 1010 l 925 1010 l 925 354 q 873 161 925 244 q 727 32 821 78 q 507 -14 632 -14 q 287 32 381 -14 q 140 161 192 78 q 88 354 88 244 l 88 1010 l 301 1010 l 301 372 q 358 230 301 286 q 507 174 414 174 q 656 230 600 174 q 712 372 712 286 l 712 1010 z "},"Ṵ":{"ha":1013,"x_min":88,"x_max":925,"o":"m 712 1010 l 925 1010 l 925 354 q 873 161 925 244 q 727 32 821 78 q 507 -14 632 -14 q 287 32 381 -14 q 140 161 192 78 q 88 354 88 244 l 88 1010 l 301 1010 l 301 372 q 358 230 301 286 q 507 174 414 174 q 656 230 600 174 q 712 372 712 286 l 712 1010 z "},"Ṷ":{"ha":1013,"x_min":88,"x_max":925,"o":"m 712 1010 l 925 1010 l 925 354 q 873 161 925 244 q 727 32 821 78 q 507 -14 632 -14 q 287 32 381 -14 q 140 161 192 78 q 88 354 88 244 l 88 1010 l 301 1010 l 301 372 q 358 230 301 286 q 507 174 414 174 q 656 230 600 174 q 712 372 712 286 l 712 1010 z "},"Ṹ":{"ha":1013,"x_min":88,"x_max":925,"o":"m 712 1010 l 925 1010 l 925 354 q 873 161 925 244 q 727 32 821 78 q 507 -14 632 -14 q 287 32 381 -14 q 140 161 192 78 q 88 354 88 244 l 88 1010 l 301 1010 l 301 372 q 358 230 301 286 q 507 174 414 174 q 656 230 600 174 q 712 372 712 286 l 712 1010 m 371 1095 l 258 1097 q 303 1231 258 1184 q 412 1279 348 1278 q 475 1266 449 1279 q 522 1238 501 1253 q 554 1218 538 1227 q 587 1210 570 1210 q 629 1230 615 1210 q 644 1281 643 1249 l 754 1278 q 709 1144 753 1191 q 600 1096 664 1097 q 535 1109 560 1096 q 490 1137 510 1123 q 459 1157 474 1148 q 425 1165 444 1165 q 386 1146 400 1165 q 371 1095 371 1127 m 415 1330 l 551 1504 l 740 1504 l 566 1330 l 415 1330 z "},"Ṻ":{"ha":1013,"x_min":88,"x_max":925,"o":"m 712 1010 l 925 1010 l 925 354 q 873 161 925 244 q 727 32 821 78 q 507 -14 632 -14 q 287 32 381 -14 q 140 161 192 78 q 88 354 88 244 l 88 1010 l 301 1010 l 301 372 q 358 230 301 286 q 507 174 414 174 q 656 230 600 174 q 712 372 712 286 l 712 1010 m 747 1225 l 747 1111 l 265 1111 l 265 1225 l 747 1225 m 260 1367 q 286 1424 260 1401 q 354 1448 312 1448 q 423 1425 397 1448 q 451 1367 450 1401 q 424 1310 450 1334 q 354 1287 398 1287 q 286 1310 311 1287 q 260 1367 260 1334 m 561 1367 q 587 1424 561 1401 q 657 1448 614 1448 q 725 1424 699 1448 q 752 1367 751 1400 q 725 1310 751 1333 q 657 1288 699 1288 q 587 1310 614 1288 q 561 1367 561 1333 z "},"Ụ":{"ha":1013,"x_min":88,"x_max":925,"o":"m 712 1010 l 925 1010 l 925 354 q 873 161 925 244 q 727 32 821 78 q 507 -14 632 -14 q 287 32 381 -14 q 140 161 192 78 q 88 354 88 244 l 88 1010 l 301 1010 l 301 372 q 358 230 301 286 q 507 174 414 174 q 656 230 600 174 q 712 372 712 286 l 712 1010 z "},"Ủ":{"ha":1013,"x_min":88,"x_max":925,"o":"m 712 1010 l 925 1010 l 925 354 q 873 161 925 244 q 727 32 821 78 q 507 -14 632 -14 q 287 32 381 -14 q 140 161 192 78 q 88 354 88 244 l 88 1010 l 301 1010 l 301 372 q 358 230 301 286 q 507 174 414 174 q 656 230 600 174 q 712 372 712 286 l 712 1010 m 584 1119 l 428 1119 l 417 1207 q 492 1221 470 1210 q 513 1252 514 1233 q 486 1288 514 1279 q 415 1298 457 1298 l 420 1393 q 621 1357 552 1393 q 689 1259 690 1322 q 656 1191 690 1214 q 584 1162 623 1168 l 584 1119 z "},"Ứ":{"ha":1208,"x_min":88,"x_max":1159,"o":"m 1023 1047 l 1159 1047 q 1109 829 1159 911 q 925 731 1059 747 l 925 354 q 873 161 925 244 q 727 32 821 78 q 507 -14 632 -14 q 287 32 381 -14 q 140 161 192 78 q 88 354 88 244 l 88 1010 l 301 1010 l 301 372 q 358 230 301 286 q 507 174 414 174 q 656 230 600 174 q 712 372 712 286 l 712 1010 l 925 1010 l 925 844 q 1008 913 992 861 q 1023 1047 1023 966 m 431 1108 l 536 1332 l 730 1332 l 580 1108 l 431 1108 z "},"Ừ":{"ha":1208,"x_min":88,"x_max":1159,"o":"m 1023 1047 l 1159 1047 q 1109 829 1159 911 q 925 731 1059 747 l 925 354 q 873 161 925 244 q 727 32 821 78 q 507 -14 632 -14 q 287 32 381 -14 q 140 161 192 78 q 88 354 88 244 l 88 1010 l 301 1010 l 301 372 q 358 230 301 286 q 507 174 414 174 q 656 230 600 174 q 712 372 712 286 l 712 1010 l 925 1010 l 925 844 q 1008 913 992 861 q 1023 1047 1023 966 m 434 1108 l 284 1332 l 477 1332 l 582 1108 l 434 1108 z "},"Ử":{"ha":1208,"x_min":88,"x_max":1159,"o":"m 1023 1047 l 1159 1047 q 1109 829 1159 911 q 925 731 1059 747 l 925 354 q 873 161 925 244 q 727 32 821 78 q 507 -14 632 -14 q 287 32 381 -14 q 140 161 192 78 q 88 354 88 244 l 88 1010 l 301 1010 l 301 372 q 358 230 301 286 q 507 174 414 174 q 656 230 600 174 q 712 372 712 286 l 712 1010 l 925 1010 l 925 844 q 1008 913 992 861 q 1023 1047 1023 966 m 584 1119 l 428 1119 l 417 1207 q 492 1221 470 1210 q 513 1252 514 1233 q 486 1288 514 1279 q 415 1298 457 1298 l 420 1393 q 621 1357 552 1393 q 689 1259 690 1322 q 656 1191 690 1214 q 584 1162 623 1168 l 584 1119 z "},"Ữ":{"ha":1208,"x_min":88,"x_max":1159,"o":"m 1023 1047 l 1159 1047 q 1109 829 1159 911 q 925 731 1059 747 l 925 354 q 873 161 925 244 q 727 32 821 78 q 507 -14 632 -14 q 287 32 381 -14 q 140 161 192 78 q 88 354 88 244 l 88 1010 l 301 1010 l 301 372 q 358 230 301 286 q 507 174 414 174 q 656 230 600 174 q 712 372 712 286 l 712 1010 l 925 1010 l 925 844 q 1008 913 992 861 q 1023 1047 1023 966 m 365 1103 l 249 1105 q 295 1249 249 1199 q 409 1300 342 1300 q 474 1286 447 1300 q 523 1257 501 1272 q 556 1235 540 1244 q 591 1226 572 1226 q 634 1248 619 1227 q 650 1303 649 1269 l 764 1299 q 718 1155 764 1205 q 604 1104 671 1105 q 537 1118 563 1104 q 490 1148 510 1132 q 458 1169 473 1160 q 422 1178 442 1178 q 381 1158 397 1178 q 365 1103 365 1138 z "},"Ự":{"ha":1208,"x_min":88,"x_max":1159,"o":"m 1023 1047 l 1159 1047 q 1109 829 1159 911 q 925 731 1059 747 l 925 354 q 873 161 925 244 q 727 32 821 78 q 507 -14 632 -14 q 287 32 381 -14 q 140 161 192 78 q 88 354 88 244 l 88 1010 l 301 1010 l 301 372 q 358 230 301 286 q 507 174 414 174 q 656 230 600 174 q 712 372 712 286 l 712 1010 l 925 1010 l 925 844 q 1008 913 992 861 q 1023 1047 1023 966 z "},"Ʉ":{"ha":1056,"x_min":-6,"x_max":1062,"o":"m 1062 574 l 1062 452 l 950 452 l 950 354 q 898 161 950 244 q 751 32 845 78 q 531 -14 657 -14 q 311 32 405 -14 q 165 161 217 78 q 112 354 112 244 l 112 452 l -6 452 l -6 574 l 112 574 l 112 1010 l 326 1010 l 326 574 l 736 574 l 736 1010 l 950 1010 l 950 574 l 1062 574 m 736 452 l 326 452 l 326 372 q 382 230 326 286 q 531 174 438 174 q 680 230 624 174 q 736 372 736 286 l 736 452 z "},"V":{"ha":1039,"x_min":33,"x_max":1005,"o":"m 270 1010 l 514 243 l 524 243 l 768 1010 l 1005 1010 l 657 0 l 382 0 l 33 1010 l 270 1010 z "},"Ṽ":{"ha":1039,"x_min":33,"x_max":1005,"o":"m 270 1010 l 514 243 l 524 243 l 768 1010 l 1005 1010 l 657 0 l 382 0 l 33 1010 l 270 1010 m 378 1103 l 261 1105 q 308 1249 261 1199 q 422 1300 355 1300 q 487 1286 460 1300 q 536 1257 513 1272 q 569 1235 553 1244 q 604 1226 585 1226 q 647 1248 632 1227 q 662 1303 662 1269 l 777 1299 q 730 1155 777 1205 q 617 1104 684 1105 q 549 1118 576 1104 q 503 1148 523 1132 q 471 1169 486 1160 q 435 1178 455 1178 q 394 1158 409 1178 q 378 1103 378 1138 z "},"Ṿ":{"ha":1039,"x_min":33,"x_max":1005,"o":"m 270 1010 l 514 243 l 524 243 l 768 1010 l 1005 1010 l 657 0 l 382 0 l 33 1010 l 270 1010 z "},"W":{"ha":1439,"x_min":26,"x_max":1413,"o":"m 315 0 l 26 1010 l 259 1010 l 427 308 l 435 308 l 619 1010 l 819 1010 l 1003 307 l 1012 307 l 1179 1010 l 1413 1010 l 1124 0 l 915 0 l 723 660 l 715 660 l 523 0 l 315 0 z "},"Ŵ":{"ha":1439,"x_min":26,"x_max":1413,"o":"m 315 0 l 26 1010 l 259 1010 l 427 308 l 435 308 l 619 1010 l 819 1010 l 1003 307 l 1012 307 l 1179 1010 l 1413 1010 l 1124 0 l 915 0 l 723 660 l 715 660 l 523 0 l 315 0 z "},"Ẁ":{"ha":1439,"x_min":26,"x_max":1413,"o":"m 315 0 l 26 1010 l 259 1010 l 427 308 l 435 308 l 619 1010 l 819 1010 l 1003 307 l 1012 307 l 1179 1010 l 1413 1010 l 1124 0 l 915 0 l 723 660 l 715 660 l 523 0 l 315 0 m 647 1108 l 496 1332 l 690 1332 l 795 1108 l 647 1108 z "},"Ẃ":{"ha":1439,"x_min":26,"x_max":1413,"o":"m 315 0 l 26 1010 l 259 1010 l 427 308 l 435 308 l 619 1010 l 819 1010 l 1003 307 l 1012 307 l 1179 1010 l 1413 1010 l 1124 0 l 915 0 l 723 660 l 715 660 l 523 0 l 315 0 m 644 1108 l 748 1332 l 943 1332 l 792 1108 l 644 1108 z "},"Ẅ":{"ha":1439,"x_min":26,"x_max":1413,"o":"m 315 0 l 26 1010 l 259 1010 l 427 308 l 435 308 l 619 1010 l 819 1010 l 1003 307 l 1012 307 l 1179 1010 l 1413 1010 l 1124 0 l 915 0 l 723 660 l 715 660 l 523 0 l 315 0 z "},"Ẇ":{"ha":1439,"x_min":26,"x_max":1413,"o":"m 315 0 l 26 1010 l 259 1010 l 427 308 l 435 308 l 619 1010 l 819 1010 l 1003 307 l 1012 307 l 1179 1010 l 1413 1010 l 1124 0 l 915 0 l 723 660 l 715 660 l 523 0 l 315 0 m 719 1108 q 639 1139 673 1108 q 606 1214 606 1170 q 639 1289 606 1258 q 719 1320 673 1320 q 799 1289 766 1320 q 833 1214 833 1258 q 799 1139 833 1170 q 719 1108 766 1108 z "},"Ẉ":{"ha":1439,"x_min":26,"x_max":1413,"o":"m 315 0 l 26 1010 l 259 1010 l 427 308 l 435 308 l 619 1010 l 819 1010 l 1003 307 l 1012 307 l 1179 1010 l 1413 1010 l 1124 0 l 915 0 l 723 660 l 715 660 l 523 0 l 315 0 z "},"X":{"ha":992,"x_min":40,"x_max":952,"o":"m 288 1010 l 492 666 l 500 666 l 704 1010 l 945 1010 l 637 505 l 952 0 l 707 0 l 500 345 l 492 345 l 285 0 l 40 0 l 356 505 l 46 1010 l 288 1010 z "},"Ẋ":{"ha":992,"x_min":40,"x_max":952,"o":"m 288 1010 l 492 666 l 500 666 l 704 1010 l 945 1010 l 637 505 l 952 0 l 707 0 l 500 345 l 492 345 l 285 0 l 40 0 l 356 505 l 46 1010 l 288 1010 m 495 1108 q 415 1139 449 1108 q 382 1214 382 1170 q 415 1289 382 1258 q 495 1320 449 1320 q 576 1289 542 1320 q 609 1214 609 1258 q 576 1139 609 1170 q 495 1108 542 1108 z "},"Ẍ":{"ha":992,"x_min":40,"x_max":952,"o":"m 288 1010 l 492 666 l 500 666 l 704 1010 l 945 1010 l 637 505 l 952 0 l 707 0 l 500 345 l 492 345 l 285 0 l 40 0 l 356 505 l 46 1010 l 288 1010 z "},"Ҳ":{"ha":992,"x_min":40,"x_max":1016,"o":"m 288 1010 l 492 666 l 500 666 l 704 1010 l 945 1010 l 637 505 l 952 0 l 707 0 l 500 345 l 492 345 l 285 0 l 40 0 l 356 505 l 46 1010 l 288 1010 m 1016 145 l 1016 -244 l 812 -244 l 812 145 l 1016 145 z "},"Ӽ":{"ha":992,"x_min":40,"x_max":1038,"o":"m 288 1010 l 492 666 l 500 666 l 704 1010 l 945 1010 l 637 505 l 952 0 l 707 0 l 500 345 l 492 345 l 285 0 l 40 0 l 356 505 l 46 1010 l 288 1010 m 834 186 l 1038 186 l 1038 -19 q 967 -224 1038 -151 q 770 -296 896 -296 q 719 -294 743 -296 q 669 -286 696 -292 l 679 -122 q 747 -131 709 -131 q 810 -102 787 -131 q 834 -19 834 -73 l 834 186 z "},"Χ":{"ha":992,"x_min":40,"x_max":952,"o":"m 288 1010 l 492 666 l 500 666 l 704 1010 l 945 1010 l 637 505 l 952 0 l 707 0 l 500 345 l 492 345 l 285 0 l 40 0 l 356 505 l 46 1010 l 288 1010 z "},"Y":{"ha":1006,"x_min":29,"x_max":978,"o":"m 29 1010 l 268 1010 l 498 575 l 508 575 l 738 1010 l 978 1010 l 609 357 l 609 0 l 397 0 l 397 357 l 29 1010 z "},"Ƴ":{"ha":1096,"x_min":36,"x_max":1076,"o":"m 36 1010 l 269 1010 l 529 575 l 541 575 l 727 885 q 827 988 769 955 q 949 1022 885 1020 q 1076 999 1014 1023 l 1030 838 q 949 842 980 854 q 890 783 919 829 l 641 390 l 641 0 l 429 0 l 429 390 l 36 1010 z "},"Ý":{"ha":1006,"x_min":29,"x_max":978,"o":"m 29 1010 l 268 1010 l 498 575 l 508 575 l 738 1010 l 978 1010 l 609 357 l 609 0 l 397 0 l 397 357 l 29 1010 m 428 1108 l 532 1332 l 727 1332 l 576 1108 l 428 1108 z "},"Ŷ":{"ha":1006,"x_min":29,"x_max":978,"o":"m 29 1010 l 268 1010 l 498 575 l 508 575 l 738 1010 l 978 1010 l 609 357 l 609 0 l 397 0 l 397 357 l 29 1010 z "},"Ÿ":{"ha":1006,"x_min":29,"x_max":978,"o":"m 29 1010 l 268 1010 l 498 575 l 508 575 l 738 1010 l 978 1010 l 609 357 l 609 0 l 397 0 l 397 357 l 29 1010 z "},"Ȳ":{"ha":1006,"x_min":29,"x_max":978,"o":"m 29 1010 l 268 1010 l 498 575 l 508 575 l 738 1010 l 978 1010 l 609 357 l 609 0 l 397 0 l 397 357 l 29 1010 m 743 1263 l 743 1149 l 263 1149 l 263 1263 l 743 1263 z "},"Ẏ":{"ha":1006,"x_min":29,"x_max":978,"o":"m 29 1010 l 268 1010 l 498 575 l 508 575 l 738 1010 l 978 1010 l 609 357 l 609 0 l 397 0 l 397 357 l 29 1010 m 503 1108 q 423 1139 457 1108 q 390 1214 390 1170 q 423 1289 390 1258 q 503 1320 457 1320 q 583 1289 550 1320 q 617 1214 617 1258 q 583 1139 617 1170 q 503 1108 550 1108 z "},"Ỳ":{"ha":1006,"x_min":29,"x_max":978,"o":"m 29 1010 l 268 1010 l 498 575 l 508 575 l 738 1010 l 978 1010 l 609 357 l 609 0 l 397 0 l 397 357 l 29 1010 m 430 1108 l 280 1332 l 473 1332 l 579 1108 l 430 1108 z "},"Ỵ":{"ha":1006,"x_min":29,"x_max":978,"o":"m 29 1010 l 268 1010 l 498 575 l 508 575 l 738 1010 l 978 1010 l 609 357 l 609 0 l 397 0 l 397 357 l 29 1010 z "},"Ỷ":{"ha":1006,"x_min":29,"x_max":978,"o":"m 29 1010 l 268 1010 l 498 575 l 508 575 l 738 1010 l 978 1010 l 609 357 l 609 0 l 397 0 l 397 357 l 29 1010 m 581 1119 l 425 1119 l 414 1207 q 488 1221 466 1210 q 510 1252 510 1233 q 482 1288 510 1279 q 411 1298 454 1298 l 417 1393 q 617 1357 548 1393 q 686 1259 686 1322 q 653 1191 686 1214 q 581 1162 620 1168 l 581 1119 z "},"Ỹ":{"ha":1006,"x_min":29,"x_max":978,"o":"m 29 1010 l 268 1010 l 498 575 l 508 575 l 738 1010 l 978 1010 l 609 357 l 609 0 l 397 0 l 397 357 l 29 1010 m 362 1103 l 245 1105 q 292 1249 245 1199 q 405 1300 338 1300 q 471 1286 444 1300 q 519 1257 497 1272 q 553 1235 537 1244 q 587 1226 569 1226 q 631 1248 616 1227 q 646 1303 646 1269 l 761 1299 q 714 1155 761 1205 q 601 1104 668 1105 q 533 1118 559 1104 q 486 1148 507 1132 q 454 1169 470 1160 q 419 1178 438 1178 q 378 1158 393 1178 q 362 1103 362 1138 z "},"Ɏ":{"ha":1008,"x_min":12,"x_max":995,"o":"m 995 799 l 995 690 l 797 690 l 609 357 l 609 0 l 397 0 l 397 357 l 209 690 l 12 690 l 12 799 l 147 799 l 29 1010 l 268 1010 l 379 799 l 627 799 l 738 1010 l 978 1010 l 859 799 l 995 799 m 437 690 l 498 575 l 508 575 l 569 690 l 437 690 z "},"Υ":{"ha":1006,"x_min":29,"x_max":978,"o":"m 29 1010 l 268 1010 l 498 575 l 508 575 l 738 1010 l 978 1010 l 609 357 l 609 0 l 397 0 l 397 357 l 29 1010 z "},"Ύ":{"ha":1344,"x_min":16,"x_max":1256,"o":"m 307 1010 l 546 1010 l 776 575 l 786 575 l 1017 1010 l 1256 1010 l 887 357 l 887 0 l 675 0 l 675 357 l 307 1010 z "},"Ϋ":{"ha":1006,"x_min":29,"x_max":978,"o":"m 29 1010 l 268 1010 l 498 575 l 508 575 l 738 1010 l 978 1010 l 609 357 l 609 0 l 397 0 l 397 357 l 29 1010 z "},"Ὑ":{"ha":1269,"x_min":52,"x_max":1180,"o":"m 231 1010 l 471 1010 l 701 575 l 711 575 l 941 1010 l 1180 1010 l 812 357 l 812 0 l 600 0 l 600 357 l 231 1010 z "},"Ὓ":{"ha":1486,"x_min":43,"x_max":1397,"o":"m 448 1010 l 688 1010 l 918 575 l 928 575 l 1158 1010 l 1397 1010 l 1029 357 l 1029 0 l 817 0 l 817 357 l 448 1010 z "},"Ὕ":{"ha":1565,"x_min":14,"x_max":1478,"o":"m 529 1010 l 768 1010 l 998 575 l 1008 575 l 1238 1010 l 1478 1010 l 1109 357 l 1109 0 l 897 0 l 897 357 l 529 1010 z "},"Ὗ":{"ha":1470,"x_min":10,"x_max":1382,"o":"m 433 1010 l 672 1010 l 903 575 l 912 575 l 1143 1010 l 1382 1010 l 1014 357 l 1014 0 l 801 0 l 801 357 l 433 1010 z "},"Ῠ":{"ha":1006,"x_min":29,"x_max":978,"o":"m 29 1010 l 268 1010 l 498 575 l 508 575 l 738 1010 l 978 1010 l 609 357 l 609 0 l 397 0 l 397 357 l 29 1010 m 601 1274 l 747 1274 q 681 1130 747 1185 q 503 1075 615 1075 q 325 1130 391 1075 q 259 1274 259 1185 l 405 1274 q 427 1213 404 1240 q 503 1186 449 1186 q 578 1213 556 1186 q 601 1274 601 1240 z "},"Ῡ":{"ha":1006,"x_min":29,"x_max":978,"o":"m 29 1010 l 268 1010 l 498 575 l 508 575 l 738 1010 l 978 1010 l 609 357 l 609 0 l 397 0 l 397 357 l 29 1010 m 743 1263 l 743 1149 l 263 1149 l 263 1263 l 743 1263 z "},"Ὺ":{"ha":1295,"x_min":48,"x_max":1207,"o":"m 258 1010 l 498 1010 l 728 575 l 738 575 l 968 1010 l 1207 1010 l 839 357 l 839 0 l 627 0 l 627 357 l 258 1010 z "},"Ύ":{"ha":1284,"x_min":-39,"x_max":1196,"o":"m 247 1010 l 486 1010 l 716 575 l 726 575 l 956 1010 l 1196 1010 l 827 357 l 827 0 l 615 0 l 615 357 l 247 1010 z "},"Z":{"ha":926,"x_min":76,"x_max":850,"o":"m 77 0 l 77 127 l 581 834 l 76 834 l 76 1010 l 849 1010 l 849 883 l 345 176 l 850 176 l 850 0 l 77 0 z "},"Ź":{"ha":926,"x_min":76,"x_max":850,"o":"m 77 0 l 77 127 l 581 834 l 76 834 l 76 1010 l 849 1010 l 849 883 l 345 176 l 850 176 l 850 0 l 77 0 m 389 1108 l 494 1332 l 688 1332 l 538 1108 l 389 1108 z "},"Ż":{"ha":926,"x_min":76,"x_max":850,"o":"m 77 0 l 77 127 l 581 834 l 76 834 l 76 1010 l 849 1010 l 849 883 l 345 176 l 850 176 l 850 0 l 77 0 m 465 1108 q 385 1139 418 1108 q 351 1214 351 1170 q 385 1289 351 1258 q 465 1320 418 1320 q 545 1289 511 1320 q 579 1214 579 1258 q 545 1139 579 1170 q 465 1108 511 1108 z "},"Ž":{"ha":926,"x_min":76,"x_max":850,"o":"m 77 0 l 77 127 l 581 834 l 76 834 l 76 1010 l 849 1010 l 849 883 l 345 176 l 850 176 l 850 0 l 77 0 m 366 1325 l 465 1204 l 564 1325 l 743 1325 l 743 1318 l 543 1101 l 387 1101 l 187 1318 l 187 1325 l 366 1325 z "},"Ẑ":{"ha":926,"x_min":76,"x_max":850,"o":"m 77 0 l 77 127 l 581 834 l 76 834 l 76 1010 l 849 1010 l 849 883 l 345 176 l 850 176 l 850 0 l 77 0 z "},"Ẓ":{"ha":926,"x_min":76,"x_max":850,"o":"m 77 0 l 77 127 l 581 834 l 76 834 l 76 1010 l 849 1010 l 849 883 l 345 176 l 850 176 l 850 0 l 77 0 z "},"Ẕ":{"ha":926,"x_min":76,"x_max":850,"o":"m 77 0 l 77 127 l 581 834 l 76 834 l 76 1010 l 849 1010 l 849 883 l 345 176 l 850 176 l 850 0 l 77 0 z "},"Ȥ":{"ha":926,"x_min":76,"x_max":866,"o":"m 76 834 l 76 1010 l 849 1010 l 849 883 l 340 176 l 588 176 q 794 107 722 176 q 865 -84 866 37 l 865 -174 l 690 -174 l 690 -122 q 671 -37 690 -73 q 588 0 652 0 l 77 0 l 77 127 l 586 834 l 76 834 z "},"Ƶ":{"ha":926,"x_min":76,"x_max":850,"o":"m 77 0 l 77 127 l 581 834 l 76 834 l 76 1010 l 849 1010 l 849 883 l 345 176 l 850 176 l 850 0 l 77 0 m 233 471 l 233 594 l 725 594 l 725 471 l 233 471 z "},"Ζ":{"ha":926,"x_min":76,"x_max":850,"o":"m 77 0 l 77 127 l 581 834 l 76 834 l 76 1010 l 849 1010 l 849 883 l 345 176 l 850 176 l 850 0 l 77 0 z "},"Ɀ":{"ha":926,"x_min":74,"x_max":856,"o":"m 738 -296 q 626 -274 675 -296 q 534 -219 576 -253 q 452 -148 492 -186 q 367 -76 411 -110 q 268 -21 322 -43 q 143 0 214 0 l 76 0 l 76 118 l 574 837 l 74 837 l 74 1010 l 842 1010 l 842 893 l 331 150 q 442 97 393 130 q 530 26 490 64 q 607 -46 571 -12 q 679 -101 643 -79 q 757 -122 715 -122 q 856 -108 809 -122 l 856 -275 q 804 -290 835 -284 q 738 -296 773 -296 z "},"a":{"ha":806,"x_min":48,"x_max":727,"o":"m 300 -14 q 120 42 191 -14 q 48 212 48 99 q 88 345 48 296 q 193 416 128 393 q 333 445 258 438 q 474 466 432 455 q 516 513 516 476 l 516 516 q 487 588 516 563 q 404 614 458 614 q 314 589 347 614 q 269 527 280 565 l 75 543 q 183 707 97 646 q 405 767 269 767 q 563 741 489 767 q 681 658 636 714 q 727 511 727 601 l 727 0 l 527 0 l 527 105 l 521 105 q 439 19 494 52 q 300 -14 384 -14 m 360 131 q 473 171 429 131 q 518 271 518 211 l 518 351 q 480 336 506 343 q 424 325 454 330 q 372 317 395 321 q 283 286 317 309 q 249 218 249 263 q 280 153 249 175 q 360 131 312 131 z "},"á":{"ha":806,"x_min":48,"x_max":727,"o":"m 300 -14 q 120 42 191 -14 q 48 212 48 99 q 88 345 48 296 q 193 416 128 393 q 333 445 258 438 q 474 466 432 455 q 516 513 516 476 l 516 516 q 487 588 516 563 q 404 614 458 614 q 314 589 347 614 q 269 527 280 565 l 75 543 q 183 707 97 646 q 405 767 269 767 q 563 741 489 767 q 681 658 636 714 q 727 511 727 601 l 727 0 l 527 0 l 527 105 l 521 105 q 439 19 494 52 q 300 -14 384 -14 m 360 131 q 473 171 429 131 q 518 271 518 211 l 518 351 q 480 336 506 343 q 424 325 454 330 q 372 317 395 321 q 283 286 317 309 q 249 218 249 263 q 280 153 249 175 q 360 131 312 131 m 337 855 l 442 1080 l 636 1080 l 486 855 l 337 855 z "},"ă":{"ha":806,"x_min":48,"x_max":727,"o":"m 300 -14 q 120 42 191 -14 q 48 212 48 99 q 88 345 48 296 q 193 416 128 393 q 333 445 258 438 q 474 466 432 455 q 516 513 516 476 l 516 516 q 487 588 516 563 q 404 614 458 614 q 314 589 347 614 q 269 527 280 565 l 75 543 q 183 707 97 646 q 405 767 269 767 q 563 741 489 767 q 681 658 636 714 q 727 511 727 601 l 727 0 l 527 0 l 527 105 l 521 105 q 439 19 494 52 q 300 -14 384 -14 m 360 131 q 473 171 429 131 q 518 271 518 211 l 518 351 q 480 336 506 343 q 424 325 454 330 q 372 317 395 321 q 283 286 317 309 q 249 218 249 263 q 280 153 249 175 q 360 131 312 131 m 510 1022 l 657 1022 q 591 878 656 933 q 413 823 525 823 q 235 878 301 823 q 169 1022 169 933 l 315 1022 q 337 961 314 988 q 413 934 359 934 q 488 961 466 934 q 510 1022 510 987 z "},"ắ":{"ha":806,"x_min":48,"x_max":727,"o":"m 300 -14 q 120 42 191 -14 q 48 212 48 99 q 88 345 48 296 q 193 416 128 393 q 333 445 258 438 q 474 466 432 455 q 516 513 516 476 l 516 516 q 487 588 516 563 q 404 614 458 614 q 314 589 347 614 q 269 527 280 565 l 75 543 q 183 707 97 646 q 405 767 269 767 q 563 741 489 767 q 681 658 636 714 q 727 511 727 601 l 727 0 l 527 0 l 527 105 l 521 105 q 439 19 494 52 q 300 -14 384 -14 m 360 131 q 473 171 429 131 q 518 271 518 211 l 518 351 q 480 336 506 343 q 424 325 454 330 q 372 317 395 321 q 283 286 317 309 q 249 218 249 263 q 280 153 249 175 q 360 131 312 131 m 519 998 l 656 998 q 589 881 656 926 q 410 836 523 836 q 232 881 297 836 q 166 998 166 926 l 300 998 q 325 945 300 969 q 410 921 350 921 q 494 945 470 921 q 519 998 519 969 m 353 997 l 440 1123 l 584 1123 l 462 997 l 353 997 z "},"ặ":{"ha":806,"x_min":48,"x_max":727,"o":"m 300 -14 q 120 42 191 -14 q 48 212 48 99 q 88 345 48 296 q 193 416 128 393 q 333 445 258 438 q 474 466 432 455 q 516 513 516 476 l 516 516 q 487 588 516 563 q 404 614 458 614 q 314 589 347 614 q 269 527 280 565 l 75 543 q 183 707 97 646 q 405 767 269 767 q 563 741 489 767 q 681 658 636 714 q 727 511 727 601 l 727 0 l 527 0 l 527 105 l 521 105 q 439 19 494 52 q 300 -14 384 -14 m 360 131 q 473 171 429 131 q 518 271 518 211 l 518 351 q 480 336 506 343 q 424 325 454 330 q 372 317 395 321 q 283 286 317 309 q 249 218 249 263 q 280 153 249 175 q 360 131 312 131 m 510 1022 l 657 1022 q 591 878 656 933 q 413 823 525 823 q 235 878 301 823 q 169 1022 169 933 l 315 1022 q 337 961 314 988 q 413 934 359 934 q 488 961 466 934 q 510 1022 510 987 z "},"ằ":{"ha":806,"x_min":48,"x_max":727,"o":"m 300 -14 q 120 42 191 -14 q 48 212 48 99 q 88 345 48 296 q 193 416 128 393 q 333 445 258 438 q 474 466 432 455 q 516 513 516 476 l 516 516 q 487 588 516 563 q 404 614 458 614 q 314 589 347 614 q 269 527 280 565 l 75 543 q 183 707 97 646 q 405 767 269 767 q 563 741 489 767 q 681 658 636 714 q 727 511 727 601 l 727 0 l 527 0 l 527 105 l 521 105 q 439 19 494 52 q 300 -14 384 -14 m 360 131 q 473 171 429 131 q 518 271 518 211 l 518 351 q 480 336 506 343 q 424 325 454 330 q 372 317 395 321 q 283 286 317 309 q 249 218 249 263 q 280 153 249 175 q 360 131 312 131 m 519 999 l 656 999 q 590 883 656 929 q 410 838 523 838 q 232 883 297 838 q 166 999 166 929 l 300 999 q 325 946 300 970 q 410 922 350 922 q 494 946 469 922 q 519 999 519 970 m 366 997 l 243 1123 l 387 1123 l 473 997 l 366 997 z "},"ẳ":{"ha":806,"x_min":48,"x_max":727,"o":"m 300 -14 q 120 42 191 -14 q 48 212 48 99 q 88 345 48 296 q 193 416 128 393 q 333 445 258 438 q 474 466 432 455 q 516 513 516 476 l 516 516 q 487 588 516 563 q 404 614 458 614 q 314 589 347 614 q 269 527 280 565 l 75 543 q 183 707 97 646 q 405 767 269 767 q 563 741 489 767 q 681 658 636 714 q 727 511 727 601 l 727 0 l 527 0 l 527 105 l 521 105 q 439 19 494 52 q 300 -14 384 -14 m 360 131 q 473 171 429 131 q 518 271 518 211 l 518 351 q 480 336 506 343 q 424 325 454 330 q 372 317 395 321 q 283 286 317 309 q 249 218 249 263 q 280 153 249 175 q 360 131 312 131 m 518 990 l 654 990 q 588 875 654 919 q 407 831 521 831 q 228 875 294 831 q 162 990 162 919 l 297 990 q 323 939 297 960 q 407 918 349 918 q 493 940 467 918 q 518 990 518 961 m 469 1013 l 340 1013 l 328 1083 q 423 1115 424 1086 q 396 1144 424 1137 q 326 1151 368 1151 l 331 1225 q 512 1198 451 1225 q 572 1121 573 1170 q 540 1068 573 1085 q 469 1047 508 1051 l 469 1013 z "},"ẵ":{"ha":806,"x_min":48,"x_max":727,"o":"m 300 -14 q 120 42 191 -14 q 48 212 48 99 q 88 345 48 296 q 193 416 128 393 q 333 445 258 438 q 474 466 432 455 q 516 513 516 476 l 516 516 q 487 588 516 563 q 404 614 458 614 q 314 589 347 614 q 269 527 280 565 l 75 543 q 183 707 97 646 q 405 767 269 767 q 563 741 489 767 q 681 658 636 714 q 727 511 727 601 l 727 0 l 527 0 l 527 105 l 521 105 q 439 19 494 52 q 300 -14 384 -14 m 360 131 q 473 171 429 131 q 518 271 518 211 l 518 351 q 480 336 506 343 q 424 325 454 330 q 372 317 395 321 q 283 286 317 309 q 249 218 249 263 q 280 153 249 175 q 360 131 312 131 m 517 993 l 653 993 q 586 875 652 920 q 408 830 520 830 q 230 875 296 830 q 164 993 164 920 l 299 993 q 324 942 299 964 q 408 921 348 921 q 491 942 466 921 q 517 993 516 963 m 526 1204 l 612 1178 q 580 1092 612 1129 q 498 1055 547 1055 q 435 1067 461 1055 q 386 1089 409 1078 q 334 1100 363 1100 q 301 1084 315 1100 q 287 1042 286 1067 l 202 1065 q 233 1152 201 1114 q 316 1189 265 1189 q 372 1178 346 1189 q 424 1156 398 1167 q 480 1145 450 1145 q 512 1162 498 1145 q 526 1204 526 1179 z "},"ǎ":{"ha":806,"x_min":48,"x_max":727,"o":"m 300 -14 q 120 42 191 -14 q 48 212 48 99 q 88 345 48 296 q 193 416 128 393 q 333 445 258 438 q 474 466 432 455 q 516 513 516 476 l 516 516 q 487 588 516 563 q 404 614 458 614 q 314 589 347 614 q 269 527 280 565 l 75 543 q 183 707 97 646 q 405 767 269 767 q 563 741 489 767 q 681 658 636 714 q 727 511 727 601 l 727 0 l 527 0 l 527 105 l 521 105 q 439 19 494 52 q 300 -14 384 -14 m 360 131 q 473 171 429 131 q 518 271 518 211 l 518 351 q 480 336 506 343 q 424 325 454 330 q 372 317 395 321 q 283 286 317 309 q 249 218 249 263 q 280 153 249 175 q 360 131 312 131 m 314 1072 l 413 952 l 512 1072 l 691 1072 l 691 1065 l 491 848 l 334 848 l 135 1065 l 135 1072 l 314 1072 z "},"â":{"ha":806,"x_min":48,"x_max":727,"o":"m 300 -14 q 120 42 191 -14 q 48 212 48 99 q 88 345 48 296 q 193 416 128 393 q 333 445 258 438 q 474 466 432 455 q 516 513 516 476 l 516 516 q 487 588 516 563 q 404 614 458 614 q 314 589 347 614 q 269 527 280 565 l 75 543 q 183 707 97 646 q 405 767 269 767 q 563 741 489 767 q 681 658 636 714 q 727 511 727 601 l 727 0 l 527 0 l 527 105 l 521 105 q 439 19 494 52 q 300 -14 384 -14 m 360 131 q 473 171 429 131 q 518 271 518 211 l 518 351 q 480 336 506 343 q 424 325 454 330 q 372 317 395 321 q 283 286 317 309 q 249 218 249 263 q 280 153 249 175 q 360 131 312 131 z "},"ấ":{"ha":806,"x_min":48,"x_max":894,"o":"m 300 -14 q 120 42 191 -14 q 48 212 48 99 q 88 345 48 296 q 193 416 128 393 q 333 445 258 438 q 474 466 432 455 q 516 513 516 476 l 516 516 q 487 588 516 563 q 404 614 458 614 q 314 589 347 614 q 269 527 280 565 l 75 543 q 183 707 97 646 q 405 767 269 767 q 563 741 489 767 q 681 658 636 714 q 727 511 727 601 l 727 0 l 527 0 l 527 105 l 521 105 q 439 19 494 52 q 300 -14 384 -14 m 360 131 q 473 171 429 131 q 518 271 518 211 l 518 351 q 480 336 506 343 q 424 325 454 330 q 372 317 395 321 q 283 286 317 309 q 249 218 249 263 q 280 153 249 175 q 360 131 312 131 m 156 840 l 355 994 l 468 994 l 668 840 l 516 840 l 412 923 l 307 840 l 156 840 m 616 927 l 731 1112 l 894 1112 l 735 927 l 616 927 z "},"ậ":{"ha":806,"x_min":48,"x_max":727,"o":"m 300 -14 q 120 42 191 -14 q 48 212 48 99 q 88 345 48 296 q 193 416 128 393 q 333 445 258 438 q 474 466 432 455 q 516 513 516 476 l 516 516 q 487 588 516 563 q 404 614 458 614 q 314 589 347 614 q 269 527 280 565 l 75 543 q 183 707 97 646 q 405 767 269 767 q 563 741 489 767 q 681 658 636 714 q 727 511 727 601 l 727 0 l 527 0 l 527 105 l 521 105 q 439 19 494 52 q 300 -14 384 -14 m 360 131 q 473 171 429 131 q 518 271 518 211 l 518 351 q 480 336 506 343 q 424 325 454 330 q 372 317 395 321 q 283 286 317 309 q 249 218 249 263 q 280 153 249 175 q 360 131 312 131 z "},"ầ":{"ha":806,"x_min":-69,"x_max":727,"o":"m 300 -14 q 120 42 191 -14 q 48 212 48 99 q 88 345 48 296 q 193 416 128 393 q 333 445 258 438 q 474 466 432 455 q 516 513 516 476 l 516 516 q 487 588 516 563 q 404 614 458 614 q 314 589 347 614 q 269 527 280 565 l 75 543 q 183 707 97 646 q 405 767 269 767 q 563 741 489 767 q 681 658 636 714 q 727 511 727 601 l 727 0 l 527 0 l 527 105 l 521 105 q 439 19 494 52 q 300 -14 384 -14 m 360 131 q 473 171 429 131 q 518 271 518 211 l 518 351 q 480 336 506 343 q 424 325 454 330 q 372 317 395 321 q 283 286 317 309 q 249 218 249 263 q 280 153 249 175 q 360 131 312 131 m 468 991 l 668 837 l 517 837 l 412 920 l 307 837 l 157 837 l 355 991 l 468 991 m 92 1109 l 208 924 l 91 924 l -69 1109 l 92 1109 z "},"ẩ":{"ha":806,"x_min":48,"x_max":799,"o":"m 300 -14 q 120 42 191 -14 q 48 212 48 99 q 88 345 48 296 q 193 416 128 393 q 333 445 258 438 q 474 466 432 455 q 516 513 516 476 l 516 516 q 487 588 516 563 q 404 614 458 614 q 314 589 347 614 q 269 527 280 565 l 75 543 q 183 707 97 646 q 405 767 269 767 q 563 741 489 767 q 681 658 636 714 q 727 511 727 601 l 727 0 l 527 0 l 527 105 l 521 105 q 439 19 494 52 q 300 -14 384 -14 m 360 131 q 473 171 429 131 q 518 271 518 211 l 518 351 q 480 336 506 343 q 424 325 454 330 q 372 317 395 321 q 283 286 317 309 q 249 218 249 263 q 280 153 249 175 q 360 131 312 131 m 472 988 l 666 835 l 521 835 l 412 921 l 301 835 l 156 835 l 351 988 l 472 988 m 711 921 l 602 921 l 592 995 q 673 1032 673 1000 q 649 1063 673 1055 q 589 1071 625 1071 l 594 1150 q 747 1121 694 1150 q 799 1038 799 1091 q 772 982 799 1001 q 711 957 744 962 l 711 921 z "},"ẫ":{"ha":806,"x_min":48,"x_max":727,"o":"m 300 -14 q 120 42 191 -14 q 48 212 48 99 q 88 345 48 296 q 193 416 128 393 q 333 445 258 438 q 474 466 432 455 q 516 513 516 476 l 516 516 q 487 588 516 563 q 404 614 458 614 q 314 589 347 614 q 269 527 280 565 l 75 543 q 183 707 97 646 q 405 767 269 767 q 563 741 489 767 q 681 658 636 714 q 727 511 727 601 l 727 0 l 527 0 l 527 105 l 521 105 q 439 19 494 52 q 300 -14 384 -14 m 360 131 q 473 171 429 131 q 518 271 518 211 l 518 351 q 480 336 506 343 q 424 325 454 330 q 372 317 395 321 q 283 286 317 309 q 249 218 249 263 q 280 153 249 175 q 360 131 312 131 m 469 984 l 668 833 l 523 833 l 412 916 l 303 833 l 156 833 l 357 984 l 469 984 m 520 1152 l 593 1127 q 567 1054 593 1087 q 500 1020 542 1020 q 444 1031 469 1020 q 398 1053 420 1042 q 352 1064 376 1064 q 325 1050 335 1064 q 316 1017 316 1036 l 245 1037 q 270 1108 245 1075 q 337 1142 294 1142 q 387 1131 363 1142 q 437 1110 412 1121 q 485 1100 462 1100 q 510 1117 501 1100 q 520 1152 520 1133 z "},"ȁ":{"ha":806,"x_min":48,"x_max":727,"o":"m 300 -14 q 120 42 191 -14 q 48 212 48 99 q 88 345 48 296 q 193 416 128 393 q 333 445 258 438 q 474 466 432 455 q 516 513 516 476 l 516 516 q 487 588 516 563 q 404 614 458 614 q 314 589 347 614 q 269 527 280 565 l 75 543 q 183 707 97 646 q 405 767 269 767 q 563 741 489 767 q 681 658 636 714 q 727 511 727 601 l 727 0 l 527 0 l 527 105 l 521 105 q 439 19 494 52 q 300 -14 384 -14 m 360 131 q 473 171 429 131 q 518 271 518 211 l 518 351 q 480 336 506 343 q 424 325 454 330 q 372 317 395 321 q 283 286 317 309 q 249 218 249 263 q 280 153 249 175 q 360 131 312 131 m 331 855 l 158 947 l 127 1080 l 315 988 l 331 855 m 572 855 l 419 947 l 421 1080 l 582 988 l 572 855 z "},"ä":{"ha":806,"x_min":48,"x_max":727,"o":"m 300 -14 q 120 42 191 -14 q 48 212 48 99 q 88 345 48 296 q 193 416 128 393 q 333 445 258 438 q 474 466 432 455 q 516 513 516 476 l 516 516 q 487 588 516 563 q 404 614 458 614 q 314 589 347 614 q 269 527 280 565 l 75 543 q 183 707 97 646 q 405 767 269 767 q 563 741 489 767 q 681 658 636 714 q 727 511 727 601 l 727 0 l 527 0 l 527 105 l 521 105 q 439 19 494 52 q 300 -14 384 -14 m 360 131 q 473 171 429 131 q 518 271 518 211 l 518 351 q 480 336 506 343 q 424 325 454 330 q 372 317 395 321 q 283 286 317 309 q 249 218 249 263 q 280 153 249 175 q 360 131 312 131 m 262 861 q 189 891 220 861 q 159 962 159 921 q 189 1033 159 1004 q 262 1062 220 1062 q 335 1033 305 1062 q 365 962 365 1004 q 335 891 365 921 q 262 861 305 861 m 564 861 q 491 891 522 861 q 461 962 461 921 q 491 1033 461 1004 q 564 1062 522 1062 q 637 1033 607 1062 q 667 962 667 1004 q 637 891 667 921 q 564 861 607 861 z "},"ǟ":{"ha":806,"x_min":48,"x_max":727,"o":"m 300 -14 q 120 42 191 -14 q 48 212 48 99 q 88 345 48 296 q 193 416 128 393 q 333 445 258 438 q 474 466 432 455 q 516 513 516 476 l 516 516 q 487 588 516 563 q 404 614 458 614 q 314 589 347 614 q 269 527 280 565 l 75 543 q 183 707 97 646 q 405 767 269 767 q 563 741 489 767 q 681 658 636 714 q 727 511 727 601 l 727 0 l 527 0 l 527 105 l 521 105 q 439 19 494 52 q 300 -14 384 -14 m 360 131 q 473 171 429 131 q 518 271 518 211 l 518 351 q 480 336 506 343 q 424 325 454 330 q 372 317 395 321 q 283 286 317 309 q 249 218 249 263 q 280 153 249 175 q 360 131 312 131 z "},"ȧ":{"ha":806,"x_min":48,"x_max":727,"o":"m 300 -14 q 120 42 191 -14 q 48 212 48 99 q 88 345 48 296 q 193 416 128 393 q 333 445 258 438 q 474 466 432 455 q 516 513 516 476 l 516 516 q 487 588 516 563 q 404 614 458 614 q 314 589 347 614 q 269 527 280 565 l 75 543 q 183 707 97 646 q 405 767 269 767 q 563 741 489 767 q 681 658 636 714 q 727 511 727 601 l 727 0 l 527 0 l 527 105 l 521 105 q 439 19 494 52 q 300 -14 384 -14 m 360 131 q 473 171 429 131 q 518 271 518 211 l 518 351 q 480 336 506 343 q 424 325 454 330 q 372 317 395 321 q 283 286 317 309 q 249 218 249 263 q 280 153 249 175 q 360 131 312 131 m 412 855 q 332 887 366 855 q 299 962 299 918 q 332 1037 299 1006 q 412 1068 366 1068 q 493 1037 459 1068 q 526 962 526 1006 q 493 887 526 918 q 412 855 459 855 z "},"ạ":{"ha":806,"x_min":48,"x_max":727,"o":"m 300 -14 q 120 42 191 -14 q 48 212 48 99 q 88 345 48 296 q 193 416 128 393 q 333 445 258 438 q 474 466 432 455 q 516 513 516 476 l 516 516 q 487 588 516 563 q 404 614 458 614 q 314 589 347 614 q 269 527 280 565 l 75 543 q 183 707 97 646 q 405 767 269 767 q 563 741 489 767 q 681 658 636 714 q 727 511 727 601 l 727 0 l 527 0 l 527 105 l 521 105 q 439 19 494 52 q 300 -14 384 -14 m 360 131 q 473 171 429 131 q 518 271 518 211 l 518 351 q 480 336 506 343 q 424 325 454 330 q 372 317 395 321 q 283 286 317 309 q 249 218 249 263 q 280 153 249 175 q 360 131 312 131 z "},"ǡ":{"ha":806,"x_min":48,"x_max":727,"o":"m 300 -14 q 120 42 191 -14 q 48 212 48 99 q 88 345 48 296 q 193 416 128 393 q 333 445 258 438 q 474 466 432 455 q 516 513 516 476 l 516 516 q 487 588 516 563 q 404 614 458 614 q 314 589 347 614 q 269 527 280 565 l 75 543 q 183 707 97 646 q 405 767 269 767 q 563 741 489 767 q 681 658 636 714 q 727 511 727 601 l 727 0 l 527 0 l 527 105 l 521 105 q 439 19 494 52 q 300 -14 384 -14 m 360 131 q 473 171 429 131 q 518 271 518 211 l 518 351 q 480 336 506 343 q 424 325 454 330 q 372 317 395 321 q 283 286 317 309 q 249 218 249 263 q 280 153 249 175 q 360 131 312 131 z "},"à":{"ha":806,"x_min":48,"x_max":727,"o":"m 300 -14 q 120 42 191 -14 q 48 212 48 99 q 88 345 48 296 q 193 416 128 393 q 333 445 258 438 q 474 466 432 455 q 516 513 516 476 l 516 516 q 487 588 516 563 q 404 614 458 614 q 314 589 347 614 q 269 527 280 565 l 75 543 q 183 707 97 646 q 405 767 269 767 q 563 741 489 767 q 681 658 636 714 q 727 511 727 601 l 727 0 l 527 0 l 527 105 l 521 105 q 439 19 494 52 q 300 -14 384 -14 m 360 131 q 473 171 429 131 q 518 271 518 211 l 518 351 q 480 336 506 343 q 424 325 454 330 q 372 317 395 321 q 283 286 317 309 q 249 218 249 263 q 280 153 249 175 q 360 131 312 131 m 340 855 l 189 1080 l 383 1080 l 488 855 l 340 855 z "},"ả":{"ha":806,"x_min":48,"x_max":727,"o":"m 300 -14 q 120 42 191 -14 q 48 212 48 99 q 88 345 48 296 q 193 416 128 393 q 333 445 258 438 q 474 466 432 455 q 516 513 516 476 l 516 516 q 487 588 516 563 q 404 614 458 614 q 314 589 347 614 q 269 527 280 565 l 75 543 q 183 707 97 646 q 405 767 269 767 q 563 741 489 767 q 681 658 636 714 q 727 511 727 601 l 727 0 l 527 0 l 527 105 l 521 105 q 439 19 494 52 q 300 -14 384 -14 m 360 131 q 473 171 429 131 q 518 271 518 211 l 518 351 q 480 336 506 343 q 424 325 454 330 q 372 317 395 321 q 283 286 317 309 q 249 218 249 263 q 280 153 249 175 q 360 131 312 131 m 490 866 l 334 866 l 324 955 q 398 969 376 957 q 420 1000 420 981 q 392 1036 420 1026 q 321 1045 363 1045 l 327 1140 q 527 1105 458 1140 q 595 1006 596 1069 q 563 938 596 961 q 490 909 530 915 l 490 866 z "},"ȃ":{"ha":806,"x_min":48,"x_max":727,"o":"m 300 -14 q 120 42 191 -14 q 48 212 48 99 q 88 345 48 296 q 193 416 128 393 q 333 445 258 438 q 474 466 432 455 q 516 513 516 476 l 516 516 q 487 588 516 563 q 404 614 458 614 q 314 589 347 614 q 269 527 280 565 l 75 543 q 183 707 97 646 q 405 767 269 767 q 563 741 489 767 q 681 658 636 714 q 727 511 727 601 l 727 0 l 527 0 l 527 105 l 521 105 q 439 19 494 52 q 300 -14 384 -14 m 360 131 q 473 171 429 131 q 518 271 518 211 l 518 351 q 480 336 506 343 q 424 325 454 330 q 372 317 395 321 q 283 286 317 309 q 249 218 249 263 q 280 153 249 175 q 360 131 312 131 m 167 879 q 233 1027 167 969 q 411 1084 298 1084 q 589 1027 523 1084 q 656 879 655 969 l 509 879 q 487 941 509 914 q 411 967 464 967 q 335 940 358 967 q 314 879 313 913 l 167 879 z "},"ā":{"ha":806,"x_min":48,"x_max":727,"o":"m 300 -14 q 120 42 191 -14 q 48 212 48 99 q 88 345 48 296 q 193 416 128 393 q 333 445 258 438 q 474 466 432 455 q 516 513 516 476 l 516 516 q 487 588 516 563 q 404 614 458 614 q 314 589 347 614 q 269 527 280 565 l 75 543 q 183 707 97 646 q 405 767 269 767 q 563 741 489 767 q 681 658 636 714 q 727 511 727 601 l 727 0 l 527 0 l 527 105 l 521 105 q 439 19 494 52 q 300 -14 384 -14 m 360 131 q 473 171 429 131 q 518 271 518 211 l 518 351 q 480 336 506 343 q 424 325 454 330 q 372 317 395 321 q 283 286 317 309 q 249 218 249 263 q 280 153 249 175 q 360 131 312 131 m 653 1010 l 653 896 l 173 896 l 173 1010 l 653 1010 z "},"ą":{"ha":806,"x_min":48,"x_max":743,"o":"m 300 -14 q 120 42 191 -14 q 48 212 48 99 q 88 345 48 296 q 193 416 128 393 q 333 445 258 438 q 474 466 432 455 q 516 513 516 476 l 516 516 q 487 588 516 563 q 404 614 458 614 q 314 589 347 614 q 269 527 280 565 l 75 543 q 183 707 97 646 q 405 767 269 767 q 563 741 489 767 q 681 658 636 714 q 727 511 727 601 l 727 0 l 527 0 l 527 105 l 521 105 q 439 19 494 52 q 300 -14 384 -14 m 360 131 q 473 171 429 131 q 518 271 518 211 l 518 351 q 480 336 506 343 q 424 325 454 330 q 372 317 395 321 q 283 286 317 309 q 249 218 249 263 q 280 153 249 175 q 360 131 312 131 m 630 -283 q 521 -249 565 -283 q 465 -153 476 -216 q 479 -33 453 -93 q 570 57 505 28 l 727 0 q 651 -47 680 -22 q 621 -108 621 -72 q 669 -157 620 -157 q 699 -153 686 -157 q 721 -145 711 -148 l 743 -254 q 696 -273 725 -264 q 630 -283 668 -283 z "},"ẚ":{"ha":806,"x_min":48,"x_max":727,"o":"m 300 -14 q 120 42 191 -14 q 48 212 48 99 q 88 345 48 296 q 193 416 128 393 q 333 445 258 438 q 474 466 432 455 q 516 513 516 476 l 516 516 q 487 588 516 563 q 404 614 458 614 q 314 589 347 614 q 269 527 280 565 l 75 543 q 183 707 97 646 q 405 767 269 767 q 563 741 489 767 q 681 658 636 714 q 727 511 727 601 l 727 0 l 527 0 l 527 105 l 521 105 q 439 19 494 52 q 300 -14 384 -14 m 360 131 q 473 171 429 131 q 518 271 518 211 l 518 351 q 480 336 506 343 q 424 325 454 330 q 372 317 395 321 q 283 286 317 309 q 249 218 249 263 q 280 153 249 175 q 360 131 312 131 m 352 860 l 352 940 q 391 955 375 940 q 407 992 407 970 q 391 1032 407 1017 q 352 1048 375 1048 l 352 1130 q 451 1092 410 1130 q 492 992 492 1053 q 451 897 492 933 q 352 860 410 860 z "},"å":{"ha":806,"x_min":48,"x_max":727,"o":"m 300 -14 q 120 42 191 -14 q 48 212 48 99 q 88 345 48 296 q 193 416 128 393 q 333 445 258 438 q 474 466 432 455 q 516 513 516 476 l 516 516 q 487 588 516 563 q 404 614 458 614 q 314 589 347 614 q 269 527 280 565 l 75 543 q 183 707 97 646 q 405 767 269 767 q 563 741 489 767 q 681 658 636 714 q 727 511 727 601 l 727 0 l 527 0 l 527 105 l 521 105 q 439 19 494 52 q 300 -14 384 -14 m 360 131 q 473 171 429 131 q 518 271 518 211 l 518 351 q 480 336 506 343 q 424 325 454 330 q 372 317 395 321 q 283 286 317 309 q 249 218 249 263 q 280 153 249 175 q 360 131 312 131 m 413 839 q 327 861 366 839 q 266 919 289 882 q 244 1001 244 956 q 266 1083 244 1046 q 327 1143 289 1120 q 413 1165 366 1165 q 498 1143 460 1165 q 558 1083 536 1120 q 581 1001 581 1046 q 558 919 581 956 q 498 861 536 882 q 413 839 460 839 m 413 927 q 468 949 445 927 q 490 1001 490 972 q 468 1054 490 1031 q 413 1076 445 1076 q 358 1053 380 1076 q 336 1001 336 1031 q 358 949 336 972 q 413 927 380 927 z "},"ǻ":{"ha":806,"x_min":48,"x_max":727,"o":"m 300 -14 q 120 42 191 -14 q 48 212 48 99 q 88 345 48 296 q 193 416 128 393 q 333 445 258 438 q 474 466 432 455 q 516 513 516 476 l 516 516 q 487 588 516 563 q 404 614 458 614 q 314 589 347 614 q 269 527 280 565 l 75 543 q 183 707 97 646 q 405 767 269 767 q 563 741 489 767 q 681 658 636 714 q 727 511 727 601 l 727 0 l 527 0 l 527 105 l 521 105 q 439 19 494 52 q 300 -14 384 -14 m 360 131 q 473 171 429 131 q 518 271 518 211 l 518 351 q 480 336 506 343 q 424 325 454 330 q 372 317 395 321 q 283 286 317 309 q 249 218 249 263 q 280 153 249 175 q 360 131 312 131 m 412 809 q 325 844 362 809 q 288 928 288 879 q 325 1013 288 978 q 412 1048 362 1048 q 501 1013 465 1048 q 537 928 537 978 q 501 844 537 879 q 412 809 465 809 m 341 1094 l 475 1237 l 660 1237 l 470 1094 l 341 1094 m 412 881 q 447 895 433 881 q 461 928 461 909 q 447 960 461 946 q 412 974 433 974 q 378 960 393 974 q 364 928 364 946 q 378 895 364 909 q 412 881 393 881 z "},"ḁ":{"ha":806,"x_min":48,"x_max":727,"o":"m 300 -14 q 120 42 191 -14 q 48 212 48 99 q 88 345 48 296 q 193 416 128 393 q 333 445 258 438 q 474 466 432 455 q 516 513 516 476 l 516 516 q 487 588 516 563 q 404 614 458 614 q 314 589 347 614 q 269 527 280 565 l 75 543 q 183 707 97 646 q 405 767 269 767 q 563 741 489 767 q 681 658 636 714 q 727 511 727 601 l 727 0 l 527 0 l 527 105 l 521 105 q 439 19 494 52 q 300 -14 384 -14 m 360 131 q 473 171 429 131 q 518 271 518 211 l 518 351 q 480 336 506 343 q 424 325 454 330 q 372 317 395 321 q 283 286 317 309 q 249 218 249 263 q 280 153 249 175 q 360 131 312 131 m 268 -154 q 306 -72 268 -106 q 400 -38 344 -38 q 492 -72 454 -38 q 530 -154 530 -106 q 492 -238 530 -206 q 400 -271 454 -271 q 306 -238 344 -271 q 268 -154 268 -205 m 347 -154 q 362 -191 347 -177 q 400 -205 377 -205 q 435 -191 421 -205 q 450 -154 450 -177 q 435 -119 450 -133 q 400 -106 421 -106 q 362 -119 377 -106 q 347 -154 347 -133 z "},"ã":{"ha":806,"x_min":48,"x_max":727,"o":"m 300 -14 q 120 42 191 -14 q 48 212 48 99 q 88 345 48 296 q 193 416 128 393 q 333 445 258 438 q 474 466 432 455 q 516 513 516 476 l 516 516 q 487 588 516 563 q 404 614 458 614 q 314 589 347 614 q 269 527 280 565 l 75 543 q 183 707 97 646 q 405 767 269 767 q 563 741 489 767 q 681 658 636 714 q 727 511 727 601 l 727 0 l 527 0 l 527 105 l 521 105 q 439 19 494 52 q 300 -14 384 -14 m 360 131 q 473 171 429 131 q 518 271 518 211 l 518 351 q 480 336 506 343 q 424 325 454 330 q 372 317 395 321 q 283 286 317 309 q 249 218 249 263 q 280 153 249 175 q 360 131 312 131 m 272 851 l 155 852 q 201 997 155 946 q 315 1048 248 1047 q 380 1034 354 1048 q 429 1004 407 1019 q 462 983 446 992 q 497 974 478 974 q 541 995 526 974 q 556 1050 555 1016 l 671 1047 q 624 903 670 953 q 510 852 578 852 q 443 866 469 852 q 396 895 417 880 q 364 917 380 908 q 328 926 348 926 q 287 906 303 926 q 272 851 272 885 z "},"ɐ":{"ha":806,"x_min":79,"x_max":758,"o":"m 506 772 q 686 715 615 772 q 758 546 758 658 q 718 413 758 461 q 613 342 678 364 q 473 313 548 320 q 332 292 374 303 q 290 245 290 281 l 290 242 q 319 169 290 195 q 402 144 348 144 q 492 168 459 144 q 537 231 526 193 l 731 215 q 623 51 709 111 q 401 -10 537 -10 q 243 17 317 -10 q 125 100 170 43 q 79 247 79 156 l 79 758 l 279 758 l 279 653 l 285 653 q 367 739 312 705 q 506 772 422 772 m 446 627 q 332 587 377 627 q 288 487 288 546 l 288 406 q 326 421 300 415 q 382 432 352 428 q 434 440 411 437 q 523 472 489 448 q 557 539 557 495 q 526 605 557 582 q 446 627 494 627 z "},"а":{"ha":806,"x_min":48,"x_max":727,"o":"m 300 -14 q 120 42 191 -14 q 48 212 48 99 q 88 345 48 296 q 193 416 128 393 q 333 445 258 438 q 474 466 432 455 q 516 513 516 476 l 516 516 q 487 588 516 563 q 404 614 458 614 q 314 589 347 614 q 269 527 280 565 l 75 543 q 183 707 97 646 q 405 767 269 767 q 563 741 489 767 q 681 658 636 714 q 727 511 727 601 l 727 0 l 527 0 l 527 105 l 521 105 q 439 19 494 52 q 300 -14 384 -14 m 360 131 q 473 171 429 131 q 518 271 518 211 l 518 351 q 480 336 506 343 q 424 325 454 330 q 372 317 395 321 q 283 286 317 309 q 249 218 249 263 q 280 153 249 175 q 360 131 312 131 z "}}}
